M48
; DRILL file {KiCad 7.0.1} date Sun Sep  8 09:22:35 2024
; FORMAT={-:-/ absolute / inch / decimal}
; #@! TF.CreationDate,2024-09-08T09:22:35-05:00
; #@! TF.GenerationSoftware,Kicad,Pcbnew,7.0.1
; #@! TF.FileFunction,Plated,1,2,PTH
FMAT,2
INCH
; #@! TA.AperFunction,Plated,PTH,ViaDrill
T1C0.0157
; #@! TA.AperFunction,Plated,PTH,ComponentDrill
T2C0.0197
; #@! TA.AperFunction,Plated,PTH,ComponentDrill
T3C0.0236
; #@! TA.AperFunction,Plated,PTH,ComponentDrill
T4C0.0276
; #@! TA.AperFunction,Plated,PTH,ComponentDrill
T5C0.0295
; #@! TA.AperFunction,Plated,PTH,ComponentDrill
T6C0.0315
; #@! TA.AperFunction,Plated,PTH,ComponentDrill
T7C0.0354
; #@! TA.AperFunction,Plated,PTH,ComponentDrill
T8C0.0394
; #@! TA.AperFunction,Plated,PTH,ComponentDrill
T9C0.0402
; #@! TA.AperFunction,Plated,PTH,ComponentDrill
T10C0.0433
; #@! TA.AperFunction,Plated,PTH,ComponentDrill
T11C0.0461
; #@! TA.AperFunction,Plated,PTH,ComponentDrill
T12C0.0512
; #@! TA.AperFunction,Plated,PTH,ComponentDrill
T13C0.0591
; #@! TA.AperFunction,Plated,PTH,ComponentDrill
T14C0.0787
; #@! TA.AperFunction,Plated,PTH,ComponentDrill
T15C0.1260
%
G90
G05
T1
X1.465Y-7.1675
X1.4977Y-7.1945
X1.5071Y-7.1283
X1.7159Y-6.803
X1.8637Y-3.4556
X1.9432Y-5.048
X1.9658Y-4.986
X1.9877Y-4.935
X2.0298Y-6.0388
X2.0591Y-5.9848
X2.1712Y-6.2772
X2.1739Y-3.6068
X2.1796Y-7.1956
X2.1853Y-7.3205
X2.2365Y-6.3879
X2.2386Y-6.4445
X2.2486Y-6.0329
X2.2841Y-4.9639
X2.2956Y-6.2677
X2.3104Y-7.555
X2.3265Y-6.209
X2.3358Y-3.8996
X2.3574Y-5.7127
X2.3662Y-3.2407
X2.3783Y-3.2848
X2.3783Y-3.8582
X2.4306Y-6.3402
X2.5259Y-3.0628
X2.5397Y-5.3752
X2.5399Y-7.6753
X2.5669Y-3.3241
X2.5787Y-6.9681
X2.5957Y-6.8731
X2.7796Y-3.863
X2.8156Y-3.9162
X3.0533Y-6.6416
X3.1044Y-5.4449
X3.1086Y-6.7562
X3.1226Y-7.5024
X3.2243Y-5.621
X3.2313Y-5.7104
X3.2771Y-4.5285
X3.2816Y-4.4068
X3.2882Y-4.3
X3.3418Y-3.8985
X3.352Y-6.0122
X3.3705Y-4.9689
X3.3719Y-4.8306
X3.7332Y-5.1343
X3.7352Y-5.6452
X3.7394Y-6.8945
X3.7455Y-5.049
X3.8097Y-5.683
X3.9517Y-6.256
X3.9954Y-4.9624
X3.9984Y-6.4307
X4.054Y-6.509
X4.0698Y-5.696
X4.0729Y-7.8755
X4.2075Y-5.7194
X4.3284Y-6.6116
X4.3701Y-4.8708
X4.3701Y-5.4887
X4.4419Y-5.0894
X4.4433Y-5.8474
X4.5049Y-7.7813
X4.5177Y-6.6502
X4.5293Y-5.2875
X4.5382Y-6.7364
X4.6015Y-4.2537
X4.6896Y-7.93
X4.7724Y-5.7251
X4.7813Y-4.5932
X4.7819Y-5.8328
X4.8093Y-5.8037
X4.8213Y-3.6558
X4.8405Y-6.1169
X4.9054Y-3.4654
X4.9709Y-5.2557
X5.0056Y-6.0933
X5.0184Y-4.8151
X5.0473Y-4.7839
X5.0566Y-7.3002
X5.0707Y-5.4502
X5.3351Y-5.5169
X5.3666Y-5.872
X5.4335Y-7.017
X5.4417Y-6.8007
X5.4968Y-4.355
X5.5017Y-4.216
X5.5175Y-4.4004
X5.5648Y-8.2198
X5.5903Y-7.9946
X5.6209Y-6.0557
X5.6272Y-4.43
X5.6654Y-6.2271
X5.7992Y-5.2563
X5.8331Y-4.199
X5.853Y-6.278
X5.8563Y-5.9708
X5.8719Y-4.9247
X5.939Y-5.1061
X5.9619Y-3.6644
X6.0331Y-6.0989
X6.0569Y-7.2243
X6.0774Y-5.4544
X6.0775Y-5.65
X6.1731Y-7.1656
X6.1881Y-7.0797
X6.2051Y-5.7938
X6.2139Y-7.1229
X6.2348Y-7.8504
X6.2375Y-5.6
X6.2586Y-5.8961
X6.2666Y-6.1577
X6.3174Y-3.6181
X6.3223Y-7.5447
X6.3615Y-7.7371
X6.4106Y-6.0088
X6.4952Y-5.7146
X6.5721Y-5.64
X6.6248Y-5.2168
X6.6268Y-4.8053
X6.7387Y-5.9896
X6.7452Y-5.3446
X6.7487Y-3.1812
X6.7871Y-4.8441
X6.8346Y-6.7897
X6.8528Y-5.6373
X6.8542Y-6.747
X7.0203Y-6.9671
X7.0463Y-5.2922
X7.0829Y-6.0744
X7.1629Y-3.6586
X7.1677Y-6.43
X7.1862Y-4.2285
X7.1905Y-6.3774
X7.1917Y-4.404
X7.2033Y-6.04
X7.2061Y-6.7897
X7.2089Y-6.2809
X7.2328Y-3.7741
X7.245Y-6.2443
X7.3465Y-3.7341
X7.3879Y-4.7209
X7.5478Y-3.3809
X7.5833Y-5.2231
X7.6001Y-3.2413
X7.6422Y-3.1232
X7.6616Y-5.59
X7.6897Y-5.2579
X7.7122Y-6.9225
X7.7928Y-7.2044
X7.8544Y-5.654
X7.9105Y-6.3587
X8.0199Y-4.0409
X8.0588Y-4.163
X8.0604Y-6.0444
X8.0754Y-3.8857
X8.0968Y-6.7991
X8.0969Y-5.579
X8.0977Y-4.9378
X8.1264Y-4.2748
X8.1409Y-5.509
X8.1551Y-6.7023
X8.1731Y-5.0094
X8.2142Y-6.9087
X8.2404Y-4.4496
X8.2585Y-5.6161
X8.2733Y-5.5213
X8.2901Y-6.2888
X8.3252Y-5.6436
X8.3432Y-4.3276
X8.4004Y-5.5991
X8.4091Y-3.6586
X8.4164Y-5.5572
X8.4232Y-5.2342
X8.454Y-5.848
X8.4598Y-6.18
X8.4702Y-4.4406
X8.4799Y-7.0592
X8.4911Y-5.8159
X8.4936Y-4.772
X8.5262Y-6.6157
X8.5274Y-6.3222
X8.5352Y-4.7304
X8.561Y-5.0879
X8.6065Y-4.856
X8.6863Y-4.3072
X8.6964Y-4.5183
X8.739Y-7.1115
X8.7967Y-4.346
X8.8124Y-3.5717
X8.8281Y-7.0864
X8.8352Y-3.6128
X8.838Y-4.4992
X8.8598Y-5.414
X8.8614Y-4.3891
X8.889Y-8.1335
X8.9044Y-3.4393
X8.922Y-4.8154
X8.9762Y-3.4093
X8.9955Y-6.43
X9.028Y-6.8002
X9.0305Y-5.3151
X9.065Y-7.0401
X9.0872Y-5.9469
X9.1108Y-8.1049
X9.2211Y-7.1219
X9.348Y-6.8965
X9.3772Y-7.0248
X9.3814Y-3.0335
X9.3829Y-6.7323
X9.3888Y-6.4249
X9.3941Y-6.6381
X9.3956Y-6.9444
X9.4142Y-3.2646
X9.4539Y-7.5178
X9.5946Y-5.015
X9.6421Y-5.6502
X9.6669Y-5.1335
X9.6742Y-5.4232
X9.7Y-6.5551
X9.7672Y-7.3554
X9.7675Y-5.255
X9.7709Y-4.4712
X9.7897Y-7.2216
X9.8251Y-6.4058
X9.8411Y-6.4866
X9.9536Y-5.7945
X9.9626Y-4.1815
X10.0393Y-5.8145
X10.0444Y-4.3598
X10.0491Y-6.7014
X10.0595Y-6.0104
X10.0969Y-5.8718
X10.1679Y-5.9428
X10.1778Y-5.1493
X10.2982Y-5.6019
X10.307Y-6.2191
X10.4363Y-3.6001
X10.4899Y-7.3084
X10.6403Y-4.3413
X10.6788Y-3.9675
X10.7044Y-3.5568
X10.7408Y-3.6932
X10.9321Y-5.6146
X10.9518Y-6.7202
X10.9684Y-6.8527
X11.0416Y-4.7099
X11.0774Y-6.3494
X11.1435Y-6.4705
X11.1481Y-6.4134
X11.1561Y-3.3463
X11.1576Y-6.2793
X11.17Y-6.4996
X11.1833Y-6.6344
X11.1915Y-3.6067
X11.1925Y-6.1885
X11.203Y-7.0455
X11.206Y-6.534
X11.215Y-6.0894
X11.2281Y-6.894
X11.2314Y-6.9837
X11.2406Y-3.5798
X11.2511Y-3.6935
X11.2808Y-3.5512
X11.3336Y-3.5301
X11.4366Y-5.9108
X11.4779Y-6.0563
X11.4845Y-5.6948
X11.4885Y-4.2465
X11.5274Y-6.652
X11.528Y-6.5522
X11.5779Y-5.3569
X11.6144Y-6.7976
X11.6271Y-6.6889
X11.8447Y-6.4735
X11.8556Y-7.0874
X11.869Y-5.9487
X11.9445Y-4.9575
X11.9445Y-5.2373
X12.0053Y-7.1664
X12.0683Y-4.3188
X12.1609Y-4.2413
X12.3975Y-3.407
X12.4258Y-5.1067
X12.4627Y-4.6827
X12.5038Y-6.2879
X12.5326Y-4.379
X12.7615Y-4.0398
X12.7832Y-3.9758
X12.8697Y-4.8725
X12.9548Y-3.5228
X12.9551Y-3.414
X13.0032Y-3.411
X13.0115Y-4.5723
X13.027Y-3.443
X13.0493Y-3.5004
X13.1202Y-3.3857
X13.1654Y-5.1491
X13.1856Y-3.3259
X13.2462Y-3.3547
X13.2733Y-5.189
X13.285Y-4.9969
X13.4009Y-4.9633
X13.4308Y-3.5932
X13.4755Y-3.2361
X13.4931Y-4.9
X13.5459Y-3.1899
X13.587Y-4.8107
X13.6369Y-3.1625
X13.6821Y-3.134
X13.7145Y-4.3186
X13.8018Y-4.6375
X13.8116Y-2.919
X14.2053Y-2.8909
X14.2072Y-3.7165
X14.3066Y-3.2618
T2
X7.8331Y-4.5
X7.9Y-4.5
T3
X2.1Y-6.9
X2.1787Y-6.9
X5.7Y-3.8
X5.7787Y-3.8
X6.4173Y-7.0433
X6.4173Y-7.3386
X6.4213Y-7.6457
X6.4213Y-7.9134
X6.4213Y-8.1693
X6.4961Y-7.0433
X6.4961Y-7.3386
X6.5Y-7.6457
X6.5Y-7.9134
X6.5Y-8.1693
X11.4Y-5.2
X11.4787Y-5.2
T4
X1.2717Y-5.0787
X1.2717Y-5.2787
X1.2722Y-5.3793
X1.2722Y-5.5793
X1.2795Y-5.7047
X1.2795Y-5.9047
X1.4Y-6.7
X1.6Y-6.7
X1.7Y-3.3
X1.7Y-3.5
X1.7Y-3.7
X1.9Y-3.3
X1.9Y-3.5
X1.9Y-3.7
X2.1Y-3.7
X2.3Y-3.7
X2.5Y-3.3878
X2.5Y-3.5118
X2.5Y-3.6358
X2.5Y-3.7598
X2.5Y-3.8839
X2.5Y-4.0079
X2.5Y-4.1319
X2.5Y-4.2559
X2.5Y-4.3799
X2.5Y-4.5039
X2.5Y-4.628
X2.5Y-4.752
X2.5Y-4.876
X2.5Y-5.0
X2.7Y-3.3878
X2.7Y-3.5118
X2.7Y-3.6358
X2.7Y-3.7598
X2.7Y-3.8839
X2.7Y-4.0079
X2.7Y-4.1319
X2.7Y-4.2559
X2.7Y-4.3799
X2.7Y-4.5039
X2.7Y-4.628
X2.7Y-4.752
X2.7Y-4.876
X2.7Y-5.0
X6.9Y-6.925
X6.9Y-7.125
X7.075Y-6.925
X7.075Y-7.125
X7.275Y-6.925
X7.275Y-7.125
X11.825Y-8.075
X12.025Y-8.075
T5
X1.6Y-7.1
X1.65Y-7.05
X1.7Y-7.1
T6
X1.2598Y-4.4803
X1.2598Y-4.6772
X1.5083Y-4.4343
X1.5083Y-4.5343
X1.5083Y-4.6343
X1.5083Y-4.7343
X1.5083Y-4.8343
X1.5083Y-4.9343
X1.5083Y-5.0343
X1.5083Y-5.1343
X1.5083Y-5.2343
X1.5083Y-5.3343
X1.5083Y-5.4343
X1.5083Y-5.5343
X1.5083Y-5.6343
X1.5083Y-5.7343
X1.5083Y-5.8343
X1.5083Y-5.9343
X1.5083Y-6.0343
X1.5083Y-6.1343
X1.5083Y-6.2343
X1.5083Y-6.3343
X1.689Y-4.2598
X1.7087Y-6.5157
X1.8858Y-4.2598
X1.9055Y-6.5157
X2.1Y-3.5
X2.1083Y-4.4343
X2.1083Y-4.5343
X2.1083Y-4.6343
X2.1083Y-4.7343
X2.1083Y-4.8343
X2.1083Y-4.9343
X2.1083Y-5.0343
X2.1083Y-5.1343
X2.1083Y-5.2343
X2.1083Y-5.3343
X2.1083Y-5.4343
X2.1083Y-5.5343
X2.1083Y-5.6343
X2.1083Y-5.7343
X2.1083Y-5.8343
X2.1083Y-5.9343
X2.1083Y-6.0343
X2.1083Y-6.1343
X2.1083Y-6.2343
X2.1083Y-6.3343
X2.2969Y-3.5
X2.4004Y-6.8002
X2.4004Y-6.9002
X2.4004Y-7.0002
X2.4004Y-7.1002
X2.4004Y-7.2002
X2.4004Y-7.3002
X2.4004Y-7.4002
X2.4004Y-7.5002
X2.4004Y-7.6002
X2.4004Y-7.7002
X2.4031Y-6.5
X2.4504Y-5.3752
X2.4504Y-5.4752
X2.4504Y-5.5752
X2.4504Y-5.6752
X2.4504Y-5.7752
X2.4504Y-5.8752
X2.4504Y-5.9752
X2.4504Y-6.0752
X2.4504Y-6.1752
X2.4504Y-6.2752
X2.6Y-6.5
X2.7004Y-6.8002
X2.7004Y-6.9002
X2.7004Y-7.0002
X2.7004Y-7.1002
X2.7004Y-7.2002
X2.7004Y-7.3002
X2.7004Y-7.4002
X2.7004Y-7.5002
X2.7004Y-7.6002
X2.7004Y-7.7002
X2.7504Y-5.3752
X2.7504Y-5.4752
X2.7504Y-5.5752
X2.7504Y-5.6752
X2.7504Y-5.7752
X2.7504Y-5.8752
X2.7504Y-5.9752
X2.7504Y-6.0752
X2.7504Y-6.1752
X2.7504Y-6.2752
X3.15Y-5.2
X3.2Y-6.1502
X3.2Y-6.2502
X3.2Y-6.3502
X3.2Y-6.4502
X3.2Y-6.5502
X3.2Y-6.6502
X3.2Y-6.7502
X3.2Y-6.8502
X3.2Y-6.9502
X3.2Y-7.0502
X3.2Y-7.1502
X3.2Y-7.2502
X3.2Y-7.3502
X3.2Y-7.4502
X3.2Y-7.5502
X3.2Y-7.6502
X3.2Y-7.7502
X3.2Y-7.8502
X3.2Y-7.9502
X3.2Y-8.0502
X3.2016Y-5.95
X3.25Y-5.2
X3.35Y-5.2
X3.3984Y-5.95
X3.45Y-5.2
X3.55Y-5.2
X3.65Y-5.2
X3.8Y-6.1502
X3.8Y-6.2502
X3.8Y-6.3502
X3.8Y-6.4502
X3.8Y-6.5502
X3.8Y-6.6502
X3.8Y-6.7502
X3.8Y-6.8502
X3.8Y-6.9502
X3.8Y-7.0502
X3.8Y-7.1502
X3.8Y-7.2502
X3.8Y-7.3502
X3.8Y-7.4502
X3.8Y-7.5502
X3.8Y-7.6502
X3.8Y-7.7502
X3.8Y-7.8502
X3.8Y-7.9502
X3.8Y-8.0502
X4.3266Y-5.975
X4.4Y-6.1502
X4.4Y-6.2502
X4.4Y-6.3502
X4.4Y-6.4502
X4.4Y-6.5502
X4.4Y-6.6502
X4.4Y-6.7502
X4.4Y-6.8502
X4.4Y-6.9502
X4.4Y-7.0502
X4.4Y-7.1502
X4.4Y-7.2502
X4.4Y-7.3502
X4.4Y-7.4502
X4.4Y-7.5502
X4.4Y-7.6502
X4.4Y-7.7502
X4.4Y-7.8502
X4.4Y-7.9502
X4.4Y-8.0502
X4.5234Y-5.975
X4.6002Y-4.9
X4.6002Y-5.0
X4.6002Y-5.1
X4.6002Y-5.2
X4.6002Y-5.3
X4.6002Y-5.4
X4.6002Y-5.5
X4.6002Y-5.6
X4.6002Y-5.7
X4.6002Y-5.8
X4.6516Y-4.625
X4.8484Y-4.625
X4.9002Y-4.9
X4.9002Y-5.0
X4.9002Y-5.1
X4.9002Y-5.2
X4.9002Y-5.3
X4.9002Y-5.4
X4.9002Y-5.5
X4.9002Y-5.6
X4.9002Y-5.7
X4.9002Y-5.8
X5.0Y-6.1502
X5.0Y-6.2502
X5.0Y-6.3502
X5.0Y-6.4502
X5.0Y-6.5502
X5.0Y-6.6502
X5.0Y-6.7502
X5.0Y-6.8502
X5.0Y-6.9502
X5.0Y-7.0502
X5.0Y-7.1502
X5.0Y-7.2502
X5.0Y-7.3502
X5.0Y-7.4502
X5.0Y-7.5502
X5.0Y-7.6502
X5.0Y-7.7502
X5.0Y-7.8502
X5.0Y-7.9502
X5.0Y-8.0502
X5.1754Y-4.9002
X5.1754Y-5.0002
X5.1754Y-5.1002
X5.1754Y-5.2002
X5.1754Y-5.3002
X5.1754Y-5.4002
X5.1754Y-5.5002
X5.1754Y-5.6002
X5.1754Y-5.7002
X5.1754Y-5.8002
X5.2266Y-4.725
X5.4Y-3.6
X5.4234Y-4.725
X5.4754Y-4.9002
X5.4754Y-5.0002
X5.4754Y-5.1002
X5.4754Y-5.2002
X5.4754Y-5.3002
X5.4754Y-5.4002
X5.4754Y-5.5002
X5.4754Y-5.6002
X5.4754Y-5.7002
X5.4754Y-5.8002
X5.5969Y-3.6
X5.7323Y-5.0
X5.7323Y-5.1
X5.7323Y-5.2
X5.7323Y-5.3
X5.7323Y-5.4
X5.7323Y-5.5
X5.7323Y-5.6
X5.7323Y-5.7
X5.7323Y-5.8
X5.7323Y-5.9
X5.7323Y-6.0
X5.7323Y-6.1
X5.7323Y-6.2
X5.7323Y-6.3
X5.7323Y-6.4
X5.7323Y-6.5
X5.7323Y-6.6
X5.7323Y-6.7
X5.7323Y-6.8
X5.7323Y-6.9
X5.8618Y-7.389
X5.8618Y-7.489
X5.8618Y-7.589
X5.8618Y-7.689
X5.8618Y-7.789
X5.8618Y-7.889
X5.8618Y-7.989
X5.8618Y-8.089
X5.8661Y-4.3063
X5.8661Y-4.3063
X5.8661Y-4.6063
X5.8661Y-4.6063
X5.9173Y-4.14
X5.9173Y-4.8146
X5.9291Y-7.2175
X6.1142Y-4.14
X6.1142Y-4.8146
X6.126Y-7.2175
X6.1618Y-7.389
X6.1618Y-7.489
X6.1618Y-7.589
X6.1618Y-7.689
X6.1618Y-7.789
X6.1618Y-7.889
X6.1618Y-7.989
X6.1618Y-8.089
X6.1661Y-4.3063
X6.1661Y-4.6063
X6.3323Y-5.0
X6.3323Y-5.1
X6.3323Y-5.2
X6.3323Y-5.3
X6.3323Y-5.4
X6.3323Y-5.5
X6.3323Y-5.6
X6.3323Y-5.7
X6.3323Y-5.8
X6.3323Y-5.9
X6.3323Y-6.0
X6.3323Y-6.1
X6.3323Y-6.2
X6.3323Y-6.3
X6.3323Y-6.4
X6.3323Y-6.5
X6.3323Y-6.6
X6.3323Y-6.7
X6.3323Y-6.8
X6.3323Y-6.9
X6.4661Y-4.3063
X6.4661Y-4.6063
X6.5631Y-5.5
X6.64Y-5.76
X6.64Y-5.86
X6.64Y-5.96
X6.64Y-6.06
X6.64Y-6.16
X6.64Y-6.26
X6.64Y-6.36
X6.64Y-6.46
X6.64Y-6.56
X6.64Y-6.66
X6.76Y-5.5
X6.94Y-5.76
X6.94Y-5.86
X6.94Y-5.96
X6.94Y-6.06
X6.94Y-6.16
X6.94Y-6.26
X6.94Y-6.36
X6.94Y-6.46
X6.94Y-6.56
X6.94Y-6.66
X7.0Y-3.0748
X7.0315Y-7.4866
X7.0315Y-7.5866
X7.0315Y-7.6866
X7.0315Y-7.7866
X7.0315Y-7.8866
X7.0315Y-7.9866
X7.0315Y-8.0866
X7.0791Y-7.352
X7.1969Y-3.0748
X7.276Y-7.352
X7.3315Y-7.4866
X7.3315Y-7.5866
X7.3315Y-7.6866
X7.3315Y-7.7866
X7.3315Y-7.8866
X7.3315Y-7.9866
X7.3315Y-8.0866
X7.36Y-4.84
X7.36Y-4.94
X7.36Y-5.04
X7.36Y-5.14
X7.36Y-5.24
X7.36Y-5.34
X7.36Y-5.44
X7.36Y-5.54
X7.36Y-5.64
X7.36Y-5.74
X7.36Y-5.84
X7.36Y-5.94
X7.36Y-6.04
X7.36Y-6.14
X7.4Y-4.6
X7.5969Y-4.6
X7.6Y-7.4803
X7.6Y-7.5803
X7.6Y-7.6803
X7.6Y-7.7803
X7.6Y-7.8803
X7.6Y-7.9803
X7.6Y-8.0803
X7.6303Y-7.3283
X7.6598Y-3.1874
X7.6598Y-3.2874
X7.6598Y-3.3874
X7.6598Y-3.4874
X7.6598Y-3.5874
X7.6598Y-3.6874
X7.6598Y-3.7874
X7.6598Y-3.8874
X7.6598Y-3.9874
X7.6598Y-4.0874
X7.7031Y-3.0709
X7.8272Y-7.3283
X7.9Y-3.0709
X7.9Y-7.4803
X7.9Y-7.5803
X7.9Y-7.6803
X7.9Y-7.7803
X7.9Y-7.8803
X7.9Y-7.9803
X7.9Y-8.0803
X7.9598Y-3.1874
X7.9598Y-3.2874
X7.9598Y-3.3874
X7.9598Y-3.4874
X7.9598Y-3.5874
X7.9598Y-3.6874
X7.9598Y-3.7874
X7.9598Y-3.8874
X7.9598Y-3.9874
X7.9598Y-4.0874
X7.96Y-4.84
X7.96Y-4.94
X7.96Y-5.04
X7.96Y-5.14
X7.96Y-5.24
X7.96Y-5.34
X7.96Y-5.44
X7.96Y-5.54
X7.96Y-5.64
X7.96Y-5.74
X7.96Y-5.84
X7.96Y-5.94
X7.96Y-6.04
X7.96Y-6.14
X8.2429Y-7.4724
X8.2429Y-7.5724
X8.2429Y-7.6724
X8.2429Y-7.7724
X8.2429Y-7.8724
X8.2429Y-7.9724
X8.2429Y-8.0724
X8.2858Y-3.1874
X8.2858Y-3.2874
X8.2858Y-3.3874
X8.2858Y-3.4874
X8.2858Y-3.5874
X8.2858Y-3.6874
X8.2858Y-3.7874
X8.2858Y-3.8874
X8.2858Y-3.9874
X8.2858Y-4.0874
X8.2878Y-7.3244
X8.3331Y-3.0709
X8.38Y-5.88
X8.38Y-5.98
X8.38Y-6.08
X8.38Y-6.18
X8.38Y-6.28
X8.38Y-6.38
X8.38Y-6.48
X8.38Y-6.58
X8.38Y-6.68
X8.38Y-6.78
X8.38Y-6.88
X8.38Y-6.98
X8.4846Y-7.3244
X8.5299Y-3.0709
X8.5429Y-7.4724
X8.5429Y-7.5724
X8.5429Y-7.6724
X8.5429Y-7.7724
X8.5429Y-7.8724
X8.5429Y-7.9724
X8.5429Y-8.0724
X8.5858Y-3.1874
X8.5858Y-3.2874
X8.5858Y-3.3874
X8.5858Y-3.4874
X8.5858Y-3.5874
X8.5858Y-3.6874
X8.5858Y-3.7874
X8.5858Y-3.8874
X8.5858Y-3.9874
X8.5858Y-4.0874
X8.68Y-5.88
X8.68Y-5.98
X8.68Y-6.08
X8.68Y-6.18
X8.68Y-6.28
X8.68Y-6.38
X8.68Y-6.48
X8.68Y-6.58
X8.68Y-6.68
X8.68Y-6.78
X8.68Y-6.88
X8.68Y-6.98
X8.6816Y-5.7
X8.8784Y-5.7
X8.9563Y-7.9681
X8.9563Y-8.165
X9.2998Y-5.1502
X9.2998Y-5.2502
X9.2998Y-5.3502
X9.2998Y-5.4502
X9.2998Y-5.5502
X9.2998Y-5.6502
X9.2998Y-5.7502
X9.2998Y-5.8502
X9.2998Y-5.9502
X9.2998Y-6.0502
X9.2998Y-6.1502
X9.2998Y-6.2502
X9.2998Y-6.3502
X9.2998Y-6.4502
X9.2998Y-6.5502
X9.2998Y-6.6502
X9.2998Y-6.7502
X9.2998Y-6.8502
X9.2998Y-6.9502
X9.2998Y-7.0502
X9.4094Y-4.3063
X9.4094Y-4.3063
X9.4094Y-4.6063
X9.4094Y-4.6063
X9.4528Y-4.9409
X9.4606Y-4.0984
X9.6496Y-4.9409
X9.6575Y-4.0984
X9.7094Y-4.3063
X9.7094Y-4.6063
X9.8998Y-5.1502
X9.8998Y-5.2502
X9.8998Y-5.3502
X9.8998Y-5.4502
X9.8998Y-5.5502
X9.8998Y-5.6502
X9.8998Y-5.7502
X9.8998Y-5.8502
X9.8998Y-5.9502
X9.8998Y-6.0502
X9.8998Y-6.1502
X9.8998Y-6.2502
X9.8998Y-6.3502
X9.8998Y-6.4502
X9.8998Y-6.5502
X9.8998Y-6.6502
X9.8998Y-6.7502
X9.8998Y-6.8502
X9.8998Y-6.9502
X9.8998Y-7.0502
X10.0Y-7.5
X10.0Y-7.6
X10.0Y-7.7
X10.0Y-7.8
X10.0Y-7.9
X10.0Y-8.0
X10.0Y-8.1
X10.0094Y-4.3063
X10.0094Y-4.6063
X10.1Y-7.3
X10.2283Y-3.5197
X10.2283Y-3.6197
X10.2283Y-3.7197
X10.2283Y-3.8197
X10.2283Y-3.9197
X10.2283Y-4.0197
X10.2969Y-7.3
X10.3Y-7.5
X10.3Y-7.6
X10.3Y-7.7
X10.3Y-7.8
X10.3Y-7.9
X10.3Y-8.0
X10.3Y-8.1
X10.5276Y-3.5118
X10.5276Y-3.6118
X10.5276Y-3.7118
X10.5276Y-3.8118
X10.5276Y-3.9118
X10.5276Y-4.0118
X10.528Y-4.7618
X10.528Y-4.8618
X10.528Y-4.9618
X10.528Y-5.0618
X10.528Y-5.1618
X10.528Y-5.2618
X10.528Y-5.3618
X10.528Y-5.4618
X10.528Y-5.5618
X10.528Y-5.6618
X10.5469Y-6.0795
X10.5469Y-6.1795
X10.5469Y-6.2795
X10.5469Y-6.3795
X10.5469Y-6.4795
X10.5469Y-6.5795
X10.5469Y-6.6795
X10.5469Y-6.7795
X10.5469Y-6.8795
X10.5469Y-6.9795
X10.5567Y-4.6102
X10.5906Y-5.9409
X10.7535Y-4.6102
X10.7874Y-5.9409
X10.828Y-4.7618
X10.828Y-4.8618
X10.828Y-4.9618
X10.828Y-5.0618
X10.828Y-5.1618
X10.828Y-5.2618
X10.828Y-5.3618
X10.828Y-5.4618
X10.828Y-5.5618
X10.828Y-5.6618
X10.8469Y-6.0795
X10.8469Y-6.1795
X10.8469Y-6.2795
X10.8469Y-6.3795
X10.8469Y-6.4795
X10.8469Y-6.5795
X10.8469Y-6.6795
X10.8469Y-6.7795
X10.8469Y-6.8795
X10.8469Y-6.9795
X11.3037Y-6.1337
X11.3037Y-6.2337
X11.3037Y-6.3337
X11.3037Y-6.4337
X11.3037Y-6.5337
X11.3037Y-6.6337
X11.3037Y-6.7337
X11.3037Y-6.8337
X11.3037Y-6.9337
X11.3037Y-7.0337
X11.3037Y-7.1337
X11.3037Y-7.2337
X11.3037Y-7.3337
X11.3037Y-7.4337
X11.3701Y-3.7913
X11.3701Y-3.8913
X11.3701Y-3.9913
X11.3701Y-4.0913
X11.3701Y-4.1913
X11.3701Y-4.2913
X11.3701Y-4.3913
X11.3701Y-4.4913
X11.3701Y-4.5913
X11.3701Y-4.6913
X11.4281Y-3.6486
X11.5016Y-5.75
X11.625Y-3.6486
X11.6701Y-3.7913
X11.6701Y-3.8913
X11.6701Y-3.9913
X11.6701Y-4.0913
X11.6701Y-4.1913
X11.6701Y-4.2913
X11.6701Y-4.3913
X11.6701Y-4.4913
X11.6701Y-4.5913
X11.6701Y-4.6913
X11.6984Y-5.75
X11.9037Y-6.1337
X11.9037Y-6.2337
X11.9037Y-6.3337
X11.9037Y-6.4337
X11.9037Y-6.5337
X11.9037Y-6.6337
X11.9037Y-6.7337
X11.9037Y-6.8337
X11.9037Y-6.9337
X11.9037Y-7.0337
X11.9037Y-7.1337
X11.9037Y-7.2337
X11.9037Y-7.3337
X11.9037Y-7.4337
X11.9919Y-3.7953
X11.9919Y-3.8953
X11.9919Y-3.9953
X11.9919Y-4.0953
X11.9919Y-4.1953
X11.9919Y-4.2953
X11.9919Y-4.3953
X11.9919Y-4.4953
X11.9919Y-4.5953
X11.9919Y-4.6953
X12.062Y-3.6506
X12.2589Y-3.6506
X12.2919Y-3.7953
X12.2919Y-3.8953
X12.2919Y-3.9953
X12.2919Y-4.0953
X12.2919Y-4.1953
X12.2919Y-4.2953
X12.2919Y-4.3953
X12.2919Y-4.4953
X12.2919Y-4.5953
X12.2919Y-4.6953
X12.4498Y-5.9348
X12.4498Y-6.0348
X12.4498Y-6.1348
X12.4498Y-6.2348
X12.4498Y-6.3348
X12.4498Y-6.4348
X12.4498Y-6.5348
X12.4498Y-6.6348
X12.4498Y-6.7348
X12.4498Y-6.8348
X12.4498Y-6.9348
X12.4498Y-7.0348
X12.4498Y-7.1348
X12.4498Y-7.2348
X12.4498Y-7.3348
X12.4498Y-7.4348
X12.6137Y-3.7953
X12.6137Y-3.8953
X12.6137Y-3.9953
X12.6137Y-4.0953
X12.6137Y-4.1953
X12.6137Y-4.2953
X12.6137Y-4.3953
X12.6137Y-4.4953
X12.6137Y-4.5953
X12.6137Y-4.6953
X12.6447Y-5.7687
X12.689Y-3.6437
X12.8415Y-5.7687
X12.8858Y-3.6437
X12.9137Y-3.7953
X12.9137Y-3.8953
X12.9137Y-3.9953
X12.9137Y-4.0953
X12.9137Y-4.1953
X12.9137Y-4.2953
X12.9137Y-4.3953
X12.9137Y-4.4953
X12.9137Y-4.5953
X12.9137Y-4.6953
X13.0498Y-5.9348
X13.0498Y-6.0348
X13.0498Y-6.1348
X13.0498Y-6.2348
X13.0498Y-6.3348
X13.0498Y-6.4348
X13.0498Y-6.5348
X13.0498Y-6.6348
X13.0498Y-6.7348
X13.0498Y-6.8348
X13.0498Y-6.9348
X13.0498Y-7.0348
X13.0498Y-7.1348
X13.0498Y-7.2348
X13.0498Y-7.3348
X13.0498Y-7.4348
X13.2355Y-3.7953
X13.2355Y-3.8953
X13.2355Y-3.9953
X13.2355Y-4.0953
X13.2355Y-4.1953
X13.2355Y-4.2953
X13.2355Y-4.3953
X13.2355Y-4.4953
X13.2355Y-4.5953
X13.2355Y-4.6953
X13.3041Y-3.6358
X13.501Y-3.6358
X13.5355Y-3.7953
X13.5355Y-3.8953
X13.5355Y-3.9953
X13.5355Y-4.0953
X13.5355Y-4.1953
X13.5355Y-4.2953
X13.5355Y-4.3953
X13.5355Y-4.4953
X13.5355Y-4.5953
X13.5355Y-4.6953
X13.7748Y-6.0752
X13.7748Y-6.1752
X13.7748Y-6.2752
X13.7748Y-6.3752
X13.7748Y-6.4752
X13.7748Y-6.5752
X13.7748Y-6.6752
X13.7748Y-6.7752
X13.7748Y-6.8752
X13.7748Y-6.9752
X13.7748Y-7.0752
X13.7748Y-7.1752
X13.7748Y-7.2752
X13.7748Y-7.3752
X13.8573Y-3.7953
X13.8573Y-3.8953
X13.8573Y-3.9953
X13.8573Y-4.0953
X13.8573Y-4.1953
X13.8573Y-4.2953
X13.8573Y-4.3953
X13.8573Y-4.4953
X13.8573Y-4.5953
X13.8573Y-4.6953
X13.8976Y-3.6407
X13.9266Y-5.625
X14.0945Y-3.6407
X14.1234Y-5.625
X14.1573Y-3.7953
X14.1573Y-3.8953
X14.1573Y-3.9953
X14.1573Y-4.0953
X14.1573Y-4.1953
X14.1573Y-4.2953
X14.1573Y-4.3953
X14.1573Y-4.4953
X14.1573Y-4.5953
X14.1573Y-4.6953
X14.3748Y-6.0752
X14.3748Y-6.1752
X14.3748Y-6.2752
X14.3748Y-6.3752
X14.3748Y-6.4752
X14.3748Y-6.5752
X14.3748Y-6.6752
X14.3748Y-6.7752
X14.3748Y-6.8752
X14.3748Y-6.9752
X14.3748Y-7.0752
X14.3748Y-7.1752
X14.3748Y-7.2752
X14.3748Y-7.3752
X14.6181Y-3.9583
X14.6181Y-4.0583
X14.6181Y-4.1583
X14.6181Y-4.2583
X14.6181Y-4.3583
X14.6181Y-4.4583
X14.6181Y-4.5583
X14.6181Y-4.6583
X14.6181Y-4.7583
X14.6181Y-4.8583
X14.9685Y-3.4646
X14.9685Y-3.5646
X14.9685Y-3.6646
X14.9685Y-3.7646
X14.9685Y-3.8646
X14.9685Y-3.9646
T7
X11.5591Y-8.063
X11.6591Y-8.063
T8
X1.4Y-7.0
X1.4Y-7.1
X1.7992Y-3.9
X1.7992Y-4.0
X1.8992Y-3.9
X1.8992Y-4.0
X2.0549Y-2.978
X2.1Y-2.9
X2.1Y-3.0559
X2.1451Y-2.978
X2.1902Y-2.9
X2.1902Y-3.0559
X2.2352Y-2.978
X2.2803Y-2.9
X2.2803Y-3.0559
X2.3254Y-2.978
X2.3705Y-2.9
X2.3705Y-3.0559
X2.4156Y-2.978
X2.4606Y-2.9
X2.4606Y-3.0559
X3.32Y-5.48
X3.32Y-5.58
X3.42Y-5.48
X3.42Y-5.58
X3.52Y-5.48
X3.52Y-5.58
X3.62Y-5.48
X3.62Y-5.58
X3.72Y-5.48
X3.72Y-5.58
X3.82Y-5.48
X3.82Y-5.58
X3.92Y-5.48
X3.92Y-5.58
X4.02Y-5.48
X4.02Y-5.58
X9.7126Y-3.3921
X9.7126Y-3.4921
X9.7126Y-3.5921
X9.7126Y-3.6921
X9.8126Y-3.3921
X9.8126Y-3.4921
X9.8126Y-3.5921
X9.8126Y-3.6921
X10.7756Y-7.8858
X10.7756Y-7.9858
X10.7756Y-8.0858
X11.2Y-3.1
X11.3Y-3.1
X11.3Y-3.3
X11.3Y-3.4
X11.4Y-3.1
X11.4Y-3.3
X11.4Y-3.4
X11.425Y-5.575
X11.5Y-3.1
X11.5Y-3.3
X11.5Y-3.4
X11.525Y-5.575
X11.6Y-3.1
X11.6Y-3.3
X11.6Y-3.4
X11.625Y-5.575
X11.7Y-3.1
X11.7Y-3.3
X11.7Y-3.4
X12.46Y-2.96
X12.46Y-3.06
X12.56Y-2.96
X12.56Y-3.06
X12.6447Y-5.5719
X12.66Y-2.96
X12.66Y-3.06
X12.7447Y-5.5719
X12.76Y-2.96
X12.76Y-3.06
X12.8447Y-5.5719
X12.86Y-2.96
X12.86Y-3.06
X12.96Y-2.96
X12.96Y-3.06
X13.06Y-2.96
X13.06Y-3.06
X13.16Y-2.96
X13.16Y-3.06
X13.26Y-2.96
X13.26Y-3.06
X13.36Y-2.96
X13.36Y-3.06
X13.46Y-2.96
X13.46Y-3.06
X13.56Y-2.96
X13.56Y-3.06
X13.66Y-2.96
X13.66Y-3.06
X13.76Y-2.96
X13.76Y-3.06
X13.86Y-2.96
X13.86Y-3.06
X13.96Y-2.96
X13.96Y-3.06
X14.06Y-2.96
X14.06Y-3.06
X14.16Y-2.96
X14.16Y-3.06
X14.26Y-2.96
X14.26Y-3.06
X14.36Y-2.96
X14.36Y-3.06
X14.9409Y-4.989
X14.9409Y-5.098
X14.9409Y-5.2071
X14.9409Y-5.3161
X14.9409Y-5.4252
X14.9449Y-6.4339
X14.9449Y-6.5429
X14.9449Y-6.652
X14.9449Y-6.761
X14.9449Y-6.8701
X15.0528Y-5.0435
X15.0528Y-5.1526
X15.0528Y-5.2616
X15.0528Y-5.3707
X15.0567Y-6.4884
X15.0567Y-6.5974
X15.0567Y-6.7065
X15.0567Y-6.8156
T9
X3.2Y-2.9
X3.2Y-3.0
X3.2Y-3.1
X3.2Y-3.2
X3.2Y-3.3
X3.2Y-3.4
X3.2Y-3.5
X3.2Y-3.6
X3.2Y-3.7
X3.2Y-3.8
X3.2Y-3.9
X3.2Y-4.0
X3.2Y-4.1
X3.2Y-4.2
X3.2Y-4.3
X3.2Y-4.4
X3.2Y-4.5
X3.2Y-4.6
X3.2Y-4.7
X3.2Y-4.8
X3.45Y-4.7909
X3.55Y-4.7909
X3.65Y-4.7909
X3.9Y-2.9
X3.9Y-3.0
X3.9Y-3.1
X3.9Y-3.2
X3.9Y-3.3
X3.9Y-3.4
X3.9Y-3.5
X3.9Y-3.6
X3.9Y-3.7
X3.9Y-3.8
X3.9Y-3.9
X3.9Y-4.0
X3.9Y-4.1
X3.9Y-4.2
X3.9Y-4.3
X3.9Y-4.4
X3.9Y-4.5
X3.9Y-4.6
X3.9Y-4.7
X3.9Y-4.8
T10
X1.4Y-7.4
X1.4Y-7.5
X1.4Y-7.6
T11
X6.02Y-3.3
T12
X1.2559Y-3.5906
X1.2638Y-4.1929
X1.3543Y-3.1969
X1.3622Y-3.7992
X1.4528Y-3.5906
X1.4606Y-4.1929
X1.8766Y-8.0197
X2.0734Y-8.0197
X4.4047Y-3.3
X4.5031Y-3.3984
X4.6016Y-2.9063
X4.7Y-3.3
X4.7Y-3.4969
X4.7984Y-2.9063
X4.8969Y-3.3984
X4.9953Y-3.3
T13
X6.8074Y-3.3
T14
X5.5213Y-2.889
X5.6Y-2.9835
X5.6Y-3.2
T15
X1.7778Y-2.9752
X2.762Y-2.9752
X14.9969Y-4.715
X14.9969Y-5.6992
X15.0008Y-6.1598
X15.0008Y-7.1441
T0
M30
