G04 #@! TF.GenerationSoftware,KiCad,Pcbnew,7.0.1*
G04 #@! TF.CreationDate,2024-07-20T11:14:43-05:00*
G04 #@! TF.ProjectId,we816mark2,77653831-366d-4617-926b-322e6b696361,.8*
G04 #@! TF.SameCoordinates,Original*
G04 #@! TF.FileFunction,Soldermask,Top*
G04 #@! TF.FilePolarity,Negative*
%FSLAX46Y46*%
G04 Gerber Fmt 4.6, Leading zero omitted, Abs format (unit mm)*
G04 Created by KiCad (PCBNEW 7.0.1) date 2024-07-20 11:14:43*
%MOMM*%
%LPD*%
G01*
G04 APERTURE LIST*
G04 Aperture macros list*
%AMRoundRect*
0 Rectangle with rounded corners*
0 $1 Rounding radius*
0 $2 $3 $4 $5 $6 $7 $8 $9 X,Y pos of 4 corners*
0 Add a 4 corners polygon primitive as box body*
4,1,4,$2,$3,$4,$5,$6,$7,$8,$9,$2,$3,0*
0 Add four circle primitives for the rounded corners*
1,1,$1+$1,$2,$3*
1,1,$1+$1,$4,$5*
1,1,$1+$1,$6,$7*
1,1,$1+$1,$8,$9*
0 Add four rect primitives between the rounded corners*
20,1,$1+$1,$2,$3,$4,$5,0*
20,1,$1+$1,$4,$5,$6,$7,0*
20,1,$1+$1,$6,$7,$8,$9,0*
20,1,$1+$1,$8,$9,$2,$3,0*%
G04 Aperture macros list end*
%ADD10C,2.108000*%
%ADD11RoundRect,0.254000X-0.800000X-0.800000X0.800000X-0.800000X0.800000X0.800000X-0.800000X0.800000X0*%
%ADD12O,2.108000X2.108000*%
%ADD13C,4.508000*%
%ADD14RoundRect,0.254000X0.800000X-0.800000X0.800000X0.800000X-0.800000X0.800000X-0.800000X-0.800000X0*%
%ADD15RoundRect,0.254000X-0.600000X-0.600000X0.600000X-0.600000X0.600000X0.600000X-0.600000X0.600000X0*%
%ADD16C,1.708000*%
%ADD17RoundRect,0.254000X-0.900000X-0.900000X0.900000X-0.900000X0.900000X0.900000X-0.900000X0.900000X0*%
%ADD18C,2.308000*%
%ADD19RoundRect,0.254000X-0.850000X-0.850000X0.850000X-0.850000X0.850000X0.850000X-0.850000X0.850000X0*%
%ADD20O,2.208000X2.208000*%
%ADD21RoundRect,0.254000X0.850000X-0.850000X0.850000X0.850000X-0.850000X0.850000X-0.850000X-0.850000X0*%
%ADD22RoundRect,0.254000X-0.800000X0.800000X-0.800000X-0.800000X0.800000X-0.800000X0.800000X0.800000X0*%
%ADD23C,1.908000*%
%ADD24O,1.908000X1.908000*%
%ADD25C,2.848000*%
%ADD26RoundRect,0.254000X-1.200000X-0.800000X1.200000X-0.800000X1.200000X0.800000X-1.200000X0.800000X0*%
%ADD27O,2.908000X2.108000*%
%ADD28C,1.508000*%
%ADD29C,2.908000*%
%ADD30C,2.458000*%
%ADD31C,3.008000*%
%ADD32RoundRect,0.254000X-1.085000X-1.085000X1.085000X-1.085000X1.085000X1.085000X-1.085000X1.085000X0*%
%ADD33C,3.708000*%
%ADD34RoundRect,0.254000X-0.850000X0.850000X-0.850000X-0.850000X0.850000X-0.850000X0.850000X0.850000X0*%
%ADD35C,3.308000*%
%ADD36RoundRect,0.254000X-0.550000X-0.900000X0.550000X-0.900000X0.550000X0.900000X-0.550000X0.900000X0*%
%ADD37RoundRect,0.529000X-0.275000X-0.625000X0.275000X-0.625000X0.275000X0.625000X-0.275000X0.625000X0*%
%ADD38RoundRect,0.254000X0.800000X0.800000X-0.800000X0.800000X-0.800000X-0.800000X0.800000X-0.800000X0*%
%ADD39RoundRect,0.254000X1.000000X-0.952500X1.000000X0.952500X-1.000000X0.952500X-1.000000X-0.952500X0*%
%ADD40O,2.508000X2.413000*%
%ADD41RoundRect,0.254000X-1.250000X-1.250000X1.250000X-1.250000X1.250000X1.250000X-1.250000X1.250000X0*%
%ADD42O,2.308000X2.308000*%
%ADD43O,2.008000X2.008000*%
%ADD44RoundRect,0.254000X-1.750000X-0.850000X1.750000X-0.850000X1.750000X0.850000X-1.750000X0.850000X0*%
%ADD45RoundRect,0.254000X0.850000X-1.750000X0.850000X1.750000X-0.850000X1.750000X-0.850000X-1.750000X0*%
G04 APERTURE END LIST*
D10*
X245100000Y-125500000D03*
X240100000Y-125500000D03*
X184810000Y-186740000D03*
X179810000Y-186740000D03*
X114895000Y-151765000D03*
X109895000Y-151765000D03*
X274000000Y-150900000D03*
X269000000Y-150900000D03*
X295275000Y-92675000D03*
X290275000Y-92675000D03*
X227490000Y-202390000D03*
X227490000Y-207390000D03*
X297140000Y-146050000D03*
X292140000Y-146050000D03*
X198810000Y-186140000D03*
X193810000Y-186140000D03*
X215510000Y-186040000D03*
X210510000Y-186040000D03*
X192960000Y-116840000D03*
X187960000Y-116840000D03*
X132755000Y-120015000D03*
X137755000Y-120015000D03*
D11*
X145600000Y-127000000D03*
D12*
X145600000Y-129540000D03*
X145600000Y-132080000D03*
X145600000Y-134620000D03*
X145600000Y-137160000D03*
X145600000Y-139700000D03*
X145600000Y-142240000D03*
X145600000Y-144780000D03*
X145600000Y-147320000D03*
X145600000Y-149860000D03*
X145600000Y-152400000D03*
X145600000Y-154940000D03*
X145600000Y-157480000D03*
X145600000Y-160020000D03*
X145600000Y-162560000D03*
X145600000Y-165100000D03*
X145600000Y-167640000D03*
X145600000Y-170180000D03*
X145600000Y-172720000D03*
X145600000Y-175260000D03*
X160840000Y-175260000D03*
X160840000Y-172720000D03*
X160840000Y-170180000D03*
X160840000Y-167640000D03*
X160840000Y-165100000D03*
X160840000Y-162560000D03*
X160840000Y-160020000D03*
X160840000Y-157480000D03*
X160840000Y-154940000D03*
X160840000Y-152400000D03*
X160840000Y-149860000D03*
X160840000Y-147320000D03*
X160840000Y-144780000D03*
X160840000Y-142240000D03*
X160840000Y-139700000D03*
X160840000Y-137160000D03*
X160840000Y-134620000D03*
X160840000Y-132080000D03*
X160840000Y-129540000D03*
X160840000Y-127000000D03*
D13*
X381020000Y-181460000D03*
X381020000Y-156460000D03*
D14*
X379600000Y-174500000D03*
D10*
X379600000Y-171730000D03*
X379600000Y-168960000D03*
X379600000Y-166190000D03*
X379600000Y-163420000D03*
X382440000Y-173115000D03*
X382440000Y-170345000D03*
X382440000Y-167575000D03*
X382440000Y-164805000D03*
X245300000Y-104100000D03*
X240300000Y-104100000D03*
D15*
X163000000Y-178900000D03*
D16*
X165000000Y-178900000D03*
D15*
X163000000Y-186400000D03*
D16*
X165000000Y-186400000D03*
D15*
X163100000Y-201000000D03*
D16*
X165100000Y-201000000D03*
D15*
X163100000Y-194200000D03*
D16*
X165100000Y-194200000D03*
D15*
X163100000Y-207500000D03*
D16*
X165100000Y-207500000D03*
D10*
X311375000Y-92725000D03*
X306375000Y-92725000D03*
X273140000Y-117100000D03*
X268140000Y-117100000D03*
X327300000Y-92550000D03*
X322300000Y-92550000D03*
X32000000Y-113800000D03*
X32000000Y-118800000D03*
X142160000Y-91440000D03*
X137160000Y-91440000D03*
D15*
X144780000Y-96520000D03*
D16*
X146780000Y-96520000D03*
D15*
X289560000Y-132080000D03*
D16*
X291560000Y-132080000D03*
D17*
X293600000Y-204800000D03*
D18*
X296140000Y-204800000D03*
D19*
X246700000Y-86160000D03*
D20*
X249240000Y-86160000D03*
X246700000Y-88700000D03*
X249240000Y-88700000D03*
X246700000Y-91240000D03*
X249240000Y-91240000D03*
X246700000Y-93780000D03*
X249240000Y-93780000D03*
D13*
X380920000Y-144760000D03*
X380920000Y-119760000D03*
D14*
X379500000Y-137800000D03*
D10*
X379500000Y-135030000D03*
X379500000Y-132260000D03*
X379500000Y-129490000D03*
X379500000Y-126720000D03*
X382340000Y-136415000D03*
X382340000Y-133645000D03*
X382340000Y-130875000D03*
X382340000Y-128105000D03*
D21*
X78740000Y-142240000D03*
D20*
X78740000Y-139700000D03*
X81280000Y-142240000D03*
X81280000Y-139700000D03*
X83820000Y-142240000D03*
X83820000Y-139700000D03*
X86360000Y-142240000D03*
X86360000Y-139700000D03*
X88900000Y-142240000D03*
X88900000Y-139700000D03*
X91440000Y-142240000D03*
X91440000Y-139700000D03*
X93980000Y-142240000D03*
X93980000Y-139700000D03*
X96520000Y-142240000D03*
X96520000Y-139700000D03*
D19*
X273700000Y-200300000D03*
D20*
X273700000Y-202840000D03*
X273700000Y-205380000D03*
D22*
X239190000Y-108290000D03*
D10*
X239190000Y-115910000D03*
X246810000Y-115910000D03*
X246810000Y-108290000D03*
D23*
X300355000Y-205105000D03*
D24*
X305435000Y-205105000D03*
D23*
X184785000Y-175895000D03*
D24*
X179705000Y-175895000D03*
D23*
X32500000Y-144900000D03*
D24*
X32500000Y-149980000D03*
D23*
X32315000Y-136635000D03*
D24*
X32315000Y-141715000D03*
D23*
X48260000Y-83820000D03*
D24*
X43180000Y-83820000D03*
D23*
X58420000Y-93980000D03*
D24*
X53340000Y-93980000D03*
D23*
X48260000Y-88900000D03*
D24*
X43180000Y-88900000D03*
D23*
X48260000Y-93980000D03*
D24*
X43180000Y-93980000D03*
D23*
X184785000Y-180975000D03*
D24*
X179705000Y-180975000D03*
D23*
X175260000Y-175895000D03*
D24*
X175260000Y-180975000D03*
D22*
X267400000Y-89200000D03*
D12*
X267400000Y-91740000D03*
X267400000Y-94280000D03*
X267400000Y-96820000D03*
X267400000Y-99360000D03*
X267400000Y-101900000D03*
D14*
X380200000Y-100700000D03*
D12*
X380200000Y-98160000D03*
X380200000Y-95620000D03*
X380200000Y-93080000D03*
X380200000Y-90540000D03*
X380200000Y-88000000D03*
D14*
X371300000Y-123400000D03*
D12*
X371300000Y-120860000D03*
X371300000Y-118320000D03*
X371300000Y-115780000D03*
X371300000Y-113240000D03*
X371300000Y-110700000D03*
X371300000Y-108160000D03*
X371300000Y-105620000D03*
X371300000Y-103080000D03*
X371300000Y-100540000D03*
D25*
X36900000Y-91200000D03*
X34400000Y-81200000D03*
X31900000Y-91200000D03*
X37100000Y-106500000D03*
X34600000Y-96500000D03*
X32100000Y-106500000D03*
D11*
X193040000Y-190000000D03*
D12*
X193040000Y-192540000D03*
X193040000Y-195080000D03*
X193040000Y-197620000D03*
X193040000Y-200160000D03*
X193040000Y-202700000D03*
X193040000Y-205240000D03*
X200660000Y-205240000D03*
X200660000Y-202700000D03*
X200660000Y-200160000D03*
X200660000Y-197620000D03*
X200660000Y-195080000D03*
X200660000Y-192540000D03*
X200660000Y-190000000D03*
D26*
X209370000Y-189800000D03*
D27*
X209370000Y-192340000D03*
X209370000Y-194880000D03*
X209370000Y-197420000D03*
X209370000Y-199960000D03*
X209370000Y-202500000D03*
X209370000Y-205040000D03*
X216990000Y-205040000D03*
X216990000Y-202500000D03*
X216990000Y-199960000D03*
X216990000Y-197420000D03*
X216990000Y-194880000D03*
X216990000Y-192340000D03*
X216990000Y-189800000D03*
D26*
X267410000Y-120950000D03*
D27*
X267410000Y-123490000D03*
X267410000Y-126030000D03*
X267410000Y-128570000D03*
X267410000Y-131110000D03*
X267410000Y-133650000D03*
X267410000Y-136190000D03*
X267410000Y-138730000D03*
X267410000Y-141270000D03*
X267410000Y-143810000D03*
X275030000Y-143810000D03*
X275030000Y-141270000D03*
X275030000Y-138730000D03*
X275030000Y-136190000D03*
X275030000Y-133650000D03*
X275030000Y-131110000D03*
X275030000Y-128570000D03*
X275030000Y-126030000D03*
X275030000Y-123490000D03*
X275030000Y-120950000D03*
D26*
X267890000Y-154420000D03*
D27*
X267890000Y-156960000D03*
X267890000Y-159500000D03*
X267890000Y-162040000D03*
X267890000Y-164580000D03*
X267890000Y-167120000D03*
X267890000Y-169660000D03*
X267890000Y-172200000D03*
X267890000Y-174740000D03*
X267890000Y-177280000D03*
X275510000Y-177280000D03*
X275510000Y-174740000D03*
X275510000Y-172200000D03*
X275510000Y-169660000D03*
X275510000Y-167120000D03*
X275510000Y-164580000D03*
X275510000Y-162040000D03*
X275510000Y-159500000D03*
X275510000Y-156960000D03*
X275510000Y-154420000D03*
D26*
X148890000Y-187680000D03*
D27*
X148890000Y-190220000D03*
X148890000Y-192760000D03*
X148890000Y-195300000D03*
X148890000Y-197840000D03*
X148890000Y-200380000D03*
X148890000Y-202920000D03*
X148890000Y-205460000D03*
X156510000Y-205460000D03*
X156510000Y-202920000D03*
X156510000Y-200380000D03*
X156510000Y-197840000D03*
X156510000Y-195300000D03*
X156510000Y-192760000D03*
X156510000Y-190220000D03*
X156510000Y-187680000D03*
D26*
X351975000Y-96400000D03*
D27*
X351975000Y-98940000D03*
X351975000Y-101480000D03*
X351975000Y-104020000D03*
X351975000Y-106560000D03*
X351975000Y-109100000D03*
X351975000Y-111640000D03*
X351975000Y-114180000D03*
X351975000Y-116720000D03*
X351975000Y-119260000D03*
X359595000Y-119260000D03*
X359595000Y-116720000D03*
X359595000Y-114180000D03*
X359595000Y-111640000D03*
X359595000Y-109100000D03*
X359595000Y-106560000D03*
X359595000Y-104020000D03*
X359595000Y-101480000D03*
X359595000Y-98940000D03*
X359595000Y-96400000D03*
D26*
X336181000Y-96400000D03*
D27*
X336181000Y-98940000D03*
X336181000Y-101480000D03*
X336181000Y-104020000D03*
X336181000Y-106560000D03*
X336181000Y-109100000D03*
X336181000Y-111640000D03*
X336181000Y-114180000D03*
X336181000Y-116720000D03*
X336181000Y-119260000D03*
X343801000Y-119260000D03*
X343801000Y-116720000D03*
X343801000Y-114180000D03*
X343801000Y-111640000D03*
X343801000Y-109100000D03*
X343801000Y-106560000D03*
X343801000Y-104020000D03*
X343801000Y-101480000D03*
X343801000Y-98940000D03*
X343801000Y-96400000D03*
D26*
X320388000Y-96400000D03*
D27*
X320388000Y-98940000D03*
X320388000Y-101480000D03*
X320388000Y-104020000D03*
X320388000Y-106560000D03*
X320388000Y-109100000D03*
X320388000Y-111640000D03*
X320388000Y-114180000D03*
X320388000Y-116720000D03*
X320388000Y-119260000D03*
X328008000Y-119260000D03*
X328008000Y-116720000D03*
X328008000Y-114180000D03*
X328008000Y-111640000D03*
X328008000Y-109100000D03*
X328008000Y-106560000D03*
X328008000Y-104020000D03*
X328008000Y-101480000D03*
X328008000Y-98940000D03*
X328008000Y-96400000D03*
D26*
X304594000Y-96400000D03*
D27*
X304594000Y-98940000D03*
X304594000Y-101480000D03*
X304594000Y-104020000D03*
X304594000Y-106560000D03*
X304594000Y-109100000D03*
X304594000Y-111640000D03*
X304594000Y-114180000D03*
X304594000Y-116720000D03*
X304594000Y-119260000D03*
X312214000Y-119260000D03*
X312214000Y-116720000D03*
X312214000Y-114180000D03*
X312214000Y-111640000D03*
X312214000Y-109100000D03*
X312214000Y-106560000D03*
X312214000Y-104020000D03*
X312214000Y-101480000D03*
X312214000Y-98940000D03*
X312214000Y-96400000D03*
D11*
X38310000Y-112630000D03*
D12*
X38310000Y-115170000D03*
X38310000Y-117710000D03*
X38310000Y-120250000D03*
X38310000Y-122790000D03*
X38310000Y-125330000D03*
X38310000Y-127870000D03*
X38310000Y-130410000D03*
X38310000Y-132950000D03*
X38310000Y-135490000D03*
X38310000Y-138030000D03*
X38310000Y-140570000D03*
X38310000Y-143110000D03*
X38310000Y-145650000D03*
X38310000Y-148190000D03*
X38310000Y-150730000D03*
X38310000Y-153270000D03*
X38310000Y-155810000D03*
X38310000Y-158350000D03*
X38310000Y-160890000D03*
X53550000Y-160890000D03*
X53550000Y-158350000D03*
X53550000Y-155810000D03*
X53550000Y-153270000D03*
X53550000Y-150730000D03*
X53550000Y-148190000D03*
X53550000Y-145650000D03*
X53550000Y-143110000D03*
X53550000Y-140570000D03*
X53550000Y-138030000D03*
X53550000Y-135490000D03*
X53550000Y-132950000D03*
X53550000Y-130410000D03*
X53550000Y-127870000D03*
X53550000Y-125330000D03*
X53550000Y-122790000D03*
X53550000Y-120250000D03*
X53550000Y-117710000D03*
X53550000Y-115170000D03*
X53550000Y-112630000D03*
D28*
X198960000Y-114300000D03*
X200660000Y-114300000D03*
D10*
X155600000Y-183325000D03*
X150600000Y-183325000D03*
X256540000Y-185420000D03*
X261540000Y-185420000D03*
X150300000Y-105290000D03*
X155300000Y-105290000D03*
X353735000Y-142875000D03*
X358735000Y-142875000D03*
X58340000Y-88900000D03*
X53340000Y-88900000D03*
X42900000Y-108200000D03*
X47900000Y-108200000D03*
X150300000Y-122290000D03*
X155300000Y-122290000D03*
D21*
X321175000Y-141525000D03*
D20*
X323715000Y-141525000D03*
X326255000Y-141525000D03*
D21*
X290195000Y-141605000D03*
D20*
X292735000Y-141605000D03*
X295275000Y-141605000D03*
D10*
X326175000Y-146525000D03*
X321175000Y-146525000D03*
D11*
X287115000Y-155795000D03*
D12*
X287115000Y-158335000D03*
X287115000Y-160875000D03*
X287115000Y-163415000D03*
X287115000Y-165955000D03*
X287115000Y-168495000D03*
X287115000Y-171035000D03*
X287115000Y-173575000D03*
X287115000Y-176115000D03*
X287115000Y-178655000D03*
X287115000Y-181195000D03*
X287115000Y-183735000D03*
X287115000Y-186275000D03*
X287115000Y-188815000D03*
X302355000Y-188815000D03*
X302355000Y-186275000D03*
X302355000Y-183735000D03*
X302355000Y-181195000D03*
X302355000Y-178655000D03*
X302355000Y-176115000D03*
X302355000Y-173575000D03*
X302355000Y-171035000D03*
X302355000Y-168495000D03*
X302355000Y-165955000D03*
X302355000Y-163415000D03*
X302355000Y-160875000D03*
X302355000Y-158335000D03*
X302355000Y-155795000D03*
D11*
X316225000Y-150745000D03*
D12*
X316225000Y-153285000D03*
X316225000Y-155825000D03*
X316225000Y-158365000D03*
X316225000Y-160905000D03*
X316225000Y-163445000D03*
X316225000Y-165985000D03*
X316225000Y-168525000D03*
X316225000Y-171065000D03*
X316225000Y-173605000D03*
X316225000Y-176145000D03*
X316225000Y-178685000D03*
X316225000Y-181225000D03*
X316225000Y-183765000D03*
X316225000Y-186305000D03*
X316225000Y-188845000D03*
X331465000Y-188845000D03*
X331465000Y-186305000D03*
X331465000Y-183765000D03*
X331465000Y-181225000D03*
X331465000Y-178685000D03*
X331465000Y-176145000D03*
X331465000Y-173605000D03*
X331465000Y-171065000D03*
X331465000Y-168525000D03*
X331465000Y-165985000D03*
X331465000Y-163445000D03*
X331465000Y-160905000D03*
X331465000Y-158365000D03*
X331465000Y-155825000D03*
X331465000Y-153285000D03*
X331465000Y-150745000D03*
D10*
X182800000Y-78100000D03*
X177800000Y-78100000D03*
X216660000Y-78000000D03*
X211660000Y-78000000D03*
X200660000Y-78000000D03*
X195660000Y-78000000D03*
D26*
X210460000Y-80960000D03*
D27*
X210460000Y-83500000D03*
X210460000Y-86040000D03*
X210460000Y-88580000D03*
X210460000Y-91120000D03*
X210460000Y-93660000D03*
X210460000Y-96200000D03*
X210460000Y-98740000D03*
X210460000Y-101280000D03*
X210460000Y-103820000D03*
X218080000Y-103820000D03*
X218080000Y-101280000D03*
X218080000Y-98740000D03*
X218080000Y-96200000D03*
X218080000Y-93660000D03*
X218080000Y-91120000D03*
X218080000Y-88580000D03*
X218080000Y-86040000D03*
X218080000Y-83500000D03*
X218080000Y-80960000D03*
D26*
X177800000Y-80960000D03*
D27*
X177800000Y-83500000D03*
X177800000Y-86040000D03*
X177800000Y-88580000D03*
X177800000Y-91120000D03*
X177800000Y-93660000D03*
X177800000Y-96200000D03*
X177800000Y-98740000D03*
X177800000Y-101280000D03*
X177800000Y-103820000D03*
X177800000Y-106360000D03*
X177800000Y-108900000D03*
X185420000Y-108900000D03*
X185420000Y-106360000D03*
X185420000Y-103820000D03*
X185420000Y-101280000D03*
X185420000Y-98740000D03*
X185420000Y-96200000D03*
X185420000Y-93660000D03*
X185420000Y-91120000D03*
X185420000Y-88580000D03*
X185420000Y-86040000D03*
X185420000Y-83500000D03*
X185420000Y-80960000D03*
D26*
X194560000Y-80960000D03*
D27*
X194560000Y-83500000D03*
X194560000Y-86040000D03*
X194560000Y-88580000D03*
X194560000Y-91120000D03*
X194560000Y-93660000D03*
X194560000Y-96200000D03*
X194560000Y-98740000D03*
X194560000Y-101280000D03*
X194560000Y-103820000D03*
X202180000Y-103820000D03*
X202180000Y-101280000D03*
X202180000Y-98740000D03*
X202180000Y-96200000D03*
X202180000Y-93660000D03*
X202180000Y-91120000D03*
X202180000Y-88580000D03*
X202180000Y-86040000D03*
X202180000Y-83500000D03*
X202180000Y-80960000D03*
D10*
X170100000Y-115400000D03*
X165100000Y-115400000D03*
X81320000Y-151130000D03*
X86320000Y-151130000D03*
X359965000Y-200660000D03*
X354965000Y-200660000D03*
X342925000Y-92350000D03*
X337925000Y-92350000D03*
X358000000Y-92475000D03*
X353000000Y-92475000D03*
D22*
X259800000Y-89400000D03*
D12*
X259800000Y-91940000D03*
X259800000Y-94480000D03*
X259800000Y-97020000D03*
X259800000Y-99560000D03*
X259800000Y-102100000D03*
D29*
X126880000Y-78820000D03*
X111880000Y-78820000D03*
D30*
X111880000Y-83820000D03*
X114380000Y-86320000D03*
X119380000Y-83820000D03*
X124380000Y-86320000D03*
X126880000Y-83820000D03*
X119380000Y-88820000D03*
X121880000Y-73820000D03*
X116880000Y-73820000D03*
D19*
X45700000Y-99060000D03*
D20*
X48240000Y-99060000D03*
X45700000Y-101600000D03*
X48240000Y-101600000D03*
D23*
X32300000Y-129000000D03*
D24*
X32300000Y-134080000D03*
D31*
X171244300Y-83820000D03*
D32*
X151244300Y-83820000D03*
D33*
X32600000Y-75400000D03*
X32600000Y-206100000D03*
X217200000Y-138700000D03*
X378400000Y-75400000D03*
X378400000Y-206100000D03*
D21*
X158990000Y-99060000D03*
D20*
X161530000Y-99060000D03*
X164070000Y-99060000D03*
D11*
X178600000Y-190160000D03*
D12*
X178600000Y-192700000D03*
X178600000Y-195240000D03*
X178600000Y-197780000D03*
X178600000Y-200320000D03*
X178600000Y-202860000D03*
X178600000Y-205400000D03*
X186220000Y-205400000D03*
X186220000Y-202860000D03*
X186220000Y-200320000D03*
X186220000Y-197780000D03*
X186220000Y-195240000D03*
X186220000Y-192700000D03*
X186220000Y-190160000D03*
D11*
X349880000Y-154310000D03*
D12*
X349880000Y-156850000D03*
X349880000Y-159390000D03*
X349880000Y-161930000D03*
X349880000Y-164470000D03*
X349880000Y-167010000D03*
X349880000Y-169550000D03*
X349880000Y-172090000D03*
X349880000Y-174630000D03*
X349880000Y-177170000D03*
X349880000Y-179710000D03*
X349880000Y-182250000D03*
X349880000Y-184790000D03*
X349880000Y-187330000D03*
X365120000Y-187330000D03*
X365120000Y-184790000D03*
X365120000Y-182250000D03*
X365120000Y-179710000D03*
X365120000Y-177170000D03*
X365120000Y-174630000D03*
X365120000Y-172090000D03*
X365120000Y-169550000D03*
X365120000Y-167010000D03*
X365120000Y-164470000D03*
X365120000Y-161930000D03*
X365120000Y-159390000D03*
X365120000Y-156850000D03*
X365120000Y-154310000D03*
D34*
X352450000Y-82350000D03*
D20*
X352450000Y-79810000D03*
X349910000Y-82350000D03*
X349910000Y-79810000D03*
X347370000Y-82350000D03*
X347370000Y-79810000D03*
X344830000Y-82350000D03*
X344830000Y-79810000D03*
X342290000Y-82350000D03*
X342290000Y-79810000D03*
X339750000Y-82350000D03*
X339750000Y-79810000D03*
X337210000Y-82350000D03*
X337210000Y-79810000D03*
X334670000Y-82350000D03*
X334670000Y-79810000D03*
X332130000Y-82350000D03*
X332130000Y-79810000D03*
X329590000Y-82350000D03*
X329590000Y-79810000D03*
X327050000Y-82350000D03*
X327050000Y-79810000D03*
X324510000Y-82350000D03*
X324510000Y-79810000D03*
X321970000Y-82350000D03*
X321970000Y-79810000D03*
X319430000Y-82350000D03*
X319430000Y-79810000D03*
X316890000Y-82350000D03*
X316890000Y-79810000D03*
X314350000Y-82350000D03*
X314350000Y-79810000D03*
X311810000Y-82350000D03*
X311810000Y-79810000D03*
X309270000Y-82350000D03*
X309270000Y-79810000D03*
X306730000Y-82350000D03*
X306730000Y-79810000D03*
X304190000Y-82350000D03*
X304190000Y-79810000D03*
D10*
X123150000Y-117475000D03*
X118150000Y-117475000D03*
X66040000Y-165100000D03*
X61040000Y-165100000D03*
D26*
X288800000Y-96300000D03*
D27*
X288800000Y-98840000D03*
X288800000Y-101380000D03*
X288800000Y-103920000D03*
X288800000Y-106460000D03*
X288800000Y-109000000D03*
X288800000Y-111540000D03*
X288800000Y-114080000D03*
X288800000Y-116620000D03*
X288800000Y-119160000D03*
X296420000Y-119160000D03*
X296420000Y-116620000D03*
X296420000Y-114080000D03*
X296420000Y-111540000D03*
X296420000Y-109000000D03*
X296420000Y-106460000D03*
X296420000Y-103920000D03*
X296420000Y-101380000D03*
X296420000Y-98840000D03*
X296420000Y-96300000D03*
D10*
X43400000Y-165500000D03*
X48400000Y-165500000D03*
D21*
X287020000Y-86360000D03*
D20*
X287020000Y-83820000D03*
X289560000Y-86360000D03*
X289560000Y-83820000D03*
X292100000Y-86360000D03*
X292100000Y-83820000D03*
X294640000Y-86360000D03*
X294640000Y-83820000D03*
X297180000Y-86360000D03*
X297180000Y-83820000D03*
D23*
X63500000Y-95500000D03*
D24*
X68580000Y-95500000D03*
D23*
X63500000Y-111250000D03*
D24*
X68580000Y-111250000D03*
D23*
X63500000Y-114400000D03*
D24*
X68580000Y-114400000D03*
D35*
X142240000Y-81280000D03*
X140240000Y-73380000D03*
X142240000Y-75780000D03*
D36*
X40640000Y-180740000D03*
D37*
X41910000Y-178670000D03*
X43180000Y-180740000D03*
D23*
X40640000Y-170180000D03*
D24*
X35560000Y-170180000D03*
D26*
X116845000Y-124460000D03*
D27*
X116845000Y-127000000D03*
X116845000Y-129540000D03*
X116845000Y-132080000D03*
X116845000Y-134620000D03*
X116845000Y-137160000D03*
X116845000Y-139700000D03*
X116845000Y-142240000D03*
X116845000Y-144780000D03*
X116845000Y-147320000D03*
X124465000Y-147320000D03*
X124465000Y-144780000D03*
X124465000Y-142240000D03*
X124465000Y-139700000D03*
X124465000Y-137160000D03*
X124465000Y-134620000D03*
X124465000Y-132080000D03*
X124465000Y-129540000D03*
X124465000Y-127000000D03*
X124465000Y-124460000D03*
D23*
X63500000Y-108100000D03*
D24*
X68580000Y-108100000D03*
D13*
X70155000Y-75570000D03*
X45155000Y-75570000D03*
D38*
X53340000Y-77620000D03*
D10*
X55630000Y-77620000D03*
X57920000Y-77620000D03*
X60210000Y-77620000D03*
X62500000Y-77620000D03*
X52195000Y-75640000D03*
X54485000Y-75640000D03*
X56775000Y-75640000D03*
X59065000Y-75640000D03*
X61355000Y-75640000D03*
X53340000Y-73660000D03*
X55630000Y-73660000D03*
X57920000Y-73660000D03*
X60210000Y-73660000D03*
X62500000Y-73660000D03*
D22*
X148990000Y-109380000D03*
D10*
X148990000Y-117000000D03*
X156610000Y-117000000D03*
X156610000Y-109380000D03*
D23*
X63500000Y-86050000D03*
D24*
X68580000Y-86050000D03*
D23*
X63500000Y-117550000D03*
D24*
X68580000Y-117550000D03*
D23*
X63500000Y-104950000D03*
D24*
X68580000Y-104950000D03*
D23*
X63500000Y-92350000D03*
D24*
X68580000Y-92350000D03*
D11*
X236215000Y-130815000D03*
D12*
X236215000Y-133355000D03*
X236215000Y-135895000D03*
X236215000Y-138435000D03*
X236215000Y-140975000D03*
X236215000Y-143515000D03*
X236215000Y-146055000D03*
X236215000Y-148595000D03*
X236215000Y-151135000D03*
X236215000Y-153675000D03*
X236215000Y-156215000D03*
X236215000Y-158755000D03*
X236215000Y-161295000D03*
X236215000Y-163835000D03*
X236215000Y-166375000D03*
X236215000Y-168915000D03*
X236215000Y-171455000D03*
X236215000Y-173995000D03*
X236215000Y-176535000D03*
X236215000Y-179075000D03*
X251455000Y-179075000D03*
X251455000Y-176535000D03*
X251455000Y-173995000D03*
X251455000Y-171455000D03*
X251455000Y-168915000D03*
X251455000Y-166375000D03*
X251455000Y-163835000D03*
X251455000Y-161295000D03*
X251455000Y-158755000D03*
X251455000Y-156215000D03*
X251455000Y-153675000D03*
X251455000Y-151135000D03*
X251455000Y-148595000D03*
X251455000Y-146055000D03*
X251455000Y-143515000D03*
X251455000Y-140975000D03*
X251455000Y-138435000D03*
X251455000Y-135895000D03*
X251455000Y-133355000D03*
X251455000Y-130815000D03*
D19*
X220980000Y-112395000D03*
D20*
X220980000Y-114935000D03*
D26*
X185420000Y-121920000D03*
D27*
X185420000Y-124460000D03*
X185420000Y-127000000D03*
X185420000Y-129540000D03*
X185420000Y-132080000D03*
X185420000Y-134620000D03*
X185420000Y-137160000D03*
X185420000Y-139700000D03*
X185420000Y-142240000D03*
X193040000Y-142240000D03*
X193040000Y-139700000D03*
X193040000Y-137160000D03*
X193040000Y-134620000D03*
X193040000Y-132080000D03*
X193040000Y-129540000D03*
X193040000Y-127000000D03*
X193040000Y-124460000D03*
X193040000Y-121920000D03*
D23*
X63500000Y-101800000D03*
D24*
X68580000Y-101800000D03*
D23*
X63500000Y-89200000D03*
D24*
X68580000Y-89200000D03*
D15*
X208280000Y-114300000D03*
D16*
X210280000Y-114300000D03*
D39*
X35560000Y-193040000D03*
D40*
X35560000Y-190500000D03*
X35560000Y-187960000D03*
D41*
X47665000Y-203700000D03*
D31*
X52665000Y-203700000D03*
D26*
X131455000Y-124465000D03*
D27*
X131455000Y-127005000D03*
X131455000Y-129545000D03*
X131455000Y-132085000D03*
X131455000Y-134625000D03*
X131455000Y-137165000D03*
X131455000Y-139705000D03*
X131455000Y-142245000D03*
X131455000Y-144785000D03*
X131455000Y-147325000D03*
X139075000Y-147325000D03*
X139075000Y-144785000D03*
X139075000Y-142245000D03*
X139075000Y-139705000D03*
X139075000Y-137165000D03*
X139075000Y-134625000D03*
X139075000Y-132085000D03*
X139075000Y-129545000D03*
X139075000Y-127005000D03*
X139075000Y-124465000D03*
D15*
X53340000Y-175260000D03*
D16*
X55340000Y-175260000D03*
D23*
X201295000Y-135940000D03*
D24*
X206375000Y-135940000D03*
D26*
X186700000Y-153660000D03*
D27*
X186700000Y-156200000D03*
X186700000Y-158740000D03*
X186700000Y-161280000D03*
X186700000Y-163820000D03*
X186700000Y-166360000D03*
X186700000Y-168900000D03*
X186700000Y-171440000D03*
X194320000Y-171440000D03*
X194320000Y-168900000D03*
X194320000Y-166360000D03*
X194320000Y-163820000D03*
X194320000Y-161280000D03*
X194320000Y-158740000D03*
X194320000Y-156200000D03*
X194320000Y-153660000D03*
D26*
X60970000Y-172725000D03*
D27*
X60970000Y-175265000D03*
X60970000Y-177805000D03*
X60970000Y-180345000D03*
X60970000Y-182885000D03*
X60970000Y-185425000D03*
X60970000Y-187965000D03*
X60970000Y-190505000D03*
X60970000Y-193045000D03*
X60970000Y-195585000D03*
X68590000Y-195585000D03*
X68590000Y-193045000D03*
X68590000Y-190505000D03*
X68590000Y-187965000D03*
X68590000Y-185425000D03*
X68590000Y-182885000D03*
X68590000Y-180345000D03*
X68590000Y-177805000D03*
X68590000Y-175265000D03*
X68590000Y-172725000D03*
D21*
X284480000Y-78740000D03*
D20*
X287020000Y-78740000D03*
X289560000Y-78740000D03*
X292100000Y-78740000D03*
X294640000Y-78740000D03*
X297180000Y-78740000D03*
D11*
X80010000Y-132080000D03*
D12*
X82550000Y-132080000D03*
X85090000Y-132080000D03*
X87630000Y-132080000D03*
X90170000Y-132080000D03*
X92710000Y-132080000D03*
D11*
X205740000Y-121920000D03*
D12*
X205740000Y-124460000D03*
X205740000Y-127000000D03*
X205740000Y-129540000D03*
X213360000Y-129540000D03*
X213360000Y-127000000D03*
X213360000Y-124460000D03*
X213360000Y-121920000D03*
D23*
X201295000Y-142240000D03*
D24*
X206375000Y-142240000D03*
D11*
X111760000Y-156215000D03*
D12*
X111760000Y-158755000D03*
X111760000Y-161295000D03*
X111760000Y-163835000D03*
X111760000Y-166375000D03*
X111760000Y-168915000D03*
X111760000Y-171455000D03*
X111760000Y-173995000D03*
X111760000Y-176535000D03*
X111760000Y-179075000D03*
X111760000Y-181615000D03*
X111760000Y-184155000D03*
X111760000Y-186695000D03*
X111760000Y-189235000D03*
X111760000Y-191775000D03*
X111760000Y-194315000D03*
X111760000Y-196855000D03*
X111760000Y-199395000D03*
X111760000Y-201935000D03*
X111760000Y-204475000D03*
X127000000Y-204475000D03*
X127000000Y-201935000D03*
X127000000Y-199395000D03*
X127000000Y-196855000D03*
X127000000Y-194315000D03*
X127000000Y-191775000D03*
X127000000Y-189235000D03*
X127000000Y-186695000D03*
X127000000Y-184155000D03*
X127000000Y-181615000D03*
X127000000Y-179075000D03*
X127000000Y-176535000D03*
X127000000Y-173995000D03*
X127000000Y-171455000D03*
X127000000Y-168915000D03*
X127000000Y-166375000D03*
X127000000Y-163835000D03*
X127000000Y-161295000D03*
X127000000Y-158755000D03*
X127000000Y-156215000D03*
D10*
X175935000Y-137795000D03*
X180935000Y-137795000D03*
D26*
X62240000Y-136530000D03*
D27*
X62240000Y-139070000D03*
X62240000Y-141610000D03*
X62240000Y-144150000D03*
X62240000Y-146690000D03*
X62240000Y-149230000D03*
X62240000Y-151770000D03*
X62240000Y-154310000D03*
X62240000Y-156850000D03*
X62240000Y-159390000D03*
X69860000Y-159390000D03*
X69860000Y-156850000D03*
X69860000Y-154310000D03*
X69860000Y-151770000D03*
X69860000Y-149230000D03*
X69860000Y-146690000D03*
X69860000Y-144150000D03*
X69860000Y-141610000D03*
X69860000Y-139070000D03*
X69860000Y-136530000D03*
D10*
X175935000Y-130175000D03*
X180935000Y-130175000D03*
D23*
X63500000Y-123850000D03*
D24*
X68580000Y-123850000D03*
D19*
X220980000Y-121920000D03*
D20*
X220980000Y-124460000D03*
X220980000Y-127000000D03*
D19*
X229235000Y-124455000D03*
D20*
X229235000Y-126995000D03*
D42*
X87445000Y-73790000D03*
D43*
X87745000Y-76820000D03*
X92595000Y-76820000D03*
D42*
X92895000Y-73790000D03*
D20*
X81280000Y-73660000D03*
D44*
X80380000Y-73660000D03*
D20*
X81280000Y-76200000D03*
D44*
X80380000Y-76200000D03*
D19*
X81280000Y-78740000D03*
D44*
X80380000Y-78740000D03*
D20*
X81280000Y-81280000D03*
D44*
X80380000Y-81280000D03*
D20*
X81280000Y-83820000D03*
D44*
X80380000Y-83820000D03*
D20*
X81280000Y-86360000D03*
D44*
X80380000Y-86360000D03*
D20*
X81280000Y-88900000D03*
D44*
X80380000Y-88900000D03*
D19*
X81280000Y-91440000D03*
D44*
X80380000Y-91440000D03*
D20*
X81280000Y-93980000D03*
D44*
X80380000Y-93980000D03*
D20*
X81280000Y-96520000D03*
D44*
X80380000Y-96520000D03*
D20*
X81280000Y-99060000D03*
D44*
X80380000Y-99060000D03*
D20*
X81280000Y-101600000D03*
D44*
X80380000Y-101600000D03*
D19*
X81280000Y-104140000D03*
D44*
X80380000Y-104140000D03*
D20*
X81280000Y-106680000D03*
D44*
X80380000Y-106680000D03*
D20*
X81280000Y-109220000D03*
D44*
X80380000Y-109220000D03*
D20*
X81280000Y-111760000D03*
D44*
X80380000Y-111760000D03*
D20*
X81280000Y-114300000D03*
D44*
X80380000Y-114300000D03*
D19*
X81280000Y-116840000D03*
D44*
X80380000Y-116840000D03*
D20*
X81280000Y-119380000D03*
D44*
X80380000Y-119380000D03*
D20*
X81280000Y-121920000D03*
D44*
X80380000Y-121920000D03*
D20*
X99060000Y-121920000D03*
D44*
X99960000Y-121920000D03*
D20*
X99060000Y-119380000D03*
D44*
X99960000Y-119380000D03*
D19*
X99060000Y-116840000D03*
D44*
X99960000Y-116840000D03*
D20*
X99060000Y-114300000D03*
D44*
X99960000Y-114300000D03*
D20*
X99060000Y-111760000D03*
D44*
X99960000Y-111760000D03*
D20*
X99060000Y-109220000D03*
D44*
X99960000Y-109220000D03*
D20*
X99060000Y-106680000D03*
D44*
X99960000Y-106680000D03*
D19*
X99060000Y-104140000D03*
D44*
X99960000Y-104140000D03*
D20*
X99060000Y-101600000D03*
D44*
X99960000Y-101600000D03*
D20*
X99060000Y-99060000D03*
D44*
X99960000Y-99060000D03*
D20*
X99060000Y-96520000D03*
D44*
X99960000Y-96520000D03*
D20*
X99060000Y-93980000D03*
D44*
X99960000Y-93980000D03*
D19*
X99060000Y-91440000D03*
D44*
X99960000Y-91440000D03*
D20*
X99060000Y-88900000D03*
D44*
X99960000Y-88900000D03*
D20*
X99060000Y-86360000D03*
D44*
X99960000Y-86360000D03*
D20*
X99060000Y-83820000D03*
D44*
X99960000Y-83820000D03*
D20*
X99060000Y-81280000D03*
D44*
X99960000Y-81280000D03*
D19*
X99060000Y-78740000D03*
D44*
X99960000Y-78740000D03*
D20*
X99060000Y-76200000D03*
D44*
X99960000Y-76200000D03*
D20*
X99060000Y-73660000D03*
D44*
X99960000Y-73660000D03*
D20*
X87630000Y-121690000D03*
D45*
X87630000Y-122590000D03*
D19*
X90170000Y-121690000D03*
D45*
X90170000Y-122590000D03*
D20*
X92710000Y-121690000D03*
D45*
X92710000Y-122590000D03*
D23*
X63500000Y-127000000D03*
D24*
X68580000Y-127000000D03*
D26*
X254000000Y-190500000D03*
D27*
X254000000Y-193040000D03*
X254000000Y-195580000D03*
X254000000Y-198120000D03*
X254000000Y-200660000D03*
X254000000Y-203200000D03*
X254000000Y-205740000D03*
X261620000Y-205740000D03*
X261620000Y-203200000D03*
X261620000Y-200660000D03*
X261620000Y-198120000D03*
X261620000Y-195580000D03*
X261620000Y-193040000D03*
X261620000Y-190500000D03*
D23*
X63500000Y-98650000D03*
D24*
X68580000Y-98650000D03*
D19*
X35560000Y-177800000D03*
D20*
X35560000Y-180340000D03*
D23*
X201295000Y-139090000D03*
D24*
X206375000Y-139090000D03*
D23*
X63500000Y-120700000D03*
D24*
X68580000Y-120700000D03*
D11*
X81280000Y-156215000D03*
D12*
X81280000Y-158755000D03*
X81280000Y-161295000D03*
X81280000Y-163835000D03*
X81280000Y-166375000D03*
X81280000Y-168915000D03*
X81280000Y-171455000D03*
X81280000Y-173995000D03*
X81280000Y-176535000D03*
X81280000Y-179075000D03*
X81280000Y-181615000D03*
X81280000Y-184155000D03*
X81280000Y-186695000D03*
X81280000Y-189235000D03*
X81280000Y-191775000D03*
X81280000Y-194315000D03*
X81280000Y-196855000D03*
X81280000Y-199395000D03*
X81280000Y-201935000D03*
X81280000Y-204475000D03*
X96520000Y-204475000D03*
X96520000Y-201935000D03*
X96520000Y-199395000D03*
X96520000Y-196855000D03*
X96520000Y-194315000D03*
X96520000Y-191775000D03*
X96520000Y-189235000D03*
X96520000Y-186695000D03*
X96520000Y-184155000D03*
X96520000Y-181615000D03*
X96520000Y-179075000D03*
X96520000Y-176535000D03*
X96520000Y-173995000D03*
X96520000Y-171455000D03*
X96520000Y-168915000D03*
X96520000Y-166375000D03*
X96520000Y-163835000D03*
X96520000Y-161295000D03*
X96520000Y-158755000D03*
X96520000Y-156215000D03*
M02*
