M48
; DRILL file {KiCad 7.0.1} date Sat Jul 20 11:14:40 2024
; FORMAT={-:-/ absolute / inch / decimal}
; #@! TF.CreationDate,2024-07-20T11:14:40-05:00
; #@! TF.GenerationSoftware,Kicad,Pcbnew,7.0.1
; #@! TF.FileFunction,Plated,1,2,PTH
FMAT,2
INCH
; #@! TA.AperFunction,Plated,PTH,ViaDrill
T1C0.0157
; #@! TA.AperFunction,Plated,PTH,ComponentDrill
T2C0.0197
; #@! TA.AperFunction,Plated,PTH,ComponentDrill
T3C0.0236
; #@! TA.AperFunction,Plated,PTH,ComponentDrill
T4C0.0276
; #@! TA.AperFunction,Plated,PTH,ComponentDrill
T5C0.0295
; #@! TA.AperFunction,Plated,PTH,ComponentDrill
T6C0.0315
; #@! TA.AperFunction,Plated,PTH,ComponentDrill
T7C0.0354
; #@! TA.AperFunction,Plated,PTH,ComponentDrill
T8C0.0394
; #@! TA.AperFunction,Plated,PTH,ComponentDrill
T9C0.0402
; #@! TA.AperFunction,Plated,PTH,ComponentDrill
T10C0.0433
; #@! TA.AperFunction,Plated,PTH,ComponentDrill
T11C0.0461
; #@! TA.AperFunction,Plated,PTH,ComponentDrill
T12C0.0512
; #@! TA.AperFunction,Plated,PTH,ComponentDrill
T13C0.0591
; #@! TA.AperFunction,Plated,PTH,ComponentDrill
T14C0.0787
; #@! TA.AperFunction,Plated,PTH,ComponentDrill
T15C0.1260
%
G90
G05
T1
X1.9542Y-4.9874
X2.0063Y-5.6546
X2.0089Y-6.8432
X2.0195Y-6.7922
X2.0305Y-6.7408
X2.0882Y-6.6435
X2.0948Y-6.756
X2.2148Y-7.1717
X2.2367Y-7.5112
X2.2414Y-3.2129
X2.2793Y-7.5023
X2.2836Y-5.5356
X2.2964Y-6.837
X2.3559Y-6.3758
X2.4391Y-5.087
X2.4396Y-6.6594
X2.5217Y-6.7339
X2.5817Y-6.6275
X2.5891Y-3.4193
X2.6024Y-5.5309
X2.6108Y-7.3291
X2.6374Y-6.6398
X2.648Y-3.5185
X2.7484Y-6.4189
X2.844Y-6.6989
X2.8558Y-6.0516
X2.8859Y-3.0537
X2.8965Y-7.1561
X2.9038Y-5.9443
X2.906Y-7.0465
X2.9228Y-6.0456
X2.9325Y-7.0052
X2.9678Y-2.9147
X3.0204Y-2.9537
X3.0275Y-7.289
X3.0459Y-6.3534
X3.0528Y-7.6002
X3.0975Y-6.8002
X3.1182Y-7.7059
X3.1345Y-8.1148
X3.2027Y-4.9214
X3.2821Y-4.7059
X3.3511Y-4.9804
X3.3657Y-5.0932
X3.4898Y-5.8123
X3.527Y-6.6972
X3.5308Y-5.3981
X3.5521Y-6.0091
X3.5673Y-6.6672
X3.6201Y-7.5021
X3.6926Y-6.0552
X3.708Y-6.1123
X3.7081Y-6.015
X3.7168Y-4.0681
X3.7366Y-7.6081
X3.7459Y-6.199
X3.75Y-6.0918
X3.7744Y-5.0117
X3.7963Y-5.0469
X3.8038Y-5.7012
X3.857Y-7.1967
X3.8909Y-6.1352
X3.9008Y-7.059
X3.9102Y-6.9998
X4.0529Y-6.0822
X4.0767Y-6.1286
X4.0873Y-3.2463
X4.1034Y-6.0997
X4.1463Y-3.771
X4.1509Y-6.0663
X4.1727Y-3.4112
X4.1798Y-5.4373
X4.1848Y-6.4248
X4.2113Y-3.8123
X4.2185Y-6.146
X4.2201Y-4.4747
X4.2323Y-3.4463
X4.2544Y-6.199
X4.2556Y-3.8472
X4.2631Y-5.455
X4.2815Y-6.17
X4.3128Y-6.2041
X4.3139Y-6.3654
X4.3432Y-3.766
X4.3623Y-3.6929
X4.3778Y-3.7361
X4.3828Y-3.5463
X4.3868Y-4.4638
X4.3929Y-5.3554
X4.4372Y-5.2822
X4.4589Y-3.8762
X4.46Y-6.1977
X4.4776Y-5.05
X4.5693Y-6.0799
X4.7027Y-4.569
X4.8126Y-4.2291
X4.8309Y-6.9031
X4.8569Y-6.1741
X4.8586Y-3.5524
X4.8917Y-4.2658
X4.896Y-4.2264
X4.9309Y-4.3461
X4.9313Y-4.4408
X4.9314Y-4.3889
X4.9342Y-4.269
X4.975Y-5.1453
X5.09Y-4.771
X5.1348Y-7.2991
X5.1577Y-5.9353
X5.2132Y-6.2443
X5.2907Y-5.4937
X5.362Y-7.5559
X5.3689Y-4.9819
X5.4651Y-6.0079
X5.4798Y-5.8825
X5.5129Y-7.1826
X5.5628Y-5.9687
X5.5637Y-6.0561
X5.5671Y-5.4492
X5.6211Y-4.0462
X5.6815Y-6.0566
X5.7106Y-4.2666
X5.7227Y-3.7329
X5.7906Y-7.8031
X5.8718Y-5.7285
X5.931Y-3.9178
X5.9433Y-3.0847
X5.9491Y-5.9126
X5.9771Y-8.1018
X5.9807Y-5.6059
X5.9911Y-7.6785
X6.0016Y-7.0163
X6.0205Y-7.0541
X6.0415Y-6.9886
X6.0944Y-6.4502
X6.111Y-3.7561
X6.1252Y-6.7785
X6.1522Y-3.8874
X6.1757Y-6.986
X6.2535Y-3.7274
X6.2854Y-3.6172
X6.3124Y-7.4066
X6.3167Y-3.5886
X6.3833Y-3.5386
X6.3855Y-3.4555
X6.4317Y-7.7971
X6.4581Y-5.9258
X6.4899Y-7.5008
X6.5569Y-5.802
X6.5688Y-7.6707
X6.5773Y-7.7971
X6.5798Y-5.7676
X6.5871Y-7.6313
X6.6174Y-6.1163
X6.6187Y-7.6796
X6.6351Y-6.2535
X6.6432Y-6.65
X6.7186Y-6.216
X6.7487Y-3.0236
X6.8034Y-6.1842
X6.812Y-3.0849
X6.8305Y-6.1041
X6.831Y-6.1455
X6.8374Y-6.4262
X6.8403Y-7.5655
X6.8414Y-6.2137
X6.8609Y-5.4029
X6.8741Y-7.6764
X6.8853Y-7.0275
X6.8988Y-7.594
X6.9234Y-7.6797
X6.9975Y-5.5172
X7.0305Y-5.0502
X7.0364Y-5.4849
X7.044Y-6.4242
X7.0761Y-7.2756
X7.1456Y-7.1533
X7.1485Y-7.8697
X7.1577Y-4.6344
X7.164Y-7.2528
X7.1762Y-4.3694
X7.1775Y-7.0275
X7.188Y-6.021
X7.2173Y-7.3119
X7.2218Y-5.7433
X7.2272Y-7.5509
X7.2388Y-8.192
X7.324Y-7.0799
X7.3282Y-6.8092
X7.3632Y-5.4685
X7.3633Y-4.3693
X7.4397Y-6.0393
X7.4534Y-7.5599
X7.4655Y-7.498
X7.4656Y-5.9184
X7.4772Y-4.287
X7.4854Y-3.7926
X7.492Y-3.8456
X7.5018Y-4.1854
X7.522Y-5.7637
X7.5307Y-5.7142
X7.5424Y-3.4843
X7.5579Y-3.7144
X7.5645Y-6.0841
X7.5701Y-4.1428
X7.5763Y-5.7141
X7.5783Y-3.5282
X7.5889Y-3.4053
X7.5969Y-4.1717
X7.6837Y-2.9609
X7.6944Y-4.9266
X7.7303Y-4.8554
X7.7861Y-3.3386
X7.7997Y-6.6195
X7.8224Y-4.0568
X7.8416Y-4.5998
X7.875Y-3.7765
X7.9078Y-7.3226
X7.9974Y-4.4488
X8.098Y-4.3046
X8.1548Y-3.9317
X8.2255Y-4.2868
X8.2412Y-5.5239
X8.3013Y-6.8677
X8.3204Y-4.6511
X8.3312Y-4.7845
X8.3639Y-7.1772
X8.4298Y-3.4624
X8.4655Y-7.0775
X8.476Y-5.0202
X8.4801Y-4.6507
X8.5052Y-3.5661
X8.5288Y-5.2831
X8.544Y-6.7662
X8.5499Y-4.9307
X8.6814Y-5.1203
X8.6868Y-3.6381
X8.6883Y-5.0772
X8.6961Y-3.8984
X8.7253Y-3.8096
X8.7376Y-3.537
X8.7383Y-6.638
X8.7383Y-3.8501
X8.7398Y-6.235
X8.7442Y-4.5928
X8.7445Y-3.9476
X8.7595Y-6.7767
X8.7665Y-6.1835
X8.7701Y-3.6501
X8.7702Y-4.5631
X8.7799Y-4.2543
X8.7897Y-6.4617
X8.7944Y-6.1557
X8.8298Y-5.2549
X8.8331Y-4.6386
X8.8331Y-4.518
X8.8371Y-6.6326
X8.889Y-6.5206
X8.8896Y-4.9176
X8.9023Y-5.0147
X8.9294Y-6.2073
X8.9311Y-7.4529
X8.9469Y-4.3787
X8.9574Y-6.4198
X8.9619Y-3.8564
X8.9718Y-4.5603
X8.9881Y-4.6702
X8.9881Y-6.1321
X8.9946Y-4.611
X9.0042Y-7.2913
X9.1102Y-6.4947
X9.1443Y-6.4209
X9.1533Y-5.0338
X9.1814Y-4.468
X9.1928Y-4.7167
X9.2252Y-4.7413
X9.2281Y-6.8762
X9.2365Y-4.7019
X9.2467Y-4.0462
X9.2763Y-4.6459
X9.2813Y-4.3832
X9.2948Y-4.6959
X9.2967Y-4.8632
X9.2986Y-4.8239
X9.338Y-4.8177
X9.3537Y-4.9202
X9.3553Y-5.9602
X9.3642Y-3.2718
X9.3686Y-4.8486
X9.3923Y-5.1021
X9.398Y-5.5621
X9.4024Y-6.174
X9.4278Y-5.1617
X9.4517Y-4.6996
X9.4862Y-6.1134
X9.4962Y-6.2234
X9.561Y-6.8684
X9.5821Y-3.316
X9.6024Y-6.824
X9.6179Y-5.2635
X9.6246Y-5.1814
X9.6897Y-4.8204
X9.7156Y-5.6952
X9.7202Y-5.8021
X9.7663Y-7.1027
X9.8418Y-6.3514
X9.8501Y-5.8952
X9.9199Y-3.392
X9.939Y-5.0911
X9.9433Y-3.2986
X9.9868Y-3.5926
X10.0329Y-6.0125
X10.039Y-7.2798
X10.1035Y-6.1135
X10.1465Y-4.8375
X10.1611Y-7.2444
X10.1729Y-4.3239
X10.1969Y-4.8072
X10.2125Y-7.2267
X10.2283Y-7.016
X10.2363Y-4.7966
X10.237Y-5.8976
X10.2709Y-7.016
X10.2757Y-4.8072
X10.2965Y-7.0899
X10.3072Y-5.8681
X10.3203Y-4.9237
X10.3591Y-4.6737
X10.389Y-5.8394
X10.3989Y-4.669
X10.41Y-4.2286
X10.4632Y-6.9049
X10.4669Y-6.726
X10.4872Y-4.5693
X10.5025Y-4.3052
X10.5845Y-4.1105
X10.6161Y-4.3829
X10.6188Y-5.0415
X10.648Y-5.7772
X10.6881Y-5.4721
X10.7471Y-3.7193
X10.8083Y-4.2487
X10.8272Y-4.0363
X10.8602Y-4.4764
X10.8814Y-4.4378
X10.8862Y-7.1949
X10.9057Y-4.5051
X10.9136Y-5.7226
X10.9486Y-6.5499
X10.9515Y-4.346
X10.9554Y-3.9454
X10.9576Y-7.5268
X10.9617Y-6.6112
X10.9788Y-4.8692
X10.9879Y-5.8018
X10.9887Y-5.8412
X10.9889Y-4.3108
X10.9901Y-4.8061
X11.0149Y-4.8371
X11.0217Y-4.2635
X11.0286Y-4.4035
X11.0533Y-5.2512
X11.0585Y-5.1951
X11.0801Y-5.0495
X11.0841Y-3.6083
X11.0934Y-4.9387
X11.1061Y-6.6682
X11.1222Y-6.9993
X11.1297Y-6.2337
X11.1338Y-5.5487
X11.14Y-6.715
X11.158Y-3.5628
X11.1644Y-4.5976
X11.1732Y-5.4644
X11.2047Y-4.6698
X11.215Y-4.4529
X11.2195Y-6.5243
X11.2241Y-5.121
X11.2386Y-6.8754
X11.2475Y-3.548
X11.2492Y-4.5722
X11.251Y-3.4977
X11.2542Y-4.1891
X11.2693Y-5.0024
X11.2702Y-5.9788
X11.2976Y-4.2407
X11.3054Y-4.1268
X11.3645Y-6.7977
X11.3729Y-5.4986
X11.4143Y-5.2512
X11.4281Y-6.1878
X11.4929Y-4.7625
X11.5218Y-4.8943
X11.527Y-6.9607
X11.7012Y-4.784
X11.7192Y-3.4896
X11.7462Y-4.6284
X11.7556Y-3.4519
X11.775Y-4.7361
X11.847Y-4.8412
X11.869Y-3.702
X11.869Y-3.2135
X11.873Y-5.2456
X11.9018Y-4.6496
X11.9194Y-4.5788
X11.931Y-4.8126
X12.0042Y-6.1615
X12.0648Y-6.1403
X12.1012Y-4.6224
X12.1651Y-4.8574
X12.1861Y-4.2122
X12.202Y-3.3826
X12.2192Y-4.8589
X12.2249Y-3.418
X12.2557Y-3.5323
X12.2647Y-3.4306
X12.281Y-3.354
X12.2872Y-3.4642
X12.3131Y-3.7172
X12.3769Y-5.5885
X12.3803Y-4.6219
X12.4193Y-3.7063
X12.4195Y-3.3123
X12.471Y-3.7627
X12.4963Y-5.2908
X12.509Y-3.5813
X12.5364Y-5.5864
X12.5505Y-5.7845
X12.551Y-4.1574
X12.5525Y-3.6246
X12.5858Y-3.3182
X12.7146Y-3.7293
X12.7653Y-4.7721
X12.801Y-4.1664
X12.9811Y-6.2052
X12.9893Y-4.7281
X13.035Y-4.0865
X13.0821Y-3.0828
X13.1297Y-3.8385
X13.1319Y-4.1612
X13.1434Y-5.9896
X13.1899Y-6.8014
X13.2463Y-3.6847
X13.2532Y-4.7968
X13.2958Y-7.4533
X13.3823Y-6.0804
X13.4267Y-3.5768
X13.4614Y-4.9079
X13.4804Y-3.5088
X13.6025Y-4.7965
X13.6241Y-4.0285
X13.6285Y-3.9806
X13.6601Y-4.731
X13.6623Y-4.1572
X13.7226Y-4.7783
X13.7271Y-4.0881
X13.75Y-4.7314
X13.7569Y-3.6383
X13.8405Y-3.0959
X13.93Y-4.1935
X13.9777Y-3.2188
X14.2511Y-5.0143
X14.2863Y-4.9129
X14.325Y-3.6917
X14.3403Y-3.732
X14.3651Y-4.954
X14.4255Y-3.5817
X14.517Y-5.1555
X14.5746Y-5.1891
X14.5808Y-6.3851
X14.6018Y-5.4857
X14.6479Y-3.833
X14.6643Y-6.3879
X14.6711Y-5.1891
X14.8301Y-3.6505
X14.9117Y-4.6197
T2
X7.8331Y-4.5
X7.9Y-4.5
T3
X2.1Y-6.9
X2.1787Y-6.9
X5.7Y-3.8
X5.7787Y-3.8
X6.4173Y-7.0433
X6.4173Y-7.3386
X6.4213Y-7.6457
X6.4213Y-7.9134
X6.4213Y-8.1693
X6.4961Y-7.0433
X6.4961Y-7.3386
X6.5Y-7.6457
X6.5Y-7.9134
X6.5Y-8.1693
X8.2Y-4.5
X8.2787Y-4.5
X11.4Y-5.2
X11.4787Y-5.2
T4
X1.2717Y-5.0787
X1.2717Y-5.2787
X1.2722Y-5.3793
X1.2722Y-5.5793
X1.2795Y-5.7047
X1.2795Y-5.9047
X1.4Y-6.7
X1.6Y-6.7
X1.7Y-3.3
X1.7Y-3.5
X1.7Y-3.7
X1.9Y-3.3
X1.9Y-3.5
X1.9Y-3.7
X2.1Y-3.7
X2.3Y-3.7
X2.5Y-3.3878
X2.5Y-3.5118
X2.5Y-3.6358
X2.5Y-3.7598
X2.5Y-3.8839
X2.5Y-4.0079
X2.5Y-4.1319
X2.5Y-4.2559
X2.5Y-4.3799
X2.5Y-4.5039
X2.5Y-4.628
X2.5Y-4.752
X2.5Y-4.876
X2.5Y-5.0
X2.7Y-3.3878
X2.7Y-3.5118
X2.7Y-3.6358
X2.7Y-3.7598
X2.7Y-3.8839
X2.7Y-4.0079
X2.7Y-4.1319
X2.7Y-4.2559
X2.7Y-4.3799
X2.7Y-4.5039
X2.7Y-4.628
X2.7Y-4.752
X2.7Y-4.876
X2.7Y-5.0
X6.9Y-6.925
X6.9Y-7.125
X7.075Y-6.925
X7.075Y-7.125
X7.275Y-6.925
X7.275Y-7.125
X7.925Y-5.352
X7.925Y-5.476
X7.925Y-5.6
X8.125Y-5.352
X8.125Y-5.476
X8.125Y-5.6
X11.825Y-8.075
X12.025Y-8.075
T5
X1.6Y-7.1
X1.65Y-7.05
X1.7Y-7.1
T6
X1.2598Y-4.4803
X1.2598Y-4.6772
X1.5083Y-4.4343
X1.5083Y-4.5343
X1.5083Y-4.6343
X1.5083Y-4.7343
X1.5083Y-4.8343
X1.5083Y-4.9343
X1.5083Y-5.0343
X1.5083Y-5.1343
X1.5083Y-5.2343
X1.5083Y-5.3343
X1.5083Y-5.4343
X1.5083Y-5.5343
X1.5083Y-5.6343
X1.5083Y-5.7343
X1.5083Y-5.8343
X1.5083Y-5.9343
X1.5083Y-6.0343
X1.5083Y-6.1343
X1.5083Y-6.2343
X1.5083Y-6.3343
X1.689Y-4.2598
X1.7087Y-6.5157
X1.8858Y-4.2598
X1.9055Y-6.5157
X2.1Y-3.5
X2.1083Y-4.4343
X2.1083Y-4.5343
X2.1083Y-4.6343
X2.1083Y-4.7343
X2.1083Y-4.8343
X2.1083Y-4.9343
X2.1083Y-5.0343
X2.1083Y-5.1343
X2.1083Y-5.2343
X2.1083Y-5.3343
X2.1083Y-5.4343
X2.1083Y-5.5343
X2.1083Y-5.6343
X2.1083Y-5.7343
X2.1083Y-5.8343
X2.1083Y-5.9343
X2.1083Y-6.0343
X2.1083Y-6.1343
X2.1083Y-6.2343
X2.1083Y-6.3343
X2.2969Y-3.5
X2.4004Y-6.8002
X2.4004Y-6.9002
X2.4004Y-7.0002
X2.4004Y-7.1002
X2.4004Y-7.2002
X2.4004Y-7.3002
X2.4004Y-7.4002
X2.4004Y-7.5002
X2.4004Y-7.6002
X2.4004Y-7.7002
X2.4031Y-6.5
X2.4504Y-5.3752
X2.4504Y-5.4752
X2.4504Y-5.5752
X2.4504Y-5.6752
X2.4504Y-5.7752
X2.4504Y-5.8752
X2.4504Y-5.9752
X2.4504Y-6.0752
X2.4504Y-6.1752
X2.4504Y-6.2752
X2.6Y-6.5
X2.7004Y-6.8002
X2.7004Y-6.9002
X2.7004Y-7.0002
X2.7004Y-7.1002
X2.7004Y-7.2002
X2.7004Y-7.3002
X2.7004Y-7.4002
X2.7004Y-7.5002
X2.7004Y-7.6002
X2.7004Y-7.7002
X2.7504Y-5.3752
X2.7504Y-5.4752
X2.7504Y-5.5752
X2.7504Y-5.6752
X2.7504Y-5.7752
X2.7504Y-5.8752
X2.7504Y-5.9752
X2.7504Y-6.0752
X2.7504Y-6.1752
X2.7504Y-6.2752
X3.15Y-5.2
X3.2Y-6.1502
X3.2Y-6.2502
X3.2Y-6.3502
X3.2Y-6.4502
X3.2Y-6.5502
X3.2Y-6.6502
X3.2Y-6.7502
X3.2Y-6.8502
X3.2Y-6.9502
X3.2Y-7.0502
X3.2Y-7.1502
X3.2Y-7.2502
X3.2Y-7.3502
X3.2Y-7.4502
X3.2Y-7.5502
X3.2Y-7.6502
X3.2Y-7.7502
X3.2Y-7.8502
X3.2Y-7.9502
X3.2Y-8.0502
X3.2016Y-5.95
X3.25Y-5.2
X3.35Y-5.2
X3.3984Y-5.95
X3.45Y-5.2
X3.55Y-5.2
X3.65Y-5.2
X3.8Y-6.1502
X3.8Y-6.2502
X3.8Y-6.3502
X3.8Y-6.4502
X3.8Y-6.5502
X3.8Y-6.6502
X3.8Y-6.7502
X3.8Y-6.8502
X3.8Y-6.9502
X3.8Y-7.0502
X3.8Y-7.1502
X3.8Y-7.2502
X3.8Y-7.3502
X3.8Y-7.4502
X3.8Y-7.5502
X3.8Y-7.6502
X3.8Y-7.7502
X3.8Y-7.8502
X3.8Y-7.9502
X3.8Y-8.0502
X4.3266Y-5.975
X4.4Y-6.1502
X4.4Y-6.2502
X4.4Y-6.3502
X4.4Y-6.4502
X4.4Y-6.5502
X4.4Y-6.6502
X4.4Y-6.7502
X4.4Y-6.8502
X4.4Y-6.9502
X4.4Y-7.0502
X4.4Y-7.1502
X4.4Y-7.2502
X4.4Y-7.3502
X4.4Y-7.4502
X4.4Y-7.5502
X4.4Y-7.6502
X4.4Y-7.7502
X4.4Y-7.8502
X4.4Y-7.9502
X4.4Y-8.0502
X4.5234Y-5.975
X4.6002Y-4.9
X4.6002Y-5.0
X4.6002Y-5.1
X4.6002Y-5.2
X4.6002Y-5.3
X4.6002Y-5.4
X4.6002Y-5.5
X4.6002Y-5.6
X4.6002Y-5.7
X4.6002Y-5.8
X4.6516Y-4.625
X4.8484Y-4.625
X4.9002Y-4.9
X4.9002Y-5.0
X4.9002Y-5.1
X4.9002Y-5.2
X4.9002Y-5.3
X4.9002Y-5.4
X4.9002Y-5.5
X4.9002Y-5.6
X4.9002Y-5.7
X4.9002Y-5.8
X5.0Y-6.1502
X5.0Y-6.2502
X5.0Y-6.3502
X5.0Y-6.4502
X5.0Y-6.5502
X5.0Y-6.6502
X5.0Y-6.7502
X5.0Y-6.8502
X5.0Y-6.9502
X5.0Y-7.0502
X5.0Y-7.1502
X5.0Y-7.2502
X5.0Y-7.3502
X5.0Y-7.4502
X5.0Y-7.5502
X5.0Y-7.6502
X5.0Y-7.7502
X5.0Y-7.8502
X5.0Y-7.9502
X5.0Y-8.0502
X5.1754Y-4.9002
X5.1754Y-5.0002
X5.1754Y-5.1002
X5.1754Y-5.2002
X5.1754Y-5.3002
X5.1754Y-5.4002
X5.1754Y-5.5002
X5.1754Y-5.6002
X5.1754Y-5.7002
X5.1754Y-5.8002
X5.2266Y-4.725
X5.4Y-3.6
X5.4234Y-4.725
X5.4754Y-4.9002
X5.4754Y-5.0002
X5.4754Y-5.1002
X5.4754Y-5.2002
X5.4754Y-5.3002
X5.4754Y-5.4002
X5.4754Y-5.5002
X5.4754Y-5.6002
X5.4754Y-5.7002
X5.4754Y-5.8002
X5.5969Y-3.6
X5.7323Y-5.0
X5.7323Y-5.1
X5.7323Y-5.2
X5.7323Y-5.3
X5.7323Y-5.4
X5.7323Y-5.5
X5.7323Y-5.6
X5.7323Y-5.7
X5.7323Y-5.8
X5.7323Y-5.9
X5.7323Y-6.0
X5.7323Y-6.1
X5.7323Y-6.2
X5.7323Y-6.3
X5.7323Y-6.4
X5.7323Y-6.5
X5.7323Y-6.6
X5.7323Y-6.7
X5.7323Y-6.8
X5.7323Y-6.9
X5.8618Y-7.389
X5.8618Y-7.489
X5.8618Y-7.589
X5.8618Y-7.689
X5.8618Y-7.789
X5.8618Y-7.889
X5.8618Y-7.989
X5.8618Y-8.089
X5.8657Y-4.3063
X5.8657Y-4.6063
X5.9173Y-4.1453
X5.9173Y-4.8146
X5.9291Y-7.2175
X6.1142Y-4.1453
X6.1142Y-4.8146
X6.126Y-7.2175
X6.1618Y-7.389
X6.1618Y-7.489
X6.1618Y-7.589
X6.1618Y-7.689
X6.1618Y-7.789
X6.1618Y-7.889
X6.1618Y-7.989
X6.1618Y-8.089
X6.1657Y-4.3063
X6.1657Y-4.6063
X6.3323Y-5.0
X6.3323Y-5.1
X6.3323Y-5.2
X6.3323Y-5.3
X6.3323Y-5.4
X6.3323Y-5.5
X6.3323Y-5.6
X6.3323Y-5.7
X6.3323Y-5.8
X6.3323Y-5.9
X6.3323Y-6.0
X6.3323Y-6.1
X6.3323Y-6.2
X6.3323Y-6.3
X6.3323Y-6.4
X6.3323Y-6.5
X6.3323Y-6.6
X6.3323Y-6.7
X6.3323Y-6.8
X6.3323Y-6.9
X6.5Y-4.5433
X6.6969Y-4.5433
X6.9266Y-5.125
X6.9266Y-5.425
X7.0Y-3.0748
X7.0Y-3.1874
X7.0Y-3.2874
X7.0Y-3.3874
X7.0Y-3.4874
X7.0Y-3.5874
X7.0Y-3.6874
X7.0Y-3.7874
X7.0Y-3.8874
X7.0Y-3.9874
X7.0Y-4.0874
X7.0Y-4.1874
X7.0Y-4.2874
X7.0315Y-7.4866
X7.0315Y-7.5866
X7.0315Y-7.6866
X7.0315Y-7.7866
X7.0315Y-7.8866
X7.0315Y-7.9866
X7.0315Y-8.0866
X7.0791Y-7.352
X7.1234Y-5.125
X7.1234Y-5.425
X7.1969Y-3.0748
X7.276Y-7.352
X7.3Y-3.1874
X7.3Y-3.2874
X7.3Y-3.3874
X7.3Y-3.4874
X7.3Y-3.5874
X7.3Y-3.6874
X7.3Y-3.7874
X7.3Y-3.8874
X7.3Y-3.9874
X7.3Y-4.0874
X7.3Y-4.1874
X7.3Y-4.2874
X7.3Y-4.8
X7.3Y-4.9
X7.3Y-5.0
X7.3Y-5.1
X7.3Y-5.2
X7.3Y-5.3
X7.3Y-5.4
X7.3Y-5.5
X7.3Y-5.6
X7.3315Y-7.4866
X7.3315Y-7.5866
X7.3315Y-7.6866
X7.3315Y-7.7866
X7.3315Y-7.8866
X7.3315Y-7.9866
X7.3315Y-8.0866
X7.3504Y-6.0496
X7.3504Y-6.1496
X7.3504Y-6.2496
X7.3504Y-6.3496
X7.3504Y-6.4496
X7.3504Y-6.5496
X7.3504Y-6.6496
X7.3504Y-6.7496
X7.4Y-4.6
X7.5969Y-4.6
X7.6Y-4.8
X7.6Y-4.9
X7.6Y-5.0
X7.6Y-5.1
X7.6Y-5.2
X7.6Y-5.3
X7.6Y-5.4
X7.6Y-5.5
X7.6Y-5.6
X7.6Y-7.4803
X7.6Y-7.5803
X7.6Y-7.6803
X7.6Y-7.7803
X7.6Y-7.8803
X7.6Y-7.9803
X7.6Y-8.0803
X7.6303Y-7.3283
X7.6504Y-6.0496
X7.6504Y-6.1496
X7.6504Y-6.2496
X7.6504Y-6.3496
X7.6504Y-6.4496
X7.6504Y-6.5496
X7.6504Y-6.6496
X7.6504Y-6.7496
X7.6598Y-3.1874
X7.6598Y-3.2874
X7.6598Y-3.3874
X7.6598Y-3.4874
X7.6598Y-3.5874
X7.6598Y-3.6874
X7.6598Y-3.7874
X7.6598Y-3.8874
X7.6598Y-3.9874
X7.6598Y-4.0874
X7.7031Y-3.0709
X7.8272Y-7.3283
X7.9Y-3.0709
X7.9Y-7.4803
X7.9Y-7.5803
X7.9Y-7.6803
X7.9Y-7.7803
X7.9Y-7.8803
X7.9Y-7.9803
X7.9Y-8.0803
X7.9598Y-3.1874
X7.9598Y-3.2874
X7.9598Y-3.3874
X7.9598Y-3.4874
X7.9598Y-3.5874
X7.9598Y-3.6874
X7.9598Y-3.7874
X7.9598Y-3.8874
X7.9598Y-3.9874
X7.9598Y-4.0874
X8.1Y-4.8
X8.1Y-4.9
X8.1Y-5.0
X8.1Y-5.1
X8.2429Y-7.4724
X8.2429Y-7.5724
X8.2429Y-7.6724
X8.2429Y-7.7724
X8.2429Y-7.8724
X8.2429Y-7.9724
X8.2429Y-8.0724
X8.2858Y-3.1874
X8.2858Y-3.2874
X8.2858Y-3.3874
X8.2858Y-3.4874
X8.2858Y-3.5874
X8.2858Y-3.6874
X8.2858Y-3.7874
X8.2858Y-3.8874
X8.2858Y-3.9874
X8.2858Y-4.0874
X8.2878Y-7.3244
X8.3331Y-3.0709
X8.4Y-4.8
X8.4Y-4.9
X8.4Y-5.0
X8.4Y-5.1
X8.4846Y-7.3244
X8.5299Y-3.0709
X8.5429Y-7.4724
X8.5429Y-7.5724
X8.5429Y-7.6724
X8.5429Y-7.7724
X8.5429Y-7.8724
X8.5429Y-7.9724
X8.5429Y-8.0724
X8.5858Y-3.1874
X8.5858Y-3.2874
X8.5858Y-3.3874
X8.5858Y-3.4874
X8.5858Y-3.5874
X8.5858Y-3.6874
X8.5858Y-3.7874
X8.5858Y-3.8874
X8.5858Y-3.9874
X8.5858Y-4.0874
X8.9563Y-7.9681
X8.9563Y-8.165
X9.2998Y-5.1502
X9.2998Y-5.2502
X9.2998Y-5.3502
X9.2998Y-5.4502
X9.2998Y-5.5502
X9.2998Y-5.6502
X9.2998Y-5.7502
X9.2998Y-5.8502
X9.2998Y-5.9502
X9.2998Y-6.0502
X9.2998Y-6.1502
X9.2998Y-6.2502
X9.2998Y-6.3502
X9.2998Y-6.4502
X9.2998Y-6.5502
X9.2998Y-6.6502
X9.2998Y-6.7502
X9.2998Y-6.8502
X9.2998Y-6.9502
X9.2998Y-7.0502
X9.4169Y-4.2634
X9.4169Y-4.5634
X9.4528Y-4.9409
X9.4606Y-4.0984
X9.6496Y-4.9409
X9.6575Y-4.0984
X9.7169Y-4.2634
X9.7169Y-4.5634
X9.8998Y-5.1502
X9.8998Y-5.2502
X9.8998Y-5.3502
X9.8998Y-5.4502
X9.8998Y-5.5502
X9.8998Y-5.6502
X9.8998Y-5.7502
X9.8998Y-5.8502
X9.8998Y-5.9502
X9.8998Y-6.0502
X9.8998Y-6.1502
X9.8998Y-6.2502
X9.8998Y-6.3502
X9.8998Y-6.4502
X9.8998Y-6.5502
X9.8998Y-6.6502
X9.8998Y-6.7502
X9.8998Y-6.8502
X9.8998Y-6.9502
X9.8998Y-7.0502
X10.0Y-7.5
X10.0Y-7.6
X10.0Y-7.7
X10.0Y-7.8
X10.0Y-7.9
X10.0Y-8.0
X10.0Y-8.1
X10.1Y-7.3
X10.2283Y-3.5197
X10.2283Y-3.6197
X10.2283Y-3.7197
X10.2283Y-3.8197
X10.2283Y-3.9197
X10.2283Y-4.0197
X10.2969Y-7.3
X10.3Y-7.5
X10.3Y-7.6
X10.3Y-7.7
X10.3Y-7.8
X10.3Y-7.9
X10.3Y-8.0
X10.3Y-8.1
X10.5276Y-3.5118
X10.5276Y-3.6118
X10.5276Y-3.7118
X10.5276Y-3.8118
X10.5276Y-3.9118
X10.5276Y-4.0118
X10.528Y-4.7618
X10.528Y-4.8618
X10.528Y-4.9618
X10.528Y-5.0618
X10.528Y-5.1618
X10.528Y-5.2618
X10.528Y-5.3618
X10.528Y-5.4618
X10.528Y-5.5618
X10.528Y-5.6618
X10.5469Y-6.0795
X10.5469Y-6.1795
X10.5469Y-6.2795
X10.5469Y-6.3795
X10.5469Y-6.4795
X10.5469Y-6.5795
X10.5469Y-6.6795
X10.5469Y-6.7795
X10.5469Y-6.8795
X10.5469Y-6.9795
X10.5567Y-4.6102
X10.5906Y-5.9409
X10.7535Y-4.6102
X10.7874Y-5.9409
X10.828Y-4.7618
X10.828Y-4.8618
X10.828Y-4.9618
X10.828Y-5.0618
X10.828Y-5.1618
X10.828Y-5.2618
X10.828Y-5.3618
X10.828Y-5.4618
X10.828Y-5.5618
X10.828Y-5.6618
X10.8469Y-6.0795
X10.8469Y-6.1795
X10.8469Y-6.2795
X10.8469Y-6.3795
X10.8469Y-6.4795
X10.8469Y-6.5795
X10.8469Y-6.6795
X10.8469Y-6.7795
X10.8469Y-6.8795
X10.8469Y-6.9795
X11.3037Y-6.1337
X11.3037Y-6.2337
X11.3037Y-6.3337
X11.3037Y-6.4337
X11.3037Y-6.5337
X11.3037Y-6.6337
X11.3037Y-6.7337
X11.3037Y-6.8337
X11.3037Y-6.9337
X11.3037Y-7.0337
X11.3037Y-7.1337
X11.3037Y-7.2337
X11.3037Y-7.3337
X11.3037Y-7.4337
X11.3701Y-3.7913
X11.3701Y-3.8913
X11.3701Y-3.9913
X11.3701Y-4.0913
X11.3701Y-4.1913
X11.3701Y-4.2913
X11.3701Y-4.3913
X11.3701Y-4.4913
X11.3701Y-4.5913
X11.3701Y-4.6913
X11.4281Y-3.6486
X11.5016Y-5.75
X11.625Y-3.6486
X11.6701Y-3.7913
X11.6701Y-3.8913
X11.6701Y-3.9913
X11.6701Y-4.0913
X11.6701Y-4.1913
X11.6701Y-4.2913
X11.6701Y-4.3913
X11.6701Y-4.4913
X11.6701Y-4.5913
X11.6701Y-4.6913
X11.6984Y-5.75
X11.9037Y-6.1337
X11.9037Y-6.2337
X11.9037Y-6.3337
X11.9037Y-6.4337
X11.9037Y-6.5337
X11.9037Y-6.6337
X11.9037Y-6.7337
X11.9037Y-6.8337
X11.9037Y-6.9337
X11.9037Y-7.0337
X11.9037Y-7.1337
X11.9037Y-7.2337
X11.9037Y-7.3337
X11.9037Y-7.4337
X11.9919Y-3.7953
X11.9919Y-3.8953
X11.9919Y-3.9953
X11.9919Y-4.0953
X11.9919Y-4.1953
X11.9919Y-4.2953
X11.9919Y-4.3953
X11.9919Y-4.4953
X11.9919Y-4.5953
X11.9919Y-4.6953
X12.062Y-3.6506
X12.2589Y-3.6506
X12.2919Y-3.7953
X12.2919Y-3.8953
X12.2919Y-3.9953
X12.2919Y-4.0953
X12.2919Y-4.1953
X12.2919Y-4.2953
X12.2919Y-4.3953
X12.2919Y-4.4953
X12.2919Y-4.5953
X12.2919Y-4.6953
X12.4498Y-5.9348
X12.4498Y-6.0348
X12.4498Y-6.1348
X12.4498Y-6.2348
X12.4498Y-6.3348
X12.4498Y-6.4348
X12.4498Y-6.5348
X12.4498Y-6.6348
X12.4498Y-6.7348
X12.4498Y-6.8348
X12.4498Y-6.9348
X12.4498Y-7.0348
X12.4498Y-7.1348
X12.4498Y-7.2348
X12.4498Y-7.3348
X12.4498Y-7.4348
X12.6137Y-3.7953
X12.6137Y-3.8953
X12.6137Y-3.9953
X12.6137Y-4.0953
X12.6137Y-4.1953
X12.6137Y-4.2953
X12.6137Y-4.3953
X12.6137Y-4.4953
X12.6137Y-4.5953
X12.6137Y-4.6953
X12.6447Y-5.7687
X12.689Y-3.6437
X12.8415Y-5.7687
X12.8858Y-3.6437
X12.9137Y-3.7953
X12.9137Y-3.8953
X12.9137Y-3.9953
X12.9137Y-4.0953
X12.9137Y-4.1953
X12.9137Y-4.2953
X12.9137Y-4.3953
X12.9137Y-4.4953
X12.9137Y-4.5953
X12.9137Y-4.6953
X13.0498Y-5.9348
X13.0498Y-6.0348
X13.0498Y-6.1348
X13.0498Y-6.2348
X13.0498Y-6.3348
X13.0498Y-6.4348
X13.0498Y-6.5348
X13.0498Y-6.6348
X13.0498Y-6.7348
X13.0498Y-6.8348
X13.0498Y-6.9348
X13.0498Y-7.0348
X13.0498Y-7.1348
X13.0498Y-7.2348
X13.0498Y-7.3348
X13.0498Y-7.4348
X13.2355Y-3.7953
X13.2355Y-3.8953
X13.2355Y-3.9953
X13.2355Y-4.0953
X13.2355Y-4.1953
X13.2355Y-4.2953
X13.2355Y-4.3953
X13.2355Y-4.4953
X13.2355Y-4.5953
X13.2355Y-4.6953
X13.3041Y-3.6358
X13.501Y-3.6358
X13.5355Y-3.7953
X13.5355Y-3.8953
X13.5355Y-3.9953
X13.5355Y-4.0953
X13.5355Y-4.1953
X13.5355Y-4.2953
X13.5355Y-4.3953
X13.5355Y-4.4953
X13.5355Y-4.5953
X13.5355Y-4.6953
X13.7748Y-6.0752
X13.7748Y-6.1752
X13.7748Y-6.2752
X13.7748Y-6.3752
X13.7748Y-6.4752
X13.7748Y-6.5752
X13.7748Y-6.6752
X13.7748Y-6.7752
X13.7748Y-6.8752
X13.7748Y-6.9752
X13.7748Y-7.0752
X13.7748Y-7.1752
X13.7748Y-7.2752
X13.7748Y-7.3752
X13.8573Y-3.7953
X13.8573Y-3.8953
X13.8573Y-3.9953
X13.8573Y-4.0953
X13.8573Y-4.1953
X13.8573Y-4.2953
X13.8573Y-4.3953
X13.8573Y-4.4953
X13.8573Y-4.5953
X13.8573Y-4.6953
X13.8976Y-3.6407
X13.9266Y-5.625
X13.975Y-7.9
X14.0945Y-3.6407
X14.1234Y-5.625
X14.1573Y-3.7953
X14.1573Y-3.8953
X14.1573Y-3.9953
X14.1573Y-4.0953
X14.1573Y-4.1953
X14.1573Y-4.2953
X14.1573Y-4.3953
X14.1573Y-4.4953
X14.1573Y-4.5953
X14.1573Y-4.6953
X14.1719Y-7.9
X14.3748Y-6.0752
X14.3748Y-6.1752
X14.3748Y-6.2752
X14.3748Y-6.3752
X14.3748Y-6.4752
X14.3748Y-6.5752
X14.3748Y-6.6752
X14.3748Y-6.7752
X14.3748Y-6.8752
X14.3748Y-6.9752
X14.3748Y-7.0752
X14.3748Y-7.1752
X14.3748Y-7.2752
X14.3748Y-7.3752
X14.6181Y-3.9583
X14.6181Y-4.0583
X14.6181Y-4.1583
X14.6181Y-4.2583
X14.6181Y-4.3583
X14.6181Y-4.4583
X14.6181Y-4.5583
X14.6181Y-4.6583
X14.6181Y-4.7583
X14.6181Y-4.8583
X14.9685Y-3.4646
X14.9685Y-3.5646
X14.9685Y-3.6646
X14.9685Y-3.7646
X14.9685Y-3.8646
X14.9685Y-3.9646
T7
X11.5591Y-8.063
X11.6591Y-8.063
T8
X1.4Y-7.0
X1.4Y-7.1
X1.7992Y-3.9
X1.7992Y-4.0
X1.8992Y-3.9
X1.8992Y-4.0
X2.0549Y-2.978
X2.1Y-2.9
X2.1Y-3.0559
X2.1451Y-2.978
X2.1902Y-2.9
X2.1902Y-3.0559
X2.2352Y-2.978
X2.2803Y-2.9
X2.2803Y-3.0559
X2.3254Y-2.978
X2.3705Y-2.9
X2.3705Y-3.0559
X2.4156Y-2.978
X2.4606Y-2.9
X2.4606Y-3.0559
X3.1Y-5.5
X3.1Y-5.6
X3.2Y-5.5
X3.2Y-5.6
X3.3Y-5.5
X3.3Y-5.6
X3.4Y-5.5
X3.4Y-5.6
X3.5Y-5.5
X3.5Y-5.6
X3.6Y-5.5
X3.6Y-5.6
X3.7Y-5.5
X3.7Y-5.6
X3.8Y-5.5
X3.8Y-5.6
X6.2594Y-3.9
X6.3594Y-3.9
X6.4594Y-3.9
X8.7Y-4.425
X8.7Y-4.525
X8.7Y-4.8
X8.7Y-4.9
X8.7Y-5.0
X9.025Y-4.8998
X9.025Y-4.9998
X9.7126Y-3.3921
X9.7126Y-3.4921
X9.7126Y-3.5921
X9.7126Y-3.6921
X9.8126Y-3.3921
X9.8126Y-3.4921
X9.8126Y-3.5921
X9.8126Y-3.6921
X10.7756Y-7.8858
X10.7756Y-7.9858
X10.7756Y-8.0858
X11.2Y-3.1
X11.3Y-3.1
X11.3Y-3.3
X11.3Y-3.4
X11.4Y-3.1
X11.4Y-3.3
X11.4Y-3.4
X11.425Y-5.575
X11.5Y-3.1
X11.5Y-3.3
X11.5Y-3.4
X11.525Y-5.575
X11.6Y-3.1
X11.6Y-3.3
X11.6Y-3.4
X11.625Y-5.575
X11.7Y-3.1
X11.7Y-3.3
X11.7Y-3.4
X11.976Y-3.1421
X11.976Y-3.2421
X12.076Y-3.1421
X12.076Y-3.2421
X12.176Y-3.1421
X12.176Y-3.2421
X12.276Y-3.1421
X12.276Y-3.2421
X12.376Y-3.1421
X12.376Y-3.2421
X12.476Y-3.1421
X12.476Y-3.2421
X12.576Y-3.1421
X12.576Y-3.2421
X12.6447Y-5.5719
X12.676Y-3.1421
X12.676Y-3.2421
X12.7447Y-5.5719
X12.776Y-3.1421
X12.776Y-3.2421
X12.8447Y-5.5719
X12.876Y-3.1421
X12.876Y-3.2421
X12.976Y-3.1421
X12.976Y-3.2421
X13.076Y-3.1421
X13.076Y-3.2421
X13.176Y-3.1421
X13.176Y-3.2421
X13.276Y-3.1421
X13.276Y-3.2421
X13.376Y-3.1421
X13.376Y-3.2421
X13.476Y-3.1421
X13.476Y-3.2421
X13.576Y-3.1421
X13.576Y-3.2421
X13.676Y-3.1421
X13.676Y-3.2421
X13.776Y-3.1421
X13.776Y-3.2421
X13.876Y-3.1421
X13.876Y-3.2421
X14.9409Y-4.989
X14.9409Y-5.098
X14.9409Y-5.2071
X14.9409Y-5.3161
X14.9409Y-5.4252
X14.9449Y-6.4339
X14.9449Y-6.5429
X14.9449Y-6.652
X14.9449Y-6.761
X14.9449Y-6.8701
X15.0528Y-5.0435
X15.0528Y-5.1526
X15.0528Y-5.2616
X15.0528Y-5.3707
X15.0567Y-6.4884
X15.0567Y-6.5974
X15.0567Y-6.7065
X15.0567Y-6.8156
T9
X3.2Y-2.9
X3.2Y-3.0
X3.2Y-3.1
X3.2Y-3.2
X3.2Y-3.3
X3.2Y-3.4
X3.2Y-3.5
X3.2Y-3.6
X3.2Y-3.7
X3.2Y-3.8
X3.2Y-3.9
X3.2Y-4.0
X3.2Y-4.1
X3.2Y-4.2
X3.2Y-4.3
X3.2Y-4.4
X3.2Y-4.5
X3.2Y-4.6
X3.2Y-4.7
X3.2Y-4.8
X3.45Y-4.7909
X3.55Y-4.7909
X3.65Y-4.7909
X3.9Y-2.9
X3.9Y-3.0
X3.9Y-3.1
X3.9Y-3.2
X3.9Y-3.3
X3.9Y-3.4
X3.9Y-3.5
X3.9Y-3.6
X3.9Y-3.7
X3.9Y-3.8
X3.9Y-3.9
X3.9Y-4.0
X3.9Y-4.1
X3.9Y-4.2
X3.9Y-4.3
X3.9Y-4.4
X3.9Y-4.5
X3.9Y-4.6
X3.9Y-4.7
X3.9Y-4.8
T10
X1.4Y-7.4
X1.4Y-7.5
X1.4Y-7.6
T11
X5.9545Y-3.3
T12
X1.2559Y-3.5906
X1.2638Y-4.1929
X1.3543Y-3.1969
X1.3622Y-3.7992
X1.4528Y-3.5906
X1.4606Y-4.1929
X1.8766Y-8.0197
X2.0734Y-8.0197
X4.4047Y-3.3
X4.5031Y-3.3984
X4.6016Y-2.9063
X4.7Y-3.3
X4.7Y-3.4969
X4.7984Y-2.9063
X4.8969Y-3.3984
X4.9953Y-3.3
T13
X6.7419Y-3.3
T14
X5.5213Y-2.889
X5.6Y-2.9835
X5.6Y-3.2
T15
X1.7778Y-2.9752
X2.762Y-2.9752
X14.9969Y-4.715
X14.9969Y-5.6992
X15.0008Y-6.1598
X15.0008Y-7.1441
T0
M30
