M48
; DRILL file {KiCad 7.0.1} date Sat Sep  7 11:20:45 2024
; FORMAT={-:-/ absolute / inch / decimal}
; #@! TF.CreationDate,2024-09-07T11:20:45-05:00
; #@! TF.GenerationSoftware,Kicad,Pcbnew,7.0.1
; #@! TF.FileFunction,Plated,1,2,PTH
FMAT,2
INCH
; #@! TA.AperFunction,Plated,PTH,ViaDrill
T1C0.0157
; #@! TA.AperFunction,Plated,PTH,ComponentDrill
T2C0.0197
; #@! TA.AperFunction,Plated,PTH,ComponentDrill
T3C0.0236
; #@! TA.AperFunction,Plated,PTH,ComponentDrill
T4C0.0276
; #@! TA.AperFunction,Plated,PTH,ComponentDrill
T5C0.0295
; #@! TA.AperFunction,Plated,PTH,ComponentDrill
T6C0.0315
; #@! TA.AperFunction,Plated,PTH,ComponentDrill
T7C0.0354
; #@! TA.AperFunction,Plated,PTH,ComponentDrill
T8C0.0394
; #@! TA.AperFunction,Plated,PTH,ComponentDrill
T9C0.0402
; #@! TA.AperFunction,Plated,PTH,ComponentDrill
T10C0.0433
; #@! TA.AperFunction,Plated,PTH,ComponentDrill
T11C0.0461
; #@! TA.AperFunction,Plated,PTH,ComponentDrill
T12C0.0512
; #@! TA.AperFunction,Plated,PTH,ComponentDrill
T13C0.0591
; #@! TA.AperFunction,Plated,PTH,ComponentDrill
T14C0.0787
; #@! TA.AperFunction,Plated,PTH,ComponentDrill
T15C0.1260
%
G90
G05
T1
X1.3302Y-5.8627
X1.6068Y-5.426
X1.6154Y-5.3022
X1.7451Y-6.2028
X1.7634Y-4.3967
X1.9299Y-5.3275
X1.9407Y-5.1834
X1.9501Y-6.7
X1.9801Y-5.0737
X2.0375Y-7.1691
X2.0978Y-3.1396
X2.1568Y-5.7843
X2.1758Y-6.4645
X2.1896Y-6.6502
X2.2308Y-4.6758
X2.2855Y-5.9593
X2.3405Y-6.0251
X2.3541Y-6.1807
X2.4619Y-7.167
X2.4905Y-3.2158
X2.5023Y-7.1502
X2.5197Y-3.0669
X2.5442Y-2.9964
X2.5748Y-5.5696
X2.5965Y-6.942
X2.6575Y-3.4214
X2.67Y-5.7309
X2.6721Y-5.5338
X2.6903Y-6.4305
X2.7244Y-6.5014
X3.0364Y-3.8459
X3.2592Y-5.6661
X3.3364Y-7.7653
X3.3579Y-4.4037
X3.3656Y-4.3153
X3.3737Y-3.9037
X3.3856Y-6.5763
X3.4107Y-7.2044
X3.5273Y-4.9751
X3.5355Y-6.8176
X3.5809Y-4.9407
X3.684Y-6.8465
X3.7302Y-7.4213
X3.8492Y-7.4046
X3.8908Y-5.7062
X3.9058Y-6.2503
X3.9438Y-5.6553
X3.9463Y-6.2502
X3.9562Y-7.0246
X3.9661Y-5.7061
X4.0389Y-6.3705
X4.0821Y-7.1502
X4.0931Y-6.4502
X4.1383Y-7.2502
X4.1412Y-6.5477
X4.1705Y-7.3502
X4.3038Y-6.7502
X4.3605Y-5.7379
X4.4641Y-6.7852
X4.5294Y-7.9735
X4.5574Y-6.9502
X4.6501Y-4.7582
X4.7076Y-4.8242
X4.744Y-7.0656
X4.7493Y-4.7969
X4.7932Y-4.6302
X4.8126Y-4.1418
X4.8763Y-6.9993
X4.933Y-6.3899
X4.9844Y-5.1479
X5.0567Y-6.9132
X5.0883Y-6.1065
X5.1119Y-5.2407
X5.139Y-7.1258
X5.2646Y-5.7961
X5.3073Y-5.696
X5.3763Y-5.4219
X5.4043Y-5.1892
X5.4539Y-6.1957
X5.4555Y-5.902
X5.5017Y-3.4023
X5.5702Y-5.0541
X5.5884Y-6.8528
X5.6314Y-7.2888
X5.6684Y-4.5598
X5.7078Y-4.5614
X5.7371Y-4.4032
X5.7484Y-4.186
X5.7822Y-7.8948
X5.838Y-4.1053
X5.8552Y-6.6283
X5.8749Y-4.2145
X5.8891Y-4.0636
X5.9337Y-6.1549
X5.9598Y-5.1268
X5.9897Y-5.25
X5.992Y-4.1072
X5.9954Y-7.4632
X6.0143Y-6.3959
X6.0143Y-6.501
X6.0354Y-7.3869
X6.0586Y-5.7538
X6.0697Y-6.987
X6.0721Y-7.9159
X6.0788Y-7.163
X6.0829Y-7.6702
X6.0899Y-5.9243
X6.1585Y-5.9722
X6.1585Y-6.0343
X6.1612Y-6.2999
X6.1729Y-7.1773
X6.1874Y-5.8354
X6.2203Y-7.1899
X6.2353Y-6.2913
X6.2582Y-6.9314
X6.3099Y-3.6465
X6.4512Y-4.9103
X6.4592Y-7.4698
X6.4673Y-6.2781
X6.4714Y-6.2387
X6.5507Y-6.7101
X6.5595Y-4.9032
X6.597Y-5.3896
X6.5988Y-7.2238
X6.6034Y-4.1001
X6.7104Y-7.2551
X6.729Y-7.125
X6.7292Y-6.4188
X6.7323Y-7.0846
X6.7437Y-5.5792
X6.7616Y-7.2608
X6.7634Y-5.3896
X6.7721Y-5.6094
X6.8031Y-7.9594
X6.8433Y-5.0174
X6.8465Y-4.8266
X6.8477Y-5.5489
X6.8505Y-7.0023
X6.8901Y-4.7973
X6.8917Y-5.2122
X6.8981Y-4.7128
X6.9018Y-6.7953
X6.9478Y-4.2653
X6.9591Y-3.7339
X6.9775Y-5.638
X6.98Y-4.1
X6.9935Y-5.7108
X7.0462Y-4.9533
X7.0966Y-5.8077
X7.1505Y-6.1419
X7.159Y-5.8363
X7.1714Y-5.2688
X7.1722Y-6.0099
X7.1883Y-5.868
X7.2312Y-6.5234
X7.2441Y-6.1257
X7.3153Y-3.3374
X7.3212Y-4.6975
X7.3314Y-5.6599
X7.3688Y-3.5552
X7.3891Y-5.1079
X7.4339Y-3.1559
X7.4651Y-6.356
X7.5311Y-6.7953
X7.5695Y-4.1618
X7.5821Y-5.8077
X7.728Y-7.4889
X7.7392Y-7.1457
X7.7874Y-4.0798
X7.8337Y-3.7874
X7.8646Y-5.868
X7.873Y-5.4444
X7.8947Y-5.9154
X7.9553Y-6.7496
X8.0578Y-3.6031
X8.1088Y-6.4946
X8.1517Y-3.6558
X8.264Y-4.552
X8.4306Y-4.4194
X8.4699Y-4.4279
X8.476Y-6.3242
X8.5373Y-5.7355
X8.5559Y-7.0441
X8.5688Y-6.705
X8.5821Y-5.1077
X8.6337Y-3.2374
X8.7021Y-4.1728
X8.7707Y-4.6103
X8.8052Y-3.7355
X8.818Y-4.494
X8.8365Y-4.5704
X8.8472Y-5.3881
X8.9286Y-6.7051
X8.9651Y-6.1243
X8.9674Y-6.2044
X8.9861Y-4.3292
X8.9884Y-5.1317
X9.0852Y-7.0496
X9.0857Y-7.8411
X9.1162Y-5.1472
X9.1183Y-4.5699
X9.1423Y-4.0126
X9.1483Y-5.5203
X9.1999Y-4.1108
X9.2181Y-7.0691
X9.2194Y-6.8933
X9.2552Y-7.5335
X9.3599Y-5.0571
X9.3629Y-6.6821
X9.3707Y-7.0059
X9.4225Y-5.7871
X9.4997Y-5.1319
X9.5394Y-5.0124
X9.5649Y-7.2542
X9.578Y-6.4041
X9.5798Y-5.8236
X9.5826Y-6.497
X9.6576Y-6.3548
X9.7276Y-5.1504
X9.7449Y-7.2379
X9.7652Y-4.4763
X9.8045Y-6.1652
X9.8062Y-7.0026
X9.8108Y-6.3403
X9.815Y-3.8954
X9.8282Y-6.095
X9.8473Y-6.2059
X9.8477Y-6.4041
X9.868Y-7.6495
X9.8718Y-7.9276
X9.9501Y-7.161
X10.0131Y-6.1456
X10.0444Y-6.8492
X10.1158Y-7.1801
X10.1473Y-6.6048
X10.1501Y-6.7208
X10.1501Y-5.5229
X10.2256Y-5.3137
X10.2334Y-7.1037
X10.2741Y-5.7898
X10.2797Y-5.5067
X10.2911Y-5.9856
X10.4006Y-7.1168
X10.4208Y-4.4374
X10.4463Y-4.9578
X10.5906Y-5.7598
X10.635Y-5.7706
X10.6603Y-4.7349
X10.6688Y-4.3408
X10.6866Y-6.9346
X10.6971Y-3.6559
X10.7069Y-3.7022
X10.7399Y-7.0809
X10.7515Y-3.7178
X10.807Y-7.2245
X10.8239Y-3.0558
X10.8356Y-7.0541
X10.8415Y-4.1693
X10.8456Y-3.8126
X10.9048Y-6.9169
X10.9175Y-5.8421
X10.9596Y-5.149
X10.9707Y-5.4009
X10.9711Y-6.8358
X10.9719Y-6.764
X11.0049Y-6.8893
X11.0078Y-2.9121
X11.0492Y-3.6986
X11.0569Y-3.3095
X11.0637Y-2.9048
X11.07Y-5.4919
X11.086Y-6.1656
X11.0867Y-6.6569
X11.0896Y-6.7154
X11.0903Y-6.3304
X11.114Y-6.5961
X11.1164Y-5.1322
X11.1339Y-2.8239
X11.15Y-2.884
X11.1565Y-5.8644
X11.1618Y-5.1291
X11.19Y-6.2314
X11.2123Y-6.6238
X11.2177Y-3.7962
X11.2589Y-6.0083
X11.307Y-3.5591
X11.3348Y-4.8063
X11.3464Y-3.6019
X11.391Y-3.5608
X11.4602Y-4.0401
X11.537Y-4.2913
X11.5516Y-4.4642
X11.6091Y-6.8043
X11.7891Y-6.8446
X11.7926Y-4.8454
X11.8071Y-6.6281
X11.8299Y-6.2414
X11.9801Y-4.8628
X12.0066Y-3.5881
X12.0096Y-4.8904
X12.0562Y-4.6405
X12.243Y-5.2565
X12.3181Y-2.9056
X12.3924Y-4.7742
X12.7488Y-6.0892
X12.8735Y-4.8812
X12.887Y-3.532
X13.1026Y-4.55
X13.1386Y-4.4953
X13.2923Y-5.2773
X13.3127Y-4.351
X13.3275Y-3.4736
X13.3377Y-5.324
X13.4035Y-5.3618
X13.5989Y-3.1026
X13.6101Y-3.2394
X13.6385Y-3.292
X13.6566Y-5.0289
X13.7061Y-4.0247
X13.7478Y-3.9117
X13.7596Y-4.5769
X13.7598Y-8.1375
X13.7727Y-7.6447
X13.8586Y-3.2443
X13.8676Y-7.0115
X13.9053Y-3.1998
X13.9326Y-3.1714
X13.9375Y-3.231
X14.0Y-3.1607
X14.0319Y-3.3211
X14.0628Y-3.263
X14.2804Y-3.8195
X14.438Y-3.4068
X14.7516Y-4.9507
X14.7568Y-4.7242
T2
X7.8331Y-4.5
X7.9Y-4.5
T3
X2.1Y-6.9
X2.1787Y-6.9
X5.7Y-3.8
X5.7787Y-3.8
X6.4173Y-7.0433
X6.4173Y-7.3386
X6.4213Y-7.6457
X6.4213Y-7.9134
X6.4213Y-8.1693
X6.4961Y-7.0433
X6.4961Y-7.3386
X6.5Y-7.6457
X6.5Y-7.9134
X6.5Y-8.1693
X8.2Y-4.5
X8.2787Y-4.5
X11.4Y-5.2
X11.4787Y-5.2
T4
X1.2717Y-5.0787
X1.2717Y-5.2787
X1.2722Y-5.3793
X1.2722Y-5.5793
X1.2795Y-5.7047
X1.2795Y-5.9047
X1.4Y-6.7
X1.6Y-6.7
X1.7Y-3.3
X1.7Y-3.5
X1.7Y-3.7
X1.9Y-3.3
X1.9Y-3.5
X1.9Y-3.7
X2.1Y-3.7
X2.3Y-3.7
X2.5Y-3.3878
X2.5Y-3.5118
X2.5Y-3.6358
X2.5Y-3.7598
X2.5Y-3.8839
X2.5Y-4.0079
X2.5Y-4.1319
X2.5Y-4.2559
X2.5Y-4.3799
X2.5Y-4.5039
X2.5Y-4.628
X2.5Y-4.752
X2.5Y-4.876
X2.5Y-5.0
X2.7Y-3.3878
X2.7Y-3.5118
X2.7Y-3.6358
X2.7Y-3.7598
X2.7Y-3.8839
X2.7Y-4.0079
X2.7Y-4.1319
X2.7Y-4.2559
X2.7Y-4.3799
X2.7Y-4.5039
X2.7Y-4.628
X2.7Y-4.752
X2.7Y-4.876
X2.7Y-5.0
X6.9Y-6.925
X6.9Y-7.125
X7.075Y-6.925
X7.075Y-7.125
X7.275Y-6.925
X7.275Y-7.125
X7.925Y-5.352
X7.925Y-5.476
X7.925Y-5.6
X8.125Y-5.352
X8.125Y-5.476
X8.125Y-5.6
X11.825Y-8.075
X12.025Y-8.075
T5
X1.6Y-7.1
X1.65Y-7.05
X1.7Y-7.1
T6
X1.2598Y-4.4803
X1.2598Y-4.6772
X1.5083Y-4.4343
X1.5083Y-4.5343
X1.5083Y-4.6343
X1.5083Y-4.7343
X1.5083Y-4.8343
X1.5083Y-4.9343
X1.5083Y-5.0343
X1.5083Y-5.1343
X1.5083Y-5.2343
X1.5083Y-5.3343
X1.5083Y-5.4343
X1.5083Y-5.5343
X1.5083Y-5.6343
X1.5083Y-5.7343
X1.5083Y-5.8343
X1.5083Y-5.9343
X1.5083Y-6.0343
X1.5083Y-6.1343
X1.5083Y-6.2343
X1.5083Y-6.3343
X1.689Y-4.2598
X1.7087Y-6.5157
X1.8858Y-4.2598
X1.9055Y-6.5157
X2.1Y-3.5
X2.1083Y-4.4343
X2.1083Y-4.5343
X2.1083Y-4.6343
X2.1083Y-4.7343
X2.1083Y-4.8343
X2.1083Y-4.9343
X2.1083Y-5.0343
X2.1083Y-5.1343
X2.1083Y-5.2343
X2.1083Y-5.3343
X2.1083Y-5.4343
X2.1083Y-5.5343
X2.1083Y-5.6343
X2.1083Y-5.7343
X2.1083Y-5.8343
X2.1083Y-5.9343
X2.1083Y-6.0343
X2.1083Y-6.1343
X2.1083Y-6.2343
X2.1083Y-6.3343
X2.2969Y-3.5
X2.4004Y-6.8002
X2.4004Y-6.9002
X2.4004Y-7.0002
X2.4004Y-7.1002
X2.4004Y-7.2002
X2.4004Y-7.3002
X2.4004Y-7.4002
X2.4004Y-7.5002
X2.4004Y-7.6002
X2.4004Y-7.7002
X2.4031Y-6.5
X2.4504Y-5.3752
X2.4504Y-5.4752
X2.4504Y-5.5752
X2.4504Y-5.6752
X2.4504Y-5.7752
X2.4504Y-5.8752
X2.4504Y-5.9752
X2.4504Y-6.0752
X2.4504Y-6.1752
X2.4504Y-6.2752
X2.6Y-6.5
X2.7004Y-6.8002
X2.7004Y-6.9002
X2.7004Y-7.0002
X2.7004Y-7.1002
X2.7004Y-7.2002
X2.7004Y-7.3002
X2.7004Y-7.4002
X2.7004Y-7.5002
X2.7004Y-7.6002
X2.7004Y-7.7002
X2.7504Y-5.3752
X2.7504Y-5.4752
X2.7504Y-5.5752
X2.7504Y-5.6752
X2.7504Y-5.7752
X2.7504Y-5.8752
X2.7504Y-5.9752
X2.7504Y-6.0752
X2.7504Y-6.1752
X2.7504Y-6.2752
X3.15Y-5.2
X3.2Y-6.1502
X3.2Y-6.2502
X3.2Y-6.3502
X3.2Y-6.4502
X3.2Y-6.5502
X3.2Y-6.6502
X3.2Y-6.7502
X3.2Y-6.8502
X3.2Y-6.9502
X3.2Y-7.0502
X3.2Y-7.1502
X3.2Y-7.2502
X3.2Y-7.3502
X3.2Y-7.4502
X3.2Y-7.5502
X3.2Y-7.6502
X3.2Y-7.7502
X3.2Y-7.8502
X3.2Y-7.9502
X3.2Y-8.0502
X3.2016Y-5.95
X3.25Y-5.2
X3.35Y-5.2
X3.3984Y-5.95
X3.45Y-5.2
X3.55Y-5.2
X3.65Y-5.2
X3.8Y-6.1502
X3.8Y-6.2502
X3.8Y-6.3502
X3.8Y-6.4502
X3.8Y-6.5502
X3.8Y-6.6502
X3.8Y-6.7502
X3.8Y-6.8502
X3.8Y-6.9502
X3.8Y-7.0502
X3.8Y-7.1502
X3.8Y-7.2502
X3.8Y-7.3502
X3.8Y-7.4502
X3.8Y-7.5502
X3.8Y-7.6502
X3.8Y-7.7502
X3.8Y-7.8502
X3.8Y-7.9502
X3.8Y-8.0502
X4.3266Y-5.975
X4.4Y-6.1502
X4.4Y-6.2502
X4.4Y-6.3502
X4.4Y-6.4502
X4.4Y-6.5502
X4.4Y-6.6502
X4.4Y-6.7502
X4.4Y-6.8502
X4.4Y-6.9502
X4.4Y-7.0502
X4.4Y-7.1502
X4.4Y-7.2502
X4.4Y-7.3502
X4.4Y-7.4502
X4.4Y-7.5502
X4.4Y-7.6502
X4.4Y-7.7502
X4.4Y-7.8502
X4.4Y-7.9502
X4.4Y-8.0502
X4.5234Y-5.975
X4.6002Y-4.9
X4.6002Y-5.0
X4.6002Y-5.1
X4.6002Y-5.2
X4.6002Y-5.3
X4.6002Y-5.4
X4.6002Y-5.5
X4.6002Y-5.6
X4.6002Y-5.7
X4.6002Y-5.8
X4.6516Y-4.625
X4.8484Y-4.625
X4.9002Y-4.9
X4.9002Y-5.0
X4.9002Y-5.1
X4.9002Y-5.2
X4.9002Y-5.3
X4.9002Y-5.4
X4.9002Y-5.5
X4.9002Y-5.6
X4.9002Y-5.7
X4.9002Y-5.8
X5.0Y-6.1502
X5.0Y-6.2502
X5.0Y-6.3502
X5.0Y-6.4502
X5.0Y-6.5502
X5.0Y-6.6502
X5.0Y-6.7502
X5.0Y-6.8502
X5.0Y-6.9502
X5.0Y-7.0502
X5.0Y-7.1502
X5.0Y-7.2502
X5.0Y-7.3502
X5.0Y-7.4502
X5.0Y-7.5502
X5.0Y-7.6502
X5.0Y-7.7502
X5.0Y-7.8502
X5.0Y-7.9502
X5.0Y-8.0502
X5.1754Y-4.9002
X5.1754Y-5.0002
X5.1754Y-5.1002
X5.1754Y-5.2002
X5.1754Y-5.3002
X5.1754Y-5.4002
X5.1754Y-5.5002
X5.1754Y-5.6002
X5.1754Y-5.7002
X5.1754Y-5.8002
X5.2266Y-4.725
X5.4Y-3.6
X5.4234Y-4.725
X5.4754Y-4.9002
X5.4754Y-5.0002
X5.4754Y-5.1002
X5.4754Y-5.2002
X5.4754Y-5.3002
X5.4754Y-5.4002
X5.4754Y-5.5002
X5.4754Y-5.6002
X5.4754Y-5.7002
X5.4754Y-5.8002
X5.5969Y-3.6
X5.7323Y-5.0
X5.7323Y-5.1
X5.7323Y-5.2
X5.7323Y-5.3
X5.7323Y-5.4
X5.7323Y-5.5
X5.7323Y-5.6
X5.7323Y-5.7
X5.7323Y-5.8
X5.7323Y-5.9
X5.7323Y-6.0
X5.7323Y-6.1
X5.7323Y-6.2
X5.7323Y-6.3
X5.7323Y-6.4
X5.7323Y-6.5
X5.7323Y-6.6
X5.7323Y-6.7
X5.7323Y-6.8
X5.7323Y-6.9
X5.8618Y-7.389
X5.8618Y-7.489
X5.8618Y-7.589
X5.8618Y-7.689
X5.8618Y-7.789
X5.8618Y-7.889
X5.8618Y-7.989
X5.8618Y-8.089
X5.8661Y-4.3063
X5.8661Y-4.3063
X5.8661Y-4.6063
X5.8661Y-4.6063
X5.9173Y-4.14
X5.9173Y-4.8146
X5.9291Y-7.2175
X6.1142Y-4.14
X6.1142Y-4.8146
X6.126Y-7.2175
X6.1618Y-7.389
X6.1618Y-7.489
X6.1618Y-7.589
X6.1618Y-7.689
X6.1618Y-7.789
X6.1618Y-7.889
X6.1618Y-7.989
X6.1618Y-8.089
X6.1661Y-4.3063
X6.1661Y-4.6063
X6.3323Y-5.0
X6.3323Y-5.1
X6.3323Y-5.2
X6.3323Y-5.3
X6.3323Y-5.4
X6.3323Y-5.5
X6.3323Y-5.6
X6.3323Y-5.7
X6.3323Y-5.8
X6.3323Y-5.9
X6.3323Y-6.0
X6.3323Y-6.1
X6.3323Y-6.2
X6.3323Y-6.3
X6.3323Y-6.4
X6.3323Y-6.5
X6.3323Y-6.6
X6.3323Y-6.7
X6.3323Y-6.8
X6.3323Y-6.9
X6.4661Y-4.3063
X6.4661Y-4.6063
X6.5631Y-5.5
X6.64Y-5.76
X6.64Y-5.86
X6.64Y-5.96
X6.64Y-6.06
X6.64Y-6.16
X6.64Y-6.26
X6.64Y-6.36
X6.64Y-6.46
X6.64Y-6.56
X6.64Y-6.66
X6.76Y-5.5
X6.9266Y-5.125
X6.9266Y-5.425
X6.94Y-5.76
X6.94Y-5.86
X6.94Y-5.96
X6.94Y-6.06
X6.94Y-6.16
X6.94Y-6.26
X6.94Y-6.36
X6.94Y-6.46
X6.94Y-6.56
X6.94Y-6.66
X7.0Y-3.0748
X7.0315Y-7.4866
X7.0315Y-7.5866
X7.0315Y-7.6866
X7.0315Y-7.7866
X7.0315Y-7.8866
X7.0315Y-7.9866
X7.0315Y-8.0866
X7.0791Y-7.352
X7.1234Y-5.125
X7.1234Y-5.425
X7.1969Y-3.0748
X7.276Y-7.352
X7.3Y-4.8
X7.3Y-4.9
X7.3Y-5.0
X7.3Y-5.1
X7.3Y-5.2
X7.3Y-5.3
X7.3Y-5.4
X7.3Y-5.5
X7.3Y-5.6
X7.3315Y-7.4866
X7.3315Y-7.5866
X7.3315Y-7.6866
X7.3315Y-7.7866
X7.3315Y-7.8866
X7.3315Y-7.9866
X7.3315Y-8.0866
X7.3504Y-6.0496
X7.3504Y-6.1496
X7.3504Y-6.2496
X7.3504Y-6.3496
X7.3504Y-6.4496
X7.3504Y-6.5496
X7.3504Y-6.6496
X7.3504Y-6.7496
X7.4Y-4.6
X7.5969Y-4.6
X7.6Y-4.8
X7.6Y-4.9
X7.6Y-5.0
X7.6Y-5.1
X7.6Y-5.2
X7.6Y-5.3
X7.6Y-5.4
X7.6Y-5.5
X7.6Y-5.6
X7.6Y-7.4803
X7.6Y-7.5803
X7.6Y-7.6803
X7.6Y-7.7803
X7.6Y-7.8803
X7.6Y-7.9803
X7.6Y-8.0803
X7.6303Y-7.3283
X7.6504Y-6.0496
X7.6504Y-6.1496
X7.6504Y-6.2496
X7.6504Y-6.3496
X7.6504Y-6.4496
X7.6504Y-6.5496
X7.6504Y-6.6496
X7.6504Y-6.7496
X7.6598Y-3.1874
X7.6598Y-3.2874
X7.6598Y-3.3874
X7.6598Y-3.4874
X7.6598Y-3.5874
X7.6598Y-3.6874
X7.6598Y-3.7874
X7.6598Y-3.8874
X7.6598Y-3.9874
X7.6598Y-4.0874
X7.7031Y-3.0709
X7.8272Y-7.3283
X7.9Y-3.0709
X7.9Y-7.4803
X7.9Y-7.5803
X7.9Y-7.6803
X7.9Y-7.7803
X7.9Y-7.8803
X7.9Y-7.9803
X7.9Y-8.0803
X7.9598Y-3.1874
X7.9598Y-3.2874
X7.9598Y-3.3874
X7.9598Y-3.4874
X7.9598Y-3.5874
X7.9598Y-3.6874
X7.9598Y-3.7874
X7.9598Y-3.8874
X7.9598Y-3.9874
X7.9598Y-4.0874
X8.1Y-4.8
X8.1Y-4.9
X8.1Y-5.0
X8.1Y-5.1
X8.2429Y-7.4724
X8.2429Y-7.5724
X8.2429Y-7.6724
X8.2429Y-7.7724
X8.2429Y-7.8724
X8.2429Y-7.9724
X8.2429Y-8.0724
X8.2858Y-3.1874
X8.2858Y-3.2874
X8.2858Y-3.3874
X8.2858Y-3.4874
X8.2858Y-3.5874
X8.2858Y-3.6874
X8.2858Y-3.7874
X8.2858Y-3.8874
X8.2858Y-3.9874
X8.2858Y-4.0874
X8.2878Y-7.3244
X8.3331Y-3.0709
X8.38Y-5.88
X8.38Y-5.98
X8.38Y-6.08
X8.38Y-6.18
X8.38Y-6.28
X8.38Y-6.38
X8.38Y-6.48
X8.38Y-6.58
X8.38Y-6.68
X8.38Y-6.78
X8.38Y-6.88
X8.38Y-6.98
X8.4Y-4.8
X8.4Y-4.9
X8.4Y-5.0
X8.4Y-5.1
X8.4846Y-7.3244
X8.5299Y-3.0709
X8.5429Y-7.4724
X8.5429Y-7.5724
X8.5429Y-7.6724
X8.5429Y-7.7724
X8.5429Y-7.8724
X8.5429Y-7.9724
X8.5429Y-8.0724
X8.5858Y-3.1874
X8.5858Y-3.2874
X8.5858Y-3.3874
X8.5858Y-3.4874
X8.5858Y-3.5874
X8.5858Y-3.6874
X8.5858Y-3.7874
X8.5858Y-3.8874
X8.5858Y-3.9874
X8.5858Y-4.0874
X8.68Y-5.88
X8.68Y-5.98
X8.68Y-6.08
X8.68Y-6.18
X8.68Y-6.28
X8.68Y-6.38
X8.68Y-6.48
X8.68Y-6.58
X8.68Y-6.68
X8.68Y-6.78
X8.68Y-6.88
X8.68Y-6.98
X8.6816Y-5.7
X8.8784Y-5.7
X8.9563Y-7.9681
X8.9563Y-8.165
X9.2998Y-5.1502
X9.2998Y-5.2502
X9.2998Y-5.3502
X9.2998Y-5.4502
X9.2998Y-5.5502
X9.2998Y-5.6502
X9.2998Y-5.7502
X9.2998Y-5.8502
X9.2998Y-5.9502
X9.2998Y-6.0502
X9.2998Y-6.1502
X9.2998Y-6.2502
X9.2998Y-6.3502
X9.2998Y-6.4502
X9.2998Y-6.5502
X9.2998Y-6.6502
X9.2998Y-6.7502
X9.2998Y-6.8502
X9.2998Y-6.9502
X9.2998Y-7.0502
X9.4094Y-4.3063
X9.4094Y-4.3063
X9.4094Y-4.6063
X9.4094Y-4.6063
X9.4528Y-4.9409
X9.4606Y-4.0984
X9.6496Y-4.9409
X9.6575Y-4.0984
X9.7094Y-4.3063
X9.7094Y-4.6063
X9.8998Y-5.1502
X9.8998Y-5.2502
X9.8998Y-5.3502
X9.8998Y-5.4502
X9.8998Y-5.5502
X9.8998Y-5.6502
X9.8998Y-5.7502
X9.8998Y-5.8502
X9.8998Y-5.9502
X9.8998Y-6.0502
X9.8998Y-6.1502
X9.8998Y-6.2502
X9.8998Y-6.3502
X9.8998Y-6.4502
X9.8998Y-6.5502
X9.8998Y-6.6502
X9.8998Y-6.7502
X9.8998Y-6.8502
X9.8998Y-6.9502
X9.8998Y-7.0502
X10.0Y-7.5
X10.0Y-7.6
X10.0Y-7.7
X10.0Y-7.8
X10.0Y-7.9
X10.0Y-8.0
X10.0Y-8.1
X10.0094Y-4.3063
X10.0094Y-4.6063
X10.1Y-7.3
X10.2283Y-3.5197
X10.2283Y-3.6197
X10.2283Y-3.7197
X10.2283Y-3.8197
X10.2283Y-3.9197
X10.2283Y-4.0197
X10.2969Y-7.3
X10.3Y-7.5
X10.3Y-7.6
X10.3Y-7.7
X10.3Y-7.8
X10.3Y-7.9
X10.3Y-8.0
X10.3Y-8.1
X10.5276Y-3.5118
X10.5276Y-3.6118
X10.5276Y-3.7118
X10.5276Y-3.8118
X10.5276Y-3.9118
X10.5276Y-4.0118
X10.528Y-4.7618
X10.528Y-4.8618
X10.528Y-4.9618
X10.528Y-5.0618
X10.528Y-5.1618
X10.528Y-5.2618
X10.528Y-5.3618
X10.528Y-5.4618
X10.528Y-5.5618
X10.528Y-5.6618
X10.5469Y-6.0795
X10.5469Y-6.1795
X10.5469Y-6.2795
X10.5469Y-6.3795
X10.5469Y-6.4795
X10.5469Y-6.5795
X10.5469Y-6.6795
X10.5469Y-6.7795
X10.5469Y-6.8795
X10.5469Y-6.9795
X10.5567Y-4.6102
X10.5906Y-5.9409
X10.7535Y-4.6102
X10.7874Y-5.9409
X10.828Y-4.7618
X10.828Y-4.8618
X10.828Y-4.9618
X10.828Y-5.0618
X10.828Y-5.1618
X10.828Y-5.2618
X10.828Y-5.3618
X10.828Y-5.4618
X10.828Y-5.5618
X10.828Y-5.6618
X10.8469Y-6.0795
X10.8469Y-6.1795
X10.8469Y-6.2795
X10.8469Y-6.3795
X10.8469Y-6.4795
X10.8469Y-6.5795
X10.8469Y-6.6795
X10.8469Y-6.7795
X10.8469Y-6.8795
X10.8469Y-6.9795
X11.3037Y-6.1337
X11.3037Y-6.2337
X11.3037Y-6.3337
X11.3037Y-6.4337
X11.3037Y-6.5337
X11.3037Y-6.6337
X11.3037Y-6.7337
X11.3037Y-6.8337
X11.3037Y-6.9337
X11.3037Y-7.0337
X11.3037Y-7.1337
X11.3037Y-7.2337
X11.3037Y-7.3337
X11.3037Y-7.4337
X11.3701Y-3.7913
X11.3701Y-3.8913
X11.3701Y-3.9913
X11.3701Y-4.0913
X11.3701Y-4.1913
X11.3701Y-4.2913
X11.3701Y-4.3913
X11.3701Y-4.4913
X11.3701Y-4.5913
X11.3701Y-4.6913
X11.4281Y-3.6486
X11.5016Y-5.75
X11.625Y-3.6486
X11.6701Y-3.7913
X11.6701Y-3.8913
X11.6701Y-3.9913
X11.6701Y-4.0913
X11.6701Y-4.1913
X11.6701Y-4.2913
X11.6701Y-4.3913
X11.6701Y-4.4913
X11.6701Y-4.5913
X11.6701Y-4.6913
X11.6984Y-5.75
X11.9037Y-6.1337
X11.9037Y-6.2337
X11.9037Y-6.3337
X11.9037Y-6.4337
X11.9037Y-6.5337
X11.9037Y-6.6337
X11.9037Y-6.7337
X11.9037Y-6.8337
X11.9037Y-6.9337
X11.9037Y-7.0337
X11.9037Y-7.1337
X11.9037Y-7.2337
X11.9037Y-7.3337
X11.9037Y-7.4337
X11.9919Y-3.7953
X11.9919Y-3.8953
X11.9919Y-3.9953
X11.9919Y-4.0953
X11.9919Y-4.1953
X11.9919Y-4.2953
X11.9919Y-4.3953
X11.9919Y-4.4953
X11.9919Y-4.5953
X11.9919Y-4.6953
X12.062Y-3.6506
X12.2589Y-3.6506
X12.2919Y-3.7953
X12.2919Y-3.8953
X12.2919Y-3.9953
X12.2919Y-4.0953
X12.2919Y-4.1953
X12.2919Y-4.2953
X12.2919Y-4.3953
X12.2919Y-4.4953
X12.2919Y-4.5953
X12.2919Y-4.6953
X12.4498Y-5.9348
X12.4498Y-6.0348
X12.4498Y-6.1348
X12.4498Y-6.2348
X12.4498Y-6.3348
X12.4498Y-6.4348
X12.4498Y-6.5348
X12.4498Y-6.6348
X12.4498Y-6.7348
X12.4498Y-6.8348
X12.4498Y-6.9348
X12.4498Y-7.0348
X12.4498Y-7.1348
X12.4498Y-7.2348
X12.4498Y-7.3348
X12.4498Y-7.4348
X12.6137Y-3.7953
X12.6137Y-3.8953
X12.6137Y-3.9953
X12.6137Y-4.0953
X12.6137Y-4.1953
X12.6137Y-4.2953
X12.6137Y-4.3953
X12.6137Y-4.4953
X12.6137Y-4.5953
X12.6137Y-4.6953
X12.6447Y-5.7687
X12.689Y-3.6437
X12.8415Y-5.7687
X12.8858Y-3.6437
X12.9137Y-3.7953
X12.9137Y-3.8953
X12.9137Y-3.9953
X12.9137Y-4.0953
X12.9137Y-4.1953
X12.9137Y-4.2953
X12.9137Y-4.3953
X12.9137Y-4.4953
X12.9137Y-4.5953
X12.9137Y-4.6953
X13.0498Y-5.9348
X13.0498Y-6.0348
X13.0498Y-6.1348
X13.0498Y-6.2348
X13.0498Y-6.3348
X13.0498Y-6.4348
X13.0498Y-6.5348
X13.0498Y-6.6348
X13.0498Y-6.7348
X13.0498Y-6.8348
X13.0498Y-6.9348
X13.0498Y-7.0348
X13.0498Y-7.1348
X13.0498Y-7.2348
X13.0498Y-7.3348
X13.0498Y-7.4348
X13.2355Y-3.7953
X13.2355Y-3.8953
X13.2355Y-3.9953
X13.2355Y-4.0953
X13.2355Y-4.1953
X13.2355Y-4.2953
X13.2355Y-4.3953
X13.2355Y-4.4953
X13.2355Y-4.5953
X13.2355Y-4.6953
X13.3041Y-3.6358
X13.501Y-3.6358
X13.5355Y-3.7953
X13.5355Y-3.8953
X13.5355Y-3.9953
X13.5355Y-4.0953
X13.5355Y-4.1953
X13.5355Y-4.2953
X13.5355Y-4.3953
X13.5355Y-4.4953
X13.5355Y-4.5953
X13.5355Y-4.6953
X13.7748Y-6.0752
X13.7748Y-6.1752
X13.7748Y-6.2752
X13.7748Y-6.3752
X13.7748Y-6.4752
X13.7748Y-6.5752
X13.7748Y-6.6752
X13.7748Y-6.7752
X13.7748Y-6.8752
X13.7748Y-6.9752
X13.7748Y-7.0752
X13.7748Y-7.1752
X13.7748Y-7.2752
X13.7748Y-7.3752
X13.8573Y-3.7953
X13.8573Y-3.8953
X13.8573Y-3.9953
X13.8573Y-4.0953
X13.8573Y-4.1953
X13.8573Y-4.2953
X13.8573Y-4.3953
X13.8573Y-4.4953
X13.8573Y-4.5953
X13.8573Y-4.6953
X13.8976Y-3.6407
X13.9266Y-5.625
X14.0945Y-3.6407
X14.1234Y-5.625
X14.1573Y-3.7953
X14.1573Y-3.8953
X14.1573Y-3.9953
X14.1573Y-4.0953
X14.1573Y-4.1953
X14.1573Y-4.2953
X14.1573Y-4.3953
X14.1573Y-4.4953
X14.1573Y-4.5953
X14.1573Y-4.6953
X14.3748Y-6.0752
X14.3748Y-6.1752
X14.3748Y-6.2752
X14.3748Y-6.3752
X14.3748Y-6.4752
X14.3748Y-6.5752
X14.3748Y-6.6752
X14.3748Y-6.7752
X14.3748Y-6.8752
X14.3748Y-6.9752
X14.3748Y-7.0752
X14.3748Y-7.1752
X14.3748Y-7.2752
X14.3748Y-7.3752
X14.6181Y-3.9583
X14.6181Y-4.0583
X14.6181Y-4.1583
X14.6181Y-4.2583
X14.6181Y-4.3583
X14.6181Y-4.4583
X14.6181Y-4.5583
X14.6181Y-4.6583
X14.6181Y-4.7583
X14.6181Y-4.8583
X14.9685Y-3.4646
X14.9685Y-3.5646
X14.9685Y-3.6646
X14.9685Y-3.7646
X14.9685Y-3.8646
X14.9685Y-3.9646
T7
X11.5591Y-8.063
X11.6591Y-8.063
T8
X1.4Y-7.0
X1.4Y-7.1
X1.7992Y-3.9
X1.7992Y-4.0
X1.8992Y-3.9
X1.8992Y-4.0
X2.0549Y-2.978
X2.1Y-2.9
X2.1Y-3.0559
X2.1451Y-2.978
X2.1902Y-2.9
X2.1902Y-3.0559
X2.2352Y-2.978
X2.2803Y-2.9
X2.2803Y-3.0559
X2.3254Y-2.978
X2.3705Y-2.9
X2.3705Y-3.0559
X2.4156Y-2.978
X2.4606Y-2.9
X2.4606Y-3.0559
X3.32Y-5.48
X3.32Y-5.58
X3.42Y-5.48
X3.42Y-5.58
X3.52Y-5.48
X3.52Y-5.58
X3.62Y-5.48
X3.62Y-5.58
X3.72Y-5.48
X3.72Y-5.58
X3.82Y-5.48
X3.82Y-5.58
X3.92Y-5.48
X3.92Y-5.58
X4.02Y-5.48
X4.02Y-5.58
X8.7Y-4.425
X8.7Y-4.525
X8.7Y-4.8
X8.7Y-4.9
X8.7Y-5.0
X9.025Y-4.8998
X9.025Y-4.9998
X9.7126Y-3.3921
X9.7126Y-3.4921
X9.7126Y-3.5921
X9.7126Y-3.6921
X9.8126Y-3.3921
X9.8126Y-3.4921
X9.8126Y-3.5921
X9.8126Y-3.6921
X10.7756Y-7.8858
X10.7756Y-7.9858
X10.7756Y-8.0858
X11.2Y-3.1
X11.3Y-3.1
X11.3Y-3.3
X11.3Y-3.4
X11.4Y-3.1
X11.4Y-3.3
X11.4Y-3.4
X11.425Y-5.575
X11.5Y-3.1
X11.5Y-3.3
X11.5Y-3.4
X11.525Y-5.575
X11.6Y-3.1
X11.6Y-3.3
X11.6Y-3.4
X11.625Y-5.575
X11.7Y-3.1
X11.7Y-3.3
X11.7Y-3.4
X12.46Y-2.96
X12.46Y-3.06
X12.56Y-2.96
X12.56Y-3.06
X12.6447Y-5.5719
X12.66Y-2.96
X12.66Y-3.06
X12.7447Y-5.5719
X12.76Y-2.96
X12.76Y-3.06
X12.8447Y-5.5719
X12.86Y-2.96
X12.86Y-3.06
X12.96Y-2.96
X12.96Y-3.06
X13.06Y-2.96
X13.06Y-3.06
X13.16Y-2.96
X13.16Y-3.06
X13.26Y-2.96
X13.26Y-3.06
X13.36Y-2.96
X13.36Y-3.06
X13.46Y-2.96
X13.46Y-3.06
X13.56Y-2.96
X13.56Y-3.06
X13.66Y-2.96
X13.66Y-3.06
X13.76Y-2.96
X13.76Y-3.06
X13.86Y-2.96
X13.86Y-3.06
X13.96Y-2.96
X13.96Y-3.06
X14.06Y-2.96
X14.06Y-3.06
X14.16Y-2.96
X14.16Y-3.06
X14.26Y-2.96
X14.26Y-3.06
X14.36Y-2.96
X14.36Y-3.06
X14.9409Y-4.989
X14.9409Y-5.098
X14.9409Y-5.2071
X14.9409Y-5.3161
X14.9409Y-5.4252
X14.9449Y-6.4339
X14.9449Y-6.5429
X14.9449Y-6.652
X14.9449Y-6.761
X14.9449Y-6.8701
X15.0528Y-5.0435
X15.0528Y-5.1526
X15.0528Y-5.2616
X15.0528Y-5.3707
X15.0567Y-6.4884
X15.0567Y-6.5974
X15.0567Y-6.7065
X15.0567Y-6.8156
T9
X3.2Y-2.9
X3.2Y-3.0
X3.2Y-3.1
X3.2Y-3.2
X3.2Y-3.3
X3.2Y-3.4
X3.2Y-3.5
X3.2Y-3.6
X3.2Y-3.7
X3.2Y-3.8
X3.2Y-3.9
X3.2Y-4.0
X3.2Y-4.1
X3.2Y-4.2
X3.2Y-4.3
X3.2Y-4.4
X3.2Y-4.5
X3.2Y-4.6
X3.2Y-4.7
X3.2Y-4.8
X3.45Y-4.7909
X3.55Y-4.7909
X3.65Y-4.7909
X3.9Y-2.9
X3.9Y-3.0
X3.9Y-3.1
X3.9Y-3.2
X3.9Y-3.3
X3.9Y-3.4
X3.9Y-3.5
X3.9Y-3.6
X3.9Y-3.7
X3.9Y-3.8
X3.9Y-3.9
X3.9Y-4.0
X3.9Y-4.1
X3.9Y-4.2
X3.9Y-4.3
X3.9Y-4.4
X3.9Y-4.5
X3.9Y-4.6
X3.9Y-4.7
X3.9Y-4.8
T10
X1.4Y-7.4
X1.4Y-7.5
X1.4Y-7.6
T11
X5.9545Y-3.3
T12
X1.2559Y-3.5906
X1.2638Y-4.1929
X1.3543Y-3.1969
X1.3622Y-3.7992
X1.4528Y-3.5906
X1.4606Y-4.1929
X1.8766Y-8.0197
X2.0734Y-8.0197
X4.4047Y-3.3
X4.5031Y-3.3984
X4.6016Y-2.9063
X4.7Y-3.3
X4.7Y-3.4969
X4.7984Y-2.9063
X4.8969Y-3.3984
X4.9953Y-3.3
T13
X6.7419Y-3.3
T14
X5.5213Y-2.889
X5.6Y-2.9835
X5.6Y-3.2
T15
X1.7778Y-2.9752
X2.762Y-2.9752
X14.9969Y-4.715
X14.9969Y-5.6992
X15.0008Y-6.1598
X15.0008Y-7.1441
T0
M30
