G04 #@! TF.GenerationSoftware,KiCad,Pcbnew,7.0.1*
G04 #@! TF.CreationDate,2024-09-02T16:20:12-05:00*
G04 #@! TF.ProjectId,we816mark2,77653831-366d-4617-926b-322e6b696361,.8*
G04 #@! TF.SameCoordinates,Original*
G04 #@! TF.FileFunction,Legend,Bot*
G04 #@! TF.FilePolarity,Positive*
%FSLAX46Y46*%
G04 Gerber Fmt 4.6, Leading zero omitted, Abs format (unit mm)*
G04 Created by KiCad (PCBNEW 7.0.1) date 2024-09-02 16:20:12*
%MOMM*%
%LPD*%
G01*
G04 APERTURE LIST*
%ADD10C,0.150000*%
G04 APERTURE END LIST*
D10*
X340947333Y-68871619D02*
X340947333Y-69585904D01*
X340947333Y-69585904D02*
X340994952Y-69728761D01*
X340994952Y-69728761D02*
X341090190Y-69824000D01*
X341090190Y-69824000D02*
X341233047Y-69871619D01*
X341233047Y-69871619D02*
X341328285Y-69871619D01*
X340566380Y-68871619D02*
X339899714Y-68871619D01*
X339899714Y-68871619D02*
X340328285Y-69871619D01*
X93551333Y-139924619D02*
X93551333Y-140638904D01*
X93551333Y-140638904D02*
X93598952Y-140781761D01*
X93598952Y-140781761D02*
X93694190Y-140877000D01*
X93694190Y-140877000D02*
X93837047Y-140924619D01*
X93837047Y-140924619D02*
X93932285Y-140924619D01*
X93170380Y-139924619D02*
X92551333Y-139924619D01*
X92551333Y-139924619D02*
X92884666Y-140305571D01*
X92884666Y-140305571D02*
X92741809Y-140305571D01*
X92741809Y-140305571D02*
X92646571Y-140353190D01*
X92646571Y-140353190D02*
X92598952Y-140400809D01*
X92598952Y-140400809D02*
X92551333Y-140496047D01*
X92551333Y-140496047D02*
X92551333Y-140734142D01*
X92551333Y-140734142D02*
X92598952Y-140829380D01*
X92598952Y-140829380D02*
X92646571Y-140877000D01*
X92646571Y-140877000D02*
X92741809Y-140924619D01*
X92741809Y-140924619D02*
X93027523Y-140924619D01*
X93027523Y-140924619D02*
X93122761Y-140877000D01*
X93122761Y-140877000D02*
X93170380Y-140829380D01*
M02*
