M48
; DRILL file {KiCad 7.0.1} date Mon Aug 12 08:26:34 2024
; FORMAT={-:-/ absolute / inch / decimal}
; #@! TF.CreationDate,2024-08-12T08:26:34-05:00
; #@! TF.GenerationSoftware,Kicad,Pcbnew,7.0.1
; #@! TF.FileFunction,Plated,1,2,PTH
FMAT,2
INCH
; #@! TA.AperFunction,Plated,PTH,ViaDrill
T1C0.0157
; #@! TA.AperFunction,Plated,PTH,ComponentDrill
T2C0.0197
; #@! TA.AperFunction,Plated,PTH,ComponentDrill
T3C0.0236
; #@! TA.AperFunction,Plated,PTH,ComponentDrill
T4C0.0276
; #@! TA.AperFunction,Plated,PTH,ComponentDrill
T5C0.0295
; #@! TA.AperFunction,Plated,PTH,ComponentDrill
T6C0.0315
; #@! TA.AperFunction,Plated,PTH,ComponentDrill
T7C0.0354
; #@! TA.AperFunction,Plated,PTH,ComponentDrill
T8C0.0394
; #@! TA.AperFunction,Plated,PTH,ComponentDrill
T9C0.0402
; #@! TA.AperFunction,Plated,PTH,ComponentDrill
T10C0.0433
; #@! TA.AperFunction,Plated,PTH,ComponentDrill
T11C0.0461
; #@! TA.AperFunction,Plated,PTH,ComponentDrill
T12C0.0512
; #@! TA.AperFunction,Plated,PTH,ComponentDrill
T13C0.0591
; #@! TA.AperFunction,Plated,PTH,ComponentDrill
T14C0.0787
; #@! TA.AperFunction,Plated,PTH,ComponentDrill
T15C0.1260
%
G90
G05
T1
X1.4233Y-6.6346
X1.4628Y-6.7628
X1.4838Y-7.1409
X1.5145Y-7.2282
X1.5869Y-7.3429
X1.6066Y-7.2567
X1.6286Y-7.3017
X1.9451Y-5.09
X2.2453Y-4.6381
X2.2796Y-6.8253
X2.3506Y-3.3879
X2.3645Y-3.7367
X2.3802Y-5.9229
X2.4037Y-4.1527
X2.4121Y-4.8647
X2.4285Y-3.319
X2.4756Y-6.7783
X2.4807Y-4.948
X2.5137Y-6.1441
X2.5266Y-6.8033
X2.5454Y-5.7037
X2.5679Y-3.6193
X2.5785Y-6.0816
X2.5839Y-6.6821
X2.6495Y-6.6214
X2.6693Y-5.4751
X2.6842Y-6.6588
X2.7098Y-6.5156
X2.7337Y-6.688
X2.7516Y-5.2345
X2.7702Y-6.536
X2.8133Y-3.621
X2.8706Y-3.2463
X2.8785Y-6.8924
X2.9758Y-3.6077
X2.9895Y-6.7298
X2.9997Y-3.5116
X3.0123Y-3.3016
X3.0124Y-3.6631
X3.3271Y-4.8156
X3.3536Y-5.1256
X3.371Y-4.3997
X3.435Y-4.3
X3.4752Y-7.5659
X3.64Y-7.5213
X3.7134Y-3.9344
X3.8441Y-5.884
X3.8961Y-7.3002
X3.966Y-5.715
X4.0474Y-5.7447
X4.274Y-7.2252
X4.2895Y-6.0163
X4.2969Y-6.1009
X4.3099Y-6.1945
X4.3116Y-6.4924
X4.3432Y-3.2112
X4.3907Y-5.9233
X4.4282Y-6.017
X4.4717Y-6.1156
X4.4718Y-7.2612
X4.4725Y-6.501
X4.4969Y-4.7914
X4.5661Y-4.6875
X4.608Y-4.777
X4.6686Y-4.7358
X4.727Y-4.4612
X4.7406Y-4.7974
X4.7582Y-5.4912
X4.7779Y-5.7446
X4.8092Y-6.7416
X4.8182Y-7.0656
X4.8426Y-4.4404
X4.9899Y-6.0661
X5.0653Y-7.3204
X5.1023Y-7.0214
X5.152Y-6.9869
X5.1851Y-4.222
X5.234Y-4.167
X5.281Y-5.391
X5.2994Y-7.8814
X5.3125Y-7.2001
X5.3151Y-5.4126
X5.3416Y-6.7473
X5.4631Y-7.9659
X5.5132Y-6.9882
X5.5312Y-7.0991
X5.5992Y-7.1675
X5.6052Y-6.0129
X5.6427Y-5.9443
X5.7483Y-3.8913
X5.796Y-3.7281
X5.799Y-4.09
X5.8007Y-6.2471
X5.8195Y-3.7737
X5.8235Y-5.9693
X5.8629Y-6.1593
X5.8703Y-3.7734
X5.8783Y-4.0413
X5.9122Y-8.1333
X6.0073Y-5.2564
X6.0442Y-7.013
X6.0456Y-4.5391
X6.062Y-4.3666
X6.066Y-7.908
X6.0902Y-7.0321
X6.1527Y-4.1918
X6.229Y-5.913
X6.2314Y-6.8685
X6.239Y-7.8513
X6.3668Y-4.0277
X6.4287Y-5.5398
X6.478Y-4.1556
X6.4921Y-5.9509
X6.5792Y-6.4247
X6.589Y-5.4
X6.7212Y-3.1001
X6.7579Y-5.5969
X6.824Y-6.7424
X6.8616Y-5.7055
X6.9097Y-5.6846
X6.9322Y-7.7651
X6.9721Y-5.5967
X7.0081Y-7.0051
X7.059Y-6.8729
X7.0746Y-6.6585
X7.079Y-4.8554
X7.1424Y-6.8548
X7.1563Y-5.9666
X7.157Y-6.1646
X7.2073Y-6.828
X7.2542Y-6.36
X7.2624Y-3.3374
X7.2662Y-6.4257
X7.2913Y-6.1035
X7.32Y-3.1728
X7.352Y-5.0552
X7.4704Y-3.2359
X7.473Y-5.6248
X7.4748Y-5.6644
X7.4854Y-6.0561
X7.4973Y-3.1348
X7.5084Y-6.0149
X7.5703Y-7.2646
X7.5779Y-3.1597
X7.7086Y-4.7703
X7.7394Y-5.0215
X7.759Y-4.4797
X7.8331Y-6.327
X7.9675Y-6.2503
X8.0146Y-6.403
X8.0586Y-4.613
X8.0949Y-3.8772
X8.1383Y-5.7789
X8.1442Y-4.6605
X8.151Y-7.0837
X8.1742Y-5.7528
X8.1939Y-4.7554
X8.201Y-6.022
X8.2053Y-5.2336
X8.2219Y-6.6782
X8.2351Y-5.2826
X8.2757Y-4.7206
X8.2941Y-5.9578
X8.317Y-5.6824
X8.3406Y-5.3657
X8.3608Y-4.5581
X8.3615Y-8.0525
X8.3738Y-8.1316
X8.3745Y-3.8962
X8.4112Y-5.2518
X8.4136Y-3.107
X8.5027Y-4.0421
X8.5147Y-3.8168
X8.5714Y-5.7385
X8.6205Y-4.2301
X8.6578Y-3.1802
X8.6957Y-7.1733
X8.8064Y-7.9273
X8.8184Y-6.7048
X8.8287Y-4.2598
X8.8408Y-5.3249
X9.0137Y-5.8427
X9.0247Y-8.2448
X9.0848Y-5.4913
X9.1168Y-6.895
X9.1193Y-7.1129
X9.1227Y-5.0749
X9.1297Y-7.6721
X9.1392Y-7.0377
X9.1495Y-6.4194
X9.1683Y-4.6553
X9.1758Y-4.9094
X9.1923Y-7.0961
X9.1975Y-3.9143
X9.2069Y-4.8515
X9.2137Y-5.4956
X9.2308Y-7.0124
X9.3918Y-7.419
X9.3972Y-7.3267
X9.3986Y-6.9721
X9.4142Y-6.6387
X9.4156Y-5.041
X9.4325Y-4.4132
X9.487Y-5.7002
X9.5798Y-5.2963
X9.6133Y-5.6483
X9.7105Y-7.4632
X9.7302Y-5.1462
X9.7778Y-6.4458
X9.7867Y-6.8502
X9.7979Y-6.4002
X9.8077Y-4.8812
X9.8276Y-7.0261
X9.8369Y-4.9247
X9.949Y-7.0998
X10.0405Y-6.7295
X10.0466Y-5.7819
X10.052Y-6.4464
X10.0806Y-6.623
X10.0932Y-6.3885
X10.1076Y-5.2358
X10.1327Y-4.2453
X10.272Y-7.2014
X10.2788Y-7.0996
X10.3348Y-6.8512
X10.3691Y-6.3483
X10.386Y-4.5794
X10.4281Y-6.9321
X10.4791Y-6.3161
X10.5624Y-4.4453
X10.635Y-4.3839
X10.6489Y-6.9734
X10.6679Y-5.1175
X10.6882Y-6.9625
X10.6909Y-4.3187
X10.7137Y-5.9419
X10.7598Y-6.0344
X10.8348Y-7.1099
X11.0214Y-3.9406
X11.0754Y-6.7788
X11.1514Y-6.9444
X11.1914Y-6.538
X11.2974Y-5.196
X11.3094Y-5.1253
X11.3346Y-3.7063
X11.3421Y-5.4856
X11.3527Y-3.646
X11.3696Y-6.578
X11.4042Y-7.6462
X11.4473Y-6.783
X11.4812Y-3.5049
X11.509Y-4.3463
X11.5275Y-3.8479
X11.5356Y-3.4463
X11.5554Y-3.5312
X11.563Y-3.9622
X11.6211Y-4.8832
X11.6231Y-3.7119
X11.7595Y-4.2045
X11.7981Y-7.0881
X12.0061Y-7.0336
X12.0255Y-7.3689
X12.0566Y-5.342
X12.122Y-3.3139
X12.1738Y-4.8292
X12.1827Y-4.8819
X12.2061Y-3.3503
X12.2266Y-4.7248
X12.2412Y-7.0295
X12.246Y-5.9905
X12.2658Y-4.8533
X12.3432Y-4.9875
X12.4177Y-4.3446
X12.4353Y-4.5396
X12.436Y-5.3355
X12.4982Y-5.0262
X12.5634Y-6.551
X12.5756Y-3.5016
X12.6146Y-3.5696
X12.621Y-5.0547
X12.6229Y-5.1253
X12.7349Y-6.29
X12.7635Y-3.6544
X13.0143Y-3.4754
X13.0259Y-4.4793
X13.216Y-3.4463
X13.2758Y-3.3542
X13.3646Y-4.6717
X13.4097Y-3.4844
X13.4241Y-3.3347
X13.457Y-3.5265
X13.572Y-3.4025
X13.6675Y-3.5905
X13.9401Y-3.1887
X13.9416Y-3.8008
X13.9855Y-4.501
X14.0241Y-3.3137
X14.2497Y-3.7387
X14.2767Y-4.293
X14.2829Y-4.5692
X14.4016Y-4.6611
X14.8384Y-5.9147
X14.8526Y-4.7921
X14.895Y-6.4045
T2
X7.8331Y-4.5
X7.9Y-4.5
T3
X2.1Y-6.9
X2.1787Y-6.9
X5.7Y-3.8
X5.7787Y-3.8
X6.4173Y-7.0433
X6.4173Y-7.3386
X6.4213Y-7.6457
X6.4213Y-7.9134
X6.4213Y-8.1693
X6.4961Y-7.0433
X6.4961Y-7.3386
X6.5Y-7.6457
X6.5Y-7.9134
X6.5Y-8.1693
X8.2Y-4.5
X8.2787Y-4.5
X11.4Y-5.2
X11.4787Y-5.2
T4
X1.2717Y-5.0787
X1.2717Y-5.2787
X1.2722Y-5.3793
X1.2722Y-5.5793
X1.2795Y-5.7047
X1.2795Y-5.9047
X1.4Y-6.7
X1.6Y-6.7
X1.7Y-3.3
X1.7Y-3.5
X1.7Y-3.7
X1.9Y-3.3
X1.9Y-3.5
X1.9Y-3.7
X2.1Y-3.7
X2.3Y-3.7
X2.5Y-3.3878
X2.5Y-3.5118
X2.5Y-3.6358
X2.5Y-3.7598
X2.5Y-3.8839
X2.5Y-4.0079
X2.5Y-4.1319
X2.5Y-4.2559
X2.5Y-4.3799
X2.5Y-4.5039
X2.5Y-4.628
X2.5Y-4.752
X2.5Y-4.876
X2.5Y-5.0
X2.7Y-3.3878
X2.7Y-3.5118
X2.7Y-3.6358
X2.7Y-3.7598
X2.7Y-3.8839
X2.7Y-4.0079
X2.7Y-4.1319
X2.7Y-4.2559
X2.7Y-4.3799
X2.7Y-4.5039
X2.7Y-4.628
X2.7Y-4.752
X2.7Y-4.876
X2.7Y-5.0
X6.9Y-6.925
X6.9Y-7.125
X7.075Y-6.925
X7.075Y-7.125
X7.275Y-6.925
X7.275Y-7.125
X7.925Y-5.352
X7.925Y-5.476
X7.925Y-5.6
X8.125Y-5.352
X8.125Y-5.476
X8.125Y-5.6
X11.825Y-8.075
X12.025Y-8.075
T5
X1.6Y-7.1
X1.65Y-7.05
X1.7Y-7.1
T6
X1.2598Y-4.4803
X1.2598Y-4.6772
X1.5083Y-4.4343
X1.5083Y-4.5343
X1.5083Y-4.6343
X1.5083Y-4.7343
X1.5083Y-4.8343
X1.5083Y-4.9343
X1.5083Y-5.0343
X1.5083Y-5.1343
X1.5083Y-5.2343
X1.5083Y-5.3343
X1.5083Y-5.4343
X1.5083Y-5.5343
X1.5083Y-5.6343
X1.5083Y-5.7343
X1.5083Y-5.8343
X1.5083Y-5.9343
X1.5083Y-6.0343
X1.5083Y-6.1343
X1.5083Y-6.2343
X1.5083Y-6.3343
X1.689Y-4.2598
X1.7087Y-6.5157
X1.8858Y-4.2598
X1.9055Y-6.5157
X2.1Y-3.5
X2.1083Y-4.4343
X2.1083Y-4.5343
X2.1083Y-4.6343
X2.1083Y-4.7343
X2.1083Y-4.8343
X2.1083Y-4.9343
X2.1083Y-5.0343
X2.1083Y-5.1343
X2.1083Y-5.2343
X2.1083Y-5.3343
X2.1083Y-5.4343
X2.1083Y-5.5343
X2.1083Y-5.6343
X2.1083Y-5.7343
X2.1083Y-5.8343
X2.1083Y-5.9343
X2.1083Y-6.0343
X2.1083Y-6.1343
X2.1083Y-6.2343
X2.1083Y-6.3343
X2.2969Y-3.5
X2.4004Y-6.8002
X2.4004Y-6.9002
X2.4004Y-7.0002
X2.4004Y-7.1002
X2.4004Y-7.2002
X2.4004Y-7.3002
X2.4004Y-7.4002
X2.4004Y-7.5002
X2.4004Y-7.6002
X2.4004Y-7.7002
X2.4031Y-6.5
X2.4504Y-5.3752
X2.4504Y-5.4752
X2.4504Y-5.5752
X2.4504Y-5.6752
X2.4504Y-5.7752
X2.4504Y-5.8752
X2.4504Y-5.9752
X2.4504Y-6.0752
X2.4504Y-6.1752
X2.4504Y-6.2752
X2.6Y-6.5
X2.7004Y-6.8002
X2.7004Y-6.9002
X2.7004Y-7.0002
X2.7004Y-7.1002
X2.7004Y-7.2002
X2.7004Y-7.3002
X2.7004Y-7.4002
X2.7004Y-7.5002
X2.7004Y-7.6002
X2.7004Y-7.7002
X2.7504Y-5.3752
X2.7504Y-5.4752
X2.7504Y-5.5752
X2.7504Y-5.6752
X2.7504Y-5.7752
X2.7504Y-5.8752
X2.7504Y-5.9752
X2.7504Y-6.0752
X2.7504Y-6.1752
X2.7504Y-6.2752
X3.15Y-5.2
X3.2Y-6.1502
X3.2Y-6.2502
X3.2Y-6.3502
X3.2Y-6.4502
X3.2Y-6.5502
X3.2Y-6.6502
X3.2Y-6.7502
X3.2Y-6.8502
X3.2Y-6.9502
X3.2Y-7.0502
X3.2Y-7.1502
X3.2Y-7.2502
X3.2Y-7.3502
X3.2Y-7.4502
X3.2Y-7.5502
X3.2Y-7.6502
X3.2Y-7.7502
X3.2Y-7.8502
X3.2Y-7.9502
X3.2Y-8.0502
X3.2016Y-5.95
X3.25Y-5.2
X3.35Y-5.2
X3.3984Y-5.95
X3.45Y-5.2
X3.55Y-5.2
X3.65Y-5.2
X3.8Y-6.1502
X3.8Y-6.2502
X3.8Y-6.3502
X3.8Y-6.4502
X3.8Y-6.5502
X3.8Y-6.6502
X3.8Y-6.7502
X3.8Y-6.8502
X3.8Y-6.9502
X3.8Y-7.0502
X3.8Y-7.1502
X3.8Y-7.2502
X3.8Y-7.3502
X3.8Y-7.4502
X3.8Y-7.5502
X3.8Y-7.6502
X3.8Y-7.7502
X3.8Y-7.8502
X3.8Y-7.9502
X3.8Y-8.0502
X4.3266Y-5.975
X4.4Y-6.1502
X4.4Y-6.2502
X4.4Y-6.3502
X4.4Y-6.4502
X4.4Y-6.5502
X4.4Y-6.6502
X4.4Y-6.7502
X4.4Y-6.8502
X4.4Y-6.9502
X4.4Y-7.0502
X4.4Y-7.1502
X4.4Y-7.2502
X4.4Y-7.3502
X4.4Y-7.4502
X4.4Y-7.5502
X4.4Y-7.6502
X4.4Y-7.7502
X4.4Y-7.8502
X4.4Y-7.9502
X4.4Y-8.0502
X4.5234Y-5.975
X4.6002Y-4.9
X4.6002Y-5.0
X4.6002Y-5.1
X4.6002Y-5.2
X4.6002Y-5.3
X4.6002Y-5.4
X4.6002Y-5.5
X4.6002Y-5.6
X4.6002Y-5.7
X4.6002Y-5.8
X4.6516Y-4.625
X4.8484Y-4.625
X4.9002Y-4.9
X4.9002Y-5.0
X4.9002Y-5.1
X4.9002Y-5.2
X4.9002Y-5.3
X4.9002Y-5.4
X4.9002Y-5.5
X4.9002Y-5.6
X4.9002Y-5.7
X4.9002Y-5.8
X5.0Y-6.1502
X5.0Y-6.2502
X5.0Y-6.3502
X5.0Y-6.4502
X5.0Y-6.5502
X5.0Y-6.6502
X5.0Y-6.7502
X5.0Y-6.8502
X5.0Y-6.9502
X5.0Y-7.0502
X5.0Y-7.1502
X5.0Y-7.2502
X5.0Y-7.3502
X5.0Y-7.4502
X5.0Y-7.5502
X5.0Y-7.6502
X5.0Y-7.7502
X5.0Y-7.8502
X5.0Y-7.9502
X5.0Y-8.0502
X5.1754Y-4.9002
X5.1754Y-5.0002
X5.1754Y-5.1002
X5.1754Y-5.2002
X5.1754Y-5.3002
X5.1754Y-5.4002
X5.1754Y-5.5002
X5.1754Y-5.6002
X5.1754Y-5.7002
X5.1754Y-5.8002
X5.2266Y-4.725
X5.4Y-3.6
X5.4234Y-4.725
X5.4754Y-4.9002
X5.4754Y-5.0002
X5.4754Y-5.1002
X5.4754Y-5.2002
X5.4754Y-5.3002
X5.4754Y-5.4002
X5.4754Y-5.5002
X5.4754Y-5.6002
X5.4754Y-5.7002
X5.4754Y-5.8002
X5.5969Y-3.6
X5.7323Y-5.0
X5.7323Y-5.1
X5.7323Y-5.2
X5.7323Y-5.3
X5.7323Y-5.4
X5.7323Y-5.5
X5.7323Y-5.6
X5.7323Y-5.7
X5.7323Y-5.8
X5.7323Y-5.9
X5.7323Y-6.0
X5.7323Y-6.1
X5.7323Y-6.2
X5.7323Y-6.3
X5.7323Y-6.4
X5.7323Y-6.5
X5.7323Y-6.6
X5.7323Y-6.7
X5.7323Y-6.8
X5.7323Y-6.9
X5.8618Y-7.389
X5.8618Y-7.489
X5.8618Y-7.589
X5.8618Y-7.689
X5.8618Y-7.789
X5.8618Y-7.889
X5.8618Y-7.989
X5.8618Y-8.089
X5.8657Y-4.3063
X5.8657Y-4.6063
X5.9173Y-4.1453
X5.9173Y-4.8146
X5.9291Y-7.2175
X6.1142Y-4.1453
X6.1142Y-4.8146
X6.126Y-7.2175
X6.1618Y-7.389
X6.1618Y-7.489
X6.1618Y-7.589
X6.1618Y-7.689
X6.1618Y-7.789
X6.1618Y-7.889
X6.1618Y-7.989
X6.1618Y-8.089
X6.1657Y-4.3063
X6.1657Y-4.6063
X6.3323Y-5.0
X6.3323Y-5.1
X6.3323Y-5.2
X6.3323Y-5.3
X6.3323Y-5.4
X6.3323Y-5.5
X6.3323Y-5.6
X6.3323Y-5.7
X6.3323Y-5.8
X6.3323Y-5.9
X6.3323Y-6.0
X6.3323Y-6.1
X6.3323Y-6.2
X6.3323Y-6.3
X6.3323Y-6.4
X6.3323Y-6.5
X6.3323Y-6.6
X6.3323Y-6.7
X6.3323Y-6.8
X6.3323Y-6.9
X6.5631Y-5.5
X6.64Y-5.76
X6.64Y-5.86
X6.64Y-5.96
X6.64Y-6.06
X6.64Y-6.16
X6.64Y-6.26
X6.64Y-6.36
X6.64Y-6.46
X6.64Y-6.56
X6.64Y-6.66
X6.76Y-5.5
X6.9266Y-5.125
X6.9266Y-5.425
X6.94Y-5.76
X6.94Y-5.86
X6.94Y-5.96
X6.94Y-6.06
X6.94Y-6.16
X6.94Y-6.26
X6.94Y-6.36
X6.94Y-6.46
X6.94Y-6.56
X6.94Y-6.66
X7.0Y-3.0748
X7.0315Y-7.4866
X7.0315Y-7.5866
X7.0315Y-7.6866
X7.0315Y-7.7866
X7.0315Y-7.8866
X7.0315Y-7.9866
X7.0315Y-8.0866
X7.0791Y-7.352
X7.1234Y-5.125
X7.1234Y-5.425
X7.1969Y-3.0748
X7.276Y-7.352
X7.3Y-4.8
X7.3Y-4.9
X7.3Y-5.0
X7.3Y-5.1
X7.3Y-5.2
X7.3Y-5.3
X7.3Y-5.4
X7.3Y-5.5
X7.3Y-5.6
X7.3315Y-7.4866
X7.3315Y-7.5866
X7.3315Y-7.6866
X7.3315Y-7.7866
X7.3315Y-7.8866
X7.3315Y-7.9866
X7.3315Y-8.0866
X7.3504Y-6.0496
X7.3504Y-6.1496
X7.3504Y-6.2496
X7.3504Y-6.3496
X7.3504Y-6.4496
X7.3504Y-6.5496
X7.3504Y-6.6496
X7.3504Y-6.7496
X7.4Y-4.6
X7.5969Y-4.6
X7.6Y-4.8
X7.6Y-4.9
X7.6Y-5.0
X7.6Y-5.1
X7.6Y-5.2
X7.6Y-5.3
X7.6Y-5.4
X7.6Y-5.5
X7.6Y-5.6
X7.6Y-7.4803
X7.6Y-7.5803
X7.6Y-7.6803
X7.6Y-7.7803
X7.6Y-7.8803
X7.6Y-7.9803
X7.6Y-8.0803
X7.6303Y-7.3283
X7.6504Y-6.0496
X7.6504Y-6.1496
X7.6504Y-6.2496
X7.6504Y-6.3496
X7.6504Y-6.4496
X7.6504Y-6.5496
X7.6504Y-6.6496
X7.6504Y-6.7496
X7.6598Y-3.1874
X7.6598Y-3.2874
X7.6598Y-3.3874
X7.6598Y-3.4874
X7.6598Y-3.5874
X7.6598Y-3.6874
X7.6598Y-3.7874
X7.6598Y-3.8874
X7.6598Y-3.9874
X7.6598Y-4.0874
X7.7031Y-3.0709
X7.8272Y-7.3283
X7.9Y-3.0709
X7.9Y-7.4803
X7.9Y-7.5803
X7.9Y-7.6803
X7.9Y-7.7803
X7.9Y-7.8803
X7.9Y-7.9803
X7.9Y-8.0803
X7.9598Y-3.1874
X7.9598Y-3.2874
X7.9598Y-3.3874
X7.9598Y-3.4874
X7.9598Y-3.5874
X7.9598Y-3.6874
X7.9598Y-3.7874
X7.9598Y-3.8874
X7.9598Y-3.9874
X7.9598Y-4.0874
X8.1Y-4.8
X8.1Y-4.9
X8.1Y-5.0
X8.1Y-5.1
X8.2429Y-7.4724
X8.2429Y-7.5724
X8.2429Y-7.6724
X8.2429Y-7.7724
X8.2429Y-7.8724
X8.2429Y-7.9724
X8.2429Y-8.0724
X8.2858Y-3.1874
X8.2858Y-3.2874
X8.2858Y-3.3874
X8.2858Y-3.4874
X8.2858Y-3.5874
X8.2858Y-3.6874
X8.2858Y-3.7874
X8.2858Y-3.8874
X8.2858Y-3.9874
X8.2858Y-4.0874
X8.2878Y-7.3244
X8.3331Y-3.0709
X8.38Y-5.88
X8.38Y-5.98
X8.38Y-6.08
X8.38Y-6.18
X8.38Y-6.28
X8.38Y-6.38
X8.38Y-6.48
X8.38Y-6.58
X8.38Y-6.68
X8.38Y-6.78
X8.38Y-6.88
X8.38Y-6.98
X8.4Y-4.8
X8.4Y-4.9
X8.4Y-5.0
X8.4Y-5.1
X8.4846Y-7.3244
X8.5299Y-3.0709
X8.5429Y-7.4724
X8.5429Y-7.5724
X8.5429Y-7.6724
X8.5429Y-7.7724
X8.5429Y-7.8724
X8.5429Y-7.9724
X8.5429Y-8.0724
X8.5858Y-3.1874
X8.5858Y-3.2874
X8.5858Y-3.3874
X8.5858Y-3.4874
X8.5858Y-3.5874
X8.5858Y-3.6874
X8.5858Y-3.7874
X8.5858Y-3.8874
X8.5858Y-3.9874
X8.5858Y-4.0874
X8.68Y-5.88
X8.68Y-5.98
X8.68Y-6.08
X8.68Y-6.18
X8.68Y-6.28
X8.68Y-6.38
X8.68Y-6.48
X8.68Y-6.58
X8.68Y-6.68
X8.68Y-6.78
X8.68Y-6.88
X8.68Y-6.98
X8.6816Y-5.7
X8.8784Y-5.7
X8.9563Y-7.9681
X8.9563Y-8.165
X9.2998Y-5.1502
X9.2998Y-5.2502
X9.2998Y-5.3502
X9.2998Y-5.4502
X9.2998Y-5.5502
X9.2998Y-5.6502
X9.2998Y-5.7502
X9.2998Y-5.8502
X9.2998Y-5.9502
X9.2998Y-6.0502
X9.2998Y-6.1502
X9.2998Y-6.2502
X9.2998Y-6.3502
X9.2998Y-6.4502
X9.2998Y-6.5502
X9.2998Y-6.6502
X9.2998Y-6.7502
X9.2998Y-6.8502
X9.2998Y-6.9502
X9.2998Y-7.0502
X9.4169Y-4.2634
X9.4169Y-4.5634
X9.4528Y-4.9409
X9.4606Y-4.0984
X9.6496Y-4.9409
X9.6575Y-4.0984
X9.7169Y-4.2634
X9.7169Y-4.5634
X9.8998Y-5.1502
X9.8998Y-5.2502
X9.8998Y-5.3502
X9.8998Y-5.4502
X9.8998Y-5.5502
X9.8998Y-5.6502
X9.8998Y-5.7502
X9.8998Y-5.8502
X9.8998Y-5.9502
X9.8998Y-6.0502
X9.8998Y-6.1502
X9.8998Y-6.2502
X9.8998Y-6.3502
X9.8998Y-6.4502
X9.8998Y-6.5502
X9.8998Y-6.6502
X9.8998Y-6.7502
X9.8998Y-6.8502
X9.8998Y-6.9502
X9.8998Y-7.0502
X10.0Y-7.5
X10.0Y-7.6
X10.0Y-7.7
X10.0Y-7.8
X10.0Y-7.9
X10.0Y-8.0
X10.0Y-8.1
X10.1Y-7.3
X10.2283Y-3.5197
X10.2283Y-3.6197
X10.2283Y-3.7197
X10.2283Y-3.8197
X10.2283Y-3.9197
X10.2283Y-4.0197
X10.2969Y-7.3
X10.3Y-7.5
X10.3Y-7.6
X10.3Y-7.7
X10.3Y-7.8
X10.3Y-7.9
X10.3Y-8.0
X10.3Y-8.1
X10.5276Y-3.5118
X10.5276Y-3.6118
X10.5276Y-3.7118
X10.5276Y-3.8118
X10.5276Y-3.9118
X10.5276Y-4.0118
X10.528Y-4.7618
X10.528Y-4.8618
X10.528Y-4.9618
X10.528Y-5.0618
X10.528Y-5.1618
X10.528Y-5.2618
X10.528Y-5.3618
X10.528Y-5.4618
X10.528Y-5.5618
X10.528Y-5.6618
X10.5469Y-6.0795
X10.5469Y-6.1795
X10.5469Y-6.2795
X10.5469Y-6.3795
X10.5469Y-6.4795
X10.5469Y-6.5795
X10.5469Y-6.6795
X10.5469Y-6.7795
X10.5469Y-6.8795
X10.5469Y-6.9795
X10.5567Y-4.6102
X10.5906Y-5.9409
X10.7535Y-4.6102
X10.7874Y-5.9409
X10.828Y-4.7618
X10.828Y-4.8618
X10.828Y-4.9618
X10.828Y-5.0618
X10.828Y-5.1618
X10.828Y-5.2618
X10.828Y-5.3618
X10.828Y-5.4618
X10.828Y-5.5618
X10.828Y-5.6618
X10.8469Y-6.0795
X10.8469Y-6.1795
X10.8469Y-6.2795
X10.8469Y-6.3795
X10.8469Y-6.4795
X10.8469Y-6.5795
X10.8469Y-6.6795
X10.8469Y-6.7795
X10.8469Y-6.8795
X10.8469Y-6.9795
X11.3037Y-6.1337
X11.3037Y-6.2337
X11.3037Y-6.3337
X11.3037Y-6.4337
X11.3037Y-6.5337
X11.3037Y-6.6337
X11.3037Y-6.7337
X11.3037Y-6.8337
X11.3037Y-6.9337
X11.3037Y-7.0337
X11.3037Y-7.1337
X11.3037Y-7.2337
X11.3037Y-7.3337
X11.3037Y-7.4337
X11.3701Y-3.7913
X11.3701Y-3.8913
X11.3701Y-3.9913
X11.3701Y-4.0913
X11.3701Y-4.1913
X11.3701Y-4.2913
X11.3701Y-4.3913
X11.3701Y-4.4913
X11.3701Y-4.5913
X11.3701Y-4.6913
X11.4281Y-3.6486
X11.5016Y-5.75
X11.625Y-3.6486
X11.6701Y-3.7913
X11.6701Y-3.8913
X11.6701Y-3.9913
X11.6701Y-4.0913
X11.6701Y-4.1913
X11.6701Y-4.2913
X11.6701Y-4.3913
X11.6701Y-4.4913
X11.6701Y-4.5913
X11.6701Y-4.6913
X11.6984Y-5.75
X11.9037Y-6.1337
X11.9037Y-6.2337
X11.9037Y-6.3337
X11.9037Y-6.4337
X11.9037Y-6.5337
X11.9037Y-6.6337
X11.9037Y-6.7337
X11.9037Y-6.8337
X11.9037Y-6.9337
X11.9037Y-7.0337
X11.9037Y-7.1337
X11.9037Y-7.2337
X11.9037Y-7.3337
X11.9037Y-7.4337
X11.9919Y-3.7953
X11.9919Y-3.8953
X11.9919Y-3.9953
X11.9919Y-4.0953
X11.9919Y-4.1953
X11.9919Y-4.2953
X11.9919Y-4.3953
X11.9919Y-4.4953
X11.9919Y-4.5953
X11.9919Y-4.6953
X12.062Y-3.6506
X12.2589Y-3.6506
X12.2919Y-3.7953
X12.2919Y-3.8953
X12.2919Y-3.9953
X12.2919Y-4.0953
X12.2919Y-4.1953
X12.2919Y-4.2953
X12.2919Y-4.3953
X12.2919Y-4.4953
X12.2919Y-4.5953
X12.2919Y-4.6953
X12.4498Y-5.9348
X12.4498Y-6.0348
X12.4498Y-6.1348
X12.4498Y-6.2348
X12.4498Y-6.3348
X12.4498Y-6.4348
X12.4498Y-6.5348
X12.4498Y-6.6348
X12.4498Y-6.7348
X12.4498Y-6.8348
X12.4498Y-6.9348
X12.4498Y-7.0348
X12.4498Y-7.1348
X12.4498Y-7.2348
X12.4498Y-7.3348
X12.4498Y-7.4348
X12.6137Y-3.7953
X12.6137Y-3.8953
X12.6137Y-3.9953
X12.6137Y-4.0953
X12.6137Y-4.1953
X12.6137Y-4.2953
X12.6137Y-4.3953
X12.6137Y-4.4953
X12.6137Y-4.5953
X12.6137Y-4.6953
X12.6447Y-5.7687
X12.689Y-3.6437
X12.8415Y-5.7687
X12.8858Y-3.6437
X12.9137Y-3.7953
X12.9137Y-3.8953
X12.9137Y-3.9953
X12.9137Y-4.0953
X12.9137Y-4.1953
X12.9137Y-4.2953
X12.9137Y-4.3953
X12.9137Y-4.4953
X12.9137Y-4.5953
X12.9137Y-4.6953
X13.0498Y-5.9348
X13.0498Y-6.0348
X13.0498Y-6.1348
X13.0498Y-6.2348
X13.0498Y-6.3348
X13.0498Y-6.4348
X13.0498Y-6.5348
X13.0498Y-6.6348
X13.0498Y-6.7348
X13.0498Y-6.8348
X13.0498Y-6.9348
X13.0498Y-7.0348
X13.0498Y-7.1348
X13.0498Y-7.2348
X13.0498Y-7.3348
X13.0498Y-7.4348
X13.2355Y-3.7953
X13.2355Y-3.8953
X13.2355Y-3.9953
X13.2355Y-4.0953
X13.2355Y-4.1953
X13.2355Y-4.2953
X13.2355Y-4.3953
X13.2355Y-4.4953
X13.2355Y-4.5953
X13.2355Y-4.6953
X13.3041Y-3.6358
X13.501Y-3.6358
X13.5355Y-3.7953
X13.5355Y-3.8953
X13.5355Y-3.9953
X13.5355Y-4.0953
X13.5355Y-4.1953
X13.5355Y-4.2953
X13.5355Y-4.3953
X13.5355Y-4.4953
X13.5355Y-4.5953
X13.5355Y-4.6953
X13.7748Y-6.0752
X13.7748Y-6.1752
X13.7748Y-6.2752
X13.7748Y-6.3752
X13.7748Y-6.4752
X13.7748Y-6.5752
X13.7748Y-6.6752
X13.7748Y-6.7752
X13.7748Y-6.8752
X13.7748Y-6.9752
X13.7748Y-7.0752
X13.7748Y-7.1752
X13.7748Y-7.2752
X13.7748Y-7.3752
X13.8573Y-3.7953
X13.8573Y-3.8953
X13.8573Y-3.9953
X13.8573Y-4.0953
X13.8573Y-4.1953
X13.8573Y-4.2953
X13.8573Y-4.3953
X13.8573Y-4.4953
X13.8573Y-4.5953
X13.8573Y-4.6953
X13.8976Y-3.6407
X13.9266Y-5.625
X14.0945Y-3.6407
X14.1234Y-5.625
X14.1573Y-3.7953
X14.1573Y-3.8953
X14.1573Y-3.9953
X14.1573Y-4.0953
X14.1573Y-4.1953
X14.1573Y-4.2953
X14.1573Y-4.3953
X14.1573Y-4.4953
X14.1573Y-4.5953
X14.1573Y-4.6953
X14.3748Y-6.0752
X14.3748Y-6.1752
X14.3748Y-6.2752
X14.3748Y-6.3752
X14.3748Y-6.4752
X14.3748Y-6.5752
X14.3748Y-6.6752
X14.3748Y-6.7752
X14.3748Y-6.8752
X14.3748Y-6.9752
X14.3748Y-7.0752
X14.3748Y-7.1752
X14.3748Y-7.2752
X14.3748Y-7.3752
X14.6181Y-3.9583
X14.6181Y-4.0583
X14.6181Y-4.1583
X14.6181Y-4.2583
X14.6181Y-4.3583
X14.6181Y-4.4583
X14.6181Y-4.5583
X14.6181Y-4.6583
X14.6181Y-4.7583
X14.6181Y-4.8583
X14.9685Y-3.4646
X14.9685Y-3.5646
X14.9685Y-3.6646
X14.9685Y-3.7646
X14.9685Y-3.8646
X14.9685Y-3.9646
T7
X11.5591Y-8.063
X11.6591Y-8.063
T8
X1.4Y-7.0
X1.4Y-7.1
X1.7992Y-3.9
X1.7992Y-4.0
X1.8992Y-3.9
X1.8992Y-4.0
X2.0549Y-2.978
X2.1Y-2.9
X2.1Y-3.0559
X2.1451Y-2.978
X2.1902Y-2.9
X2.1902Y-3.0559
X2.2352Y-2.978
X2.2803Y-2.9
X2.2803Y-3.0559
X2.3254Y-2.978
X2.3705Y-2.9
X2.3705Y-3.0559
X2.4156Y-2.978
X2.4606Y-2.9
X2.4606Y-3.0559
X3.1Y-5.5
X3.1Y-5.6
X3.2Y-5.5
X3.2Y-5.6
X3.3Y-5.5
X3.3Y-5.6
X3.4Y-5.5
X3.4Y-5.6
X3.5Y-5.5
X3.5Y-5.6
X3.6Y-5.5
X3.6Y-5.6
X3.7Y-5.5
X3.7Y-5.6
X3.8Y-5.5
X3.8Y-5.6
X8.7Y-4.425
X8.7Y-4.525
X8.7Y-4.8
X8.7Y-4.9
X8.7Y-5.0
X9.025Y-4.8998
X9.025Y-4.9998
X9.7126Y-3.3921
X9.7126Y-3.4921
X9.7126Y-3.5921
X9.7126Y-3.6921
X9.8126Y-3.3921
X9.8126Y-3.4921
X9.8126Y-3.5921
X9.8126Y-3.6921
X10.7756Y-7.8858
X10.7756Y-7.9858
X10.7756Y-8.0858
X11.2Y-3.1
X11.3Y-3.1
X11.3Y-3.3
X11.3Y-3.4
X11.4Y-3.1
X11.4Y-3.3
X11.4Y-3.4
X11.425Y-5.575
X11.5Y-3.1
X11.5Y-3.3
X11.5Y-3.4
X11.525Y-5.575
X11.6Y-3.1
X11.6Y-3.3
X11.6Y-3.4
X11.625Y-5.575
X11.7Y-3.1
X11.7Y-3.3
X11.7Y-3.4
X11.976Y-3.1421
X11.976Y-3.2421
X12.076Y-3.1421
X12.076Y-3.2421
X12.176Y-3.1421
X12.176Y-3.2421
X12.276Y-3.1421
X12.276Y-3.2421
X12.376Y-3.1421
X12.376Y-3.2421
X12.476Y-3.1421
X12.476Y-3.2421
X12.576Y-3.1421
X12.576Y-3.2421
X12.6447Y-5.5719
X12.676Y-3.1421
X12.676Y-3.2421
X12.7447Y-5.5719
X12.776Y-3.1421
X12.776Y-3.2421
X12.8447Y-5.5719
X12.876Y-3.1421
X12.876Y-3.2421
X12.976Y-3.1421
X12.976Y-3.2421
X13.076Y-3.1421
X13.076Y-3.2421
X13.176Y-3.1421
X13.176Y-3.2421
X13.276Y-3.1421
X13.276Y-3.2421
X13.376Y-3.1421
X13.376Y-3.2421
X13.476Y-3.1421
X13.476Y-3.2421
X13.576Y-3.1421
X13.576Y-3.2421
X13.676Y-3.1421
X13.676Y-3.2421
X13.776Y-3.1421
X13.776Y-3.2421
X13.876Y-3.1421
X13.876Y-3.2421
X14.9409Y-4.989
X14.9409Y-5.098
X14.9409Y-5.2071
X14.9409Y-5.3161
X14.9409Y-5.4252
X14.9449Y-6.4339
X14.9449Y-6.5429
X14.9449Y-6.652
X14.9449Y-6.761
X14.9449Y-6.8701
X15.0528Y-5.0435
X15.0528Y-5.1526
X15.0528Y-5.2616
X15.0528Y-5.3707
X15.0567Y-6.4884
X15.0567Y-6.5974
X15.0567Y-6.7065
X15.0567Y-6.8156
T9
X3.2Y-2.9
X3.2Y-3.0
X3.2Y-3.1
X3.2Y-3.2
X3.2Y-3.3
X3.2Y-3.4
X3.2Y-3.5
X3.2Y-3.6
X3.2Y-3.7
X3.2Y-3.8
X3.2Y-3.9
X3.2Y-4.0
X3.2Y-4.1
X3.2Y-4.2
X3.2Y-4.3
X3.2Y-4.4
X3.2Y-4.5
X3.2Y-4.6
X3.2Y-4.7
X3.2Y-4.8
X3.45Y-4.7909
X3.55Y-4.7909
X3.65Y-4.7909
X3.9Y-2.9
X3.9Y-3.0
X3.9Y-3.1
X3.9Y-3.2
X3.9Y-3.3
X3.9Y-3.4
X3.9Y-3.5
X3.9Y-3.6
X3.9Y-3.7
X3.9Y-3.8
X3.9Y-3.9
X3.9Y-4.0
X3.9Y-4.1
X3.9Y-4.2
X3.9Y-4.3
X3.9Y-4.4
X3.9Y-4.5
X3.9Y-4.6
X3.9Y-4.7
X3.9Y-4.8
T10
X1.4Y-7.4
X1.4Y-7.5
X1.4Y-7.6
T11
X5.9545Y-3.3
T12
X1.2559Y-3.5906
X1.2638Y-4.1929
X1.3543Y-3.1969
X1.3622Y-3.7992
X1.4528Y-3.5906
X1.4606Y-4.1929
X1.8766Y-8.0197
X2.0734Y-8.0197
X4.4047Y-3.3
X4.5031Y-3.3984
X4.6016Y-2.9063
X4.7Y-3.3
X4.7Y-3.4969
X4.7984Y-2.9063
X4.8969Y-3.3984
X4.9953Y-3.3
T13
X6.7419Y-3.3
T14
X5.5213Y-2.889
X5.6Y-2.9835
X5.6Y-3.2
T15
X1.7778Y-2.9752
X2.762Y-2.9752
X14.9969Y-4.715
X14.9969Y-5.6992
X15.0008Y-6.1598
X15.0008Y-7.1441
T0
M30
