%TF.GenerationSoftware,KiCad,Pcbnew,7.0.1*%
%TF.CreationDate,2024-07-20T11:14:40-05:00*%
%TF.ProjectId,we816mark2,77653831-366d-4617-926b-322e6b696361,.8*%
%TF.SameCoordinates,Original*%
%TF.FileFunction,Drillmap*%
%TF.FilePolarity,Positive*%
%FSLAX45Y45*%
G04 Gerber Fmt 4.5, Leading zero omitted, Abs format (unit mm)*
G04 Created by KiCad (PCBNEW 7.0.1) date 2024-07-20 11:14:40*
%MOMM*%
%LPD*%
G01*
G04 APERTURE LIST*
%ADD10C,0.381000*%
%ADD11C,0.200000*%
%ADD12C,0.150000*%
%ADD13C,0.180000*%
%ADD14C,0.240000*%
%ADD15C,0.320000*%
G04 APERTURE END LIST*
D10*
X38380000Y-21110000D02*
X3020000Y-21110000D01*
X3030000Y-6970000D02*
X5820000Y-6970000D01*
X38710000Y-7290000D02*
G75*
G03*
X38390000Y-6970000I-320000J0D01*
G01*
X38710000Y-7290000D02*
X38700000Y-20790000D01*
X5820000Y-6970000D02*
X38390000Y-6970000D01*
X38380000Y-21110000D02*
G75*
G03*
X38700000Y-20790000I0J320000D01*
G01*
X2700000Y-20790000D02*
X2710000Y-7290000D01*
X3030000Y-6970000D02*
G75*
G03*
X2710000Y-7290000I0J-320000D01*
G01*
X2700000Y-20790000D02*
G75*
G03*
X3020000Y-21110000I320000J0D01*
G01*
D11*
D12*
X8699500Y-7607000D02*
X8849500Y-7757000D01*
X8849500Y-7607000D02*
X8699500Y-7757000D01*
X9184500Y-7607000D02*
X9334500Y-7757000D01*
X9334500Y-7607000D02*
X9184500Y-7757000D01*
D13*
X8834500Y-7379000D02*
G75*
G03*
X8834500Y-7379000I-90000J0D01*
G01*
X9379500Y-7379000D02*
G75*
G03*
X9379500Y-7379000I-90000J0D01*
G01*
D14*
X11188000Y-7762000D02*
X11188000Y-8002000D01*
X11068000Y-7882000D02*
X11308000Y-7882000D01*
X12688000Y-7762000D02*
X12688000Y-8002000D01*
X12568000Y-7882000D02*
X12808000Y-7882000D01*
D15*
X3373138Y-7653138D02*
X3373138Y-7426862D01*
X3146862Y-7426862D01*
X3146862Y-7653138D01*
X3373138Y-7653138D01*
X3373138Y-20723138D02*
X3373138Y-20496862D01*
X3146862Y-20496862D01*
X3146862Y-20723138D01*
X3373138Y-20723138D01*
X21833138Y-13983138D02*
X21833138Y-13756862D01*
X21606862Y-13756862D01*
X21606862Y-13983138D01*
X21833138Y-13983138D01*
X37953138Y-7653138D02*
X37953138Y-7426862D01*
X37726862Y-7426862D01*
X37726862Y-7653138D01*
X37953138Y-7653138D01*
X37953138Y-20723138D02*
X37953138Y-20496862D01*
X37726862Y-20496862D01*
X37726862Y-20723138D01*
X37953138Y-20723138D01*
D11*
X2928569Y-21441574D02*
X2928569Y-21241574D01*
X2928569Y-21241574D02*
X2976188Y-21241574D01*
X2976188Y-21241574D02*
X3004759Y-21251098D01*
X3004759Y-21251098D02*
X3023807Y-21270145D01*
X3023807Y-21270145D02*
X3033331Y-21289193D01*
X3033331Y-21289193D02*
X3042855Y-21327288D01*
X3042855Y-21327288D02*
X3042855Y-21355860D01*
X3042855Y-21355860D02*
X3033331Y-21393955D01*
X3033331Y-21393955D02*
X3023807Y-21413002D01*
X3023807Y-21413002D02*
X3004759Y-21432050D01*
X3004759Y-21432050D02*
X2976188Y-21441574D01*
X2976188Y-21441574D02*
X2928569Y-21441574D01*
X3128569Y-21441574D02*
X3128569Y-21308240D01*
X3128569Y-21346336D02*
X3138093Y-21327288D01*
X3138093Y-21327288D02*
X3147617Y-21317764D01*
X3147617Y-21317764D02*
X3166664Y-21308240D01*
X3166664Y-21308240D02*
X3185712Y-21308240D01*
X3252378Y-21441574D02*
X3252378Y-21308240D01*
X3252378Y-21241574D02*
X3242855Y-21251098D01*
X3242855Y-21251098D02*
X3252378Y-21260621D01*
X3252378Y-21260621D02*
X3261902Y-21251098D01*
X3261902Y-21251098D02*
X3252378Y-21241574D01*
X3252378Y-21241574D02*
X3252378Y-21260621D01*
X3376188Y-21441574D02*
X3357140Y-21432050D01*
X3357140Y-21432050D02*
X3347617Y-21413002D01*
X3347617Y-21413002D02*
X3347617Y-21241574D01*
X3480950Y-21441574D02*
X3461902Y-21432050D01*
X3461902Y-21432050D02*
X3452378Y-21413002D01*
X3452378Y-21413002D02*
X3452378Y-21241574D01*
X3709521Y-21441574D02*
X3709521Y-21241574D01*
X3709521Y-21241574D02*
X3776188Y-21384431D01*
X3776188Y-21384431D02*
X3842855Y-21241574D01*
X3842855Y-21241574D02*
X3842855Y-21441574D01*
X4023807Y-21441574D02*
X4023807Y-21336812D01*
X4023807Y-21336812D02*
X4014283Y-21317764D01*
X4014283Y-21317764D02*
X3995236Y-21308240D01*
X3995236Y-21308240D02*
X3957140Y-21308240D01*
X3957140Y-21308240D02*
X3938093Y-21317764D01*
X4023807Y-21432050D02*
X4004759Y-21441574D01*
X4004759Y-21441574D02*
X3957140Y-21441574D01*
X3957140Y-21441574D02*
X3938093Y-21432050D01*
X3938093Y-21432050D02*
X3928569Y-21413002D01*
X3928569Y-21413002D02*
X3928569Y-21393955D01*
X3928569Y-21393955D02*
X3938093Y-21374907D01*
X3938093Y-21374907D02*
X3957140Y-21365383D01*
X3957140Y-21365383D02*
X4004759Y-21365383D01*
X4004759Y-21365383D02*
X4023807Y-21355860D01*
X4119045Y-21308240D02*
X4119045Y-21508240D01*
X4119045Y-21317764D02*
X4138093Y-21308240D01*
X4138093Y-21308240D02*
X4176188Y-21308240D01*
X4176188Y-21308240D02*
X4195236Y-21317764D01*
X4195236Y-21317764D02*
X4204760Y-21327288D01*
X4204760Y-21327288D02*
X4214283Y-21346336D01*
X4214283Y-21346336D02*
X4214283Y-21403479D01*
X4214283Y-21403479D02*
X4204760Y-21422526D01*
X4204760Y-21422526D02*
X4195236Y-21432050D01*
X4195236Y-21432050D02*
X4176188Y-21441574D01*
X4176188Y-21441574D02*
X4138093Y-21441574D01*
X4138093Y-21441574D02*
X4119045Y-21432050D01*
X4299998Y-21422526D02*
X4309521Y-21432050D01*
X4309521Y-21432050D02*
X4299998Y-21441574D01*
X4299998Y-21441574D02*
X4290474Y-21432050D01*
X4290474Y-21432050D02*
X4299998Y-21422526D01*
X4299998Y-21422526D02*
X4299998Y-21441574D01*
X4299998Y-21317764D02*
X4309521Y-21327288D01*
X4309521Y-21327288D02*
X4299998Y-21336812D01*
X4299998Y-21336812D02*
X4290474Y-21327288D01*
X4290474Y-21327288D02*
X4299998Y-21317764D01*
X4299998Y-21317764D02*
X4299998Y-21336812D01*
D12*
X2530950Y-21694050D02*
X2680950Y-21844050D01*
X2680950Y-21694050D02*
X2530950Y-21844050D01*
D11*
X3033331Y-21861574D02*
X2919045Y-21861574D01*
X2976188Y-21861574D02*
X2976188Y-21661574D01*
X2976188Y-21661574D02*
X2957140Y-21690145D01*
X2957140Y-21690145D02*
X2938093Y-21709193D01*
X2938093Y-21709193D02*
X2919045Y-21718717D01*
X3119045Y-21842526D02*
X3128569Y-21852050D01*
X3128569Y-21852050D02*
X3119045Y-21861574D01*
X3119045Y-21861574D02*
X3109521Y-21852050D01*
X3109521Y-21852050D02*
X3119045Y-21842526D01*
X3119045Y-21842526D02*
X3119045Y-21861574D01*
X3309521Y-21661574D02*
X3214283Y-21661574D01*
X3214283Y-21661574D02*
X3204759Y-21756812D01*
X3204759Y-21756812D02*
X3214283Y-21747288D01*
X3214283Y-21747288D02*
X3233331Y-21737764D01*
X3233331Y-21737764D02*
X3280950Y-21737764D01*
X3280950Y-21737764D02*
X3299998Y-21747288D01*
X3299998Y-21747288D02*
X3309521Y-21756812D01*
X3309521Y-21756812D02*
X3319045Y-21775860D01*
X3319045Y-21775860D02*
X3319045Y-21823479D01*
X3319045Y-21823479D02*
X3309521Y-21842526D01*
X3309521Y-21842526D02*
X3299998Y-21852050D01*
X3299998Y-21852050D02*
X3280950Y-21861574D01*
X3280950Y-21861574D02*
X3233331Y-21861574D01*
X3233331Y-21861574D02*
X3214283Y-21852050D01*
X3214283Y-21852050D02*
X3204759Y-21842526D01*
X3442855Y-21661574D02*
X3461902Y-21661574D01*
X3461902Y-21661574D02*
X3480950Y-21671098D01*
X3480950Y-21671098D02*
X3490474Y-21680621D01*
X3490474Y-21680621D02*
X3499998Y-21699669D01*
X3499998Y-21699669D02*
X3509521Y-21737764D01*
X3509521Y-21737764D02*
X3509521Y-21785383D01*
X3509521Y-21785383D02*
X3499998Y-21823479D01*
X3499998Y-21823479D02*
X3490474Y-21842526D01*
X3490474Y-21842526D02*
X3480950Y-21852050D01*
X3480950Y-21852050D02*
X3461902Y-21861574D01*
X3461902Y-21861574D02*
X3442855Y-21861574D01*
X3442855Y-21861574D02*
X3423807Y-21852050D01*
X3423807Y-21852050D02*
X3414283Y-21842526D01*
X3414283Y-21842526D02*
X3404759Y-21823479D01*
X3404759Y-21823479D02*
X3395236Y-21785383D01*
X3395236Y-21785383D02*
X3395236Y-21737764D01*
X3395236Y-21737764D02*
X3404759Y-21699669D01*
X3404759Y-21699669D02*
X3414283Y-21680621D01*
X3414283Y-21680621D02*
X3423807Y-21671098D01*
X3423807Y-21671098D02*
X3442855Y-21661574D01*
X3633331Y-21661574D02*
X3652379Y-21661574D01*
X3652379Y-21661574D02*
X3671426Y-21671098D01*
X3671426Y-21671098D02*
X3680950Y-21680621D01*
X3680950Y-21680621D02*
X3690474Y-21699669D01*
X3690474Y-21699669D02*
X3699998Y-21737764D01*
X3699998Y-21737764D02*
X3699998Y-21785383D01*
X3699998Y-21785383D02*
X3690474Y-21823479D01*
X3690474Y-21823479D02*
X3680950Y-21842526D01*
X3680950Y-21842526D02*
X3671426Y-21852050D01*
X3671426Y-21852050D02*
X3652379Y-21861574D01*
X3652379Y-21861574D02*
X3633331Y-21861574D01*
X3633331Y-21861574D02*
X3614283Y-21852050D01*
X3614283Y-21852050D02*
X3604759Y-21842526D01*
X3604759Y-21842526D02*
X3595236Y-21823479D01*
X3595236Y-21823479D02*
X3585712Y-21785383D01*
X3585712Y-21785383D02*
X3585712Y-21737764D01*
X3585712Y-21737764D02*
X3595236Y-21699669D01*
X3595236Y-21699669D02*
X3604759Y-21680621D01*
X3604759Y-21680621D02*
X3614283Y-21671098D01*
X3614283Y-21671098D02*
X3633331Y-21661574D01*
X3785712Y-21861574D02*
X3785712Y-21728240D01*
X3785712Y-21747288D02*
X3795236Y-21737764D01*
X3795236Y-21737764D02*
X3814283Y-21728240D01*
X3814283Y-21728240D02*
X3842855Y-21728240D01*
X3842855Y-21728240D02*
X3861902Y-21737764D01*
X3861902Y-21737764D02*
X3871426Y-21756812D01*
X3871426Y-21756812D02*
X3871426Y-21861574D01*
X3871426Y-21756812D02*
X3880950Y-21737764D01*
X3880950Y-21737764D02*
X3899998Y-21728240D01*
X3899998Y-21728240D02*
X3928569Y-21728240D01*
X3928569Y-21728240D02*
X3947617Y-21737764D01*
X3947617Y-21737764D02*
X3957140Y-21756812D01*
X3957140Y-21756812D02*
X3957140Y-21861574D01*
X4052379Y-21861574D02*
X4052379Y-21728240D01*
X4052379Y-21747288D02*
X4061902Y-21737764D01*
X4061902Y-21737764D02*
X4080950Y-21728240D01*
X4080950Y-21728240D02*
X4109521Y-21728240D01*
X4109521Y-21728240D02*
X4128569Y-21737764D01*
X4128569Y-21737764D02*
X4138093Y-21756812D01*
X4138093Y-21756812D02*
X4138093Y-21861574D01*
X4138093Y-21756812D02*
X4147617Y-21737764D01*
X4147617Y-21737764D02*
X4166664Y-21728240D01*
X4166664Y-21728240D02*
X4195236Y-21728240D01*
X4195236Y-21728240D02*
X4214283Y-21737764D01*
X4214283Y-21737764D02*
X4223807Y-21756812D01*
X4223807Y-21756812D02*
X4223807Y-21861574D01*
X4614283Y-21652050D02*
X4442855Y-21909193D01*
X4871426Y-21661574D02*
X4890474Y-21661574D01*
X4890474Y-21661574D02*
X4909522Y-21671098D01*
X4909522Y-21671098D02*
X4919045Y-21680621D01*
X4919045Y-21680621D02*
X4928569Y-21699669D01*
X4928569Y-21699669D02*
X4938093Y-21737764D01*
X4938093Y-21737764D02*
X4938093Y-21785383D01*
X4938093Y-21785383D02*
X4928569Y-21823479D01*
X4928569Y-21823479D02*
X4919045Y-21842526D01*
X4919045Y-21842526D02*
X4909522Y-21852050D01*
X4909522Y-21852050D02*
X4890474Y-21861574D01*
X4890474Y-21861574D02*
X4871426Y-21861574D01*
X4871426Y-21861574D02*
X4852379Y-21852050D01*
X4852379Y-21852050D02*
X4842855Y-21842526D01*
X4842855Y-21842526D02*
X4833331Y-21823479D01*
X4833331Y-21823479D02*
X4823807Y-21785383D01*
X4823807Y-21785383D02*
X4823807Y-21737764D01*
X4823807Y-21737764D02*
X4833331Y-21699669D01*
X4833331Y-21699669D02*
X4842855Y-21680621D01*
X4842855Y-21680621D02*
X4852379Y-21671098D01*
X4852379Y-21671098D02*
X4871426Y-21661574D01*
X5023807Y-21842526D02*
X5033331Y-21852050D01*
X5033331Y-21852050D02*
X5023807Y-21861574D01*
X5023807Y-21861574D02*
X5014284Y-21852050D01*
X5014284Y-21852050D02*
X5023807Y-21842526D01*
X5023807Y-21842526D02*
X5023807Y-21861574D01*
X5157141Y-21661574D02*
X5176188Y-21661574D01*
X5176188Y-21661574D02*
X5195236Y-21671098D01*
X5195236Y-21671098D02*
X5204760Y-21680621D01*
X5204760Y-21680621D02*
X5214284Y-21699669D01*
X5214284Y-21699669D02*
X5223807Y-21737764D01*
X5223807Y-21737764D02*
X5223807Y-21785383D01*
X5223807Y-21785383D02*
X5214284Y-21823479D01*
X5214284Y-21823479D02*
X5204760Y-21842526D01*
X5204760Y-21842526D02*
X5195236Y-21852050D01*
X5195236Y-21852050D02*
X5176188Y-21861574D01*
X5176188Y-21861574D02*
X5157141Y-21861574D01*
X5157141Y-21861574D02*
X5138093Y-21852050D01*
X5138093Y-21852050D02*
X5128569Y-21842526D01*
X5128569Y-21842526D02*
X5119045Y-21823479D01*
X5119045Y-21823479D02*
X5109522Y-21785383D01*
X5109522Y-21785383D02*
X5109522Y-21737764D01*
X5109522Y-21737764D02*
X5119045Y-21699669D01*
X5119045Y-21699669D02*
X5128569Y-21680621D01*
X5128569Y-21680621D02*
X5138093Y-21671098D01*
X5138093Y-21671098D02*
X5157141Y-21661574D01*
X5404760Y-21661574D02*
X5309522Y-21661574D01*
X5309522Y-21661574D02*
X5299998Y-21756812D01*
X5299998Y-21756812D02*
X5309522Y-21747288D01*
X5309522Y-21747288D02*
X5328569Y-21737764D01*
X5328569Y-21737764D02*
X5376188Y-21737764D01*
X5376188Y-21737764D02*
X5395236Y-21747288D01*
X5395236Y-21747288D02*
X5404760Y-21756812D01*
X5404760Y-21756812D02*
X5414284Y-21775860D01*
X5414284Y-21775860D02*
X5414284Y-21823479D01*
X5414284Y-21823479D02*
X5404760Y-21842526D01*
X5404760Y-21842526D02*
X5395236Y-21852050D01*
X5395236Y-21852050D02*
X5376188Y-21861574D01*
X5376188Y-21861574D02*
X5328569Y-21861574D01*
X5328569Y-21861574D02*
X5309522Y-21852050D01*
X5309522Y-21852050D02*
X5299998Y-21842526D01*
X5509522Y-21861574D02*
X5547617Y-21861574D01*
X5547617Y-21861574D02*
X5566665Y-21852050D01*
X5566665Y-21852050D02*
X5576188Y-21842526D01*
X5576188Y-21842526D02*
X5595236Y-21813955D01*
X5595236Y-21813955D02*
X5604760Y-21775860D01*
X5604760Y-21775860D02*
X5604760Y-21699669D01*
X5604760Y-21699669D02*
X5595236Y-21680621D01*
X5595236Y-21680621D02*
X5585712Y-21671098D01*
X5585712Y-21671098D02*
X5566665Y-21661574D01*
X5566665Y-21661574D02*
X5528569Y-21661574D01*
X5528569Y-21661574D02*
X5509522Y-21671098D01*
X5509522Y-21671098D02*
X5499998Y-21680621D01*
X5499998Y-21680621D02*
X5490474Y-21699669D01*
X5490474Y-21699669D02*
X5490474Y-21747288D01*
X5490474Y-21747288D02*
X5499998Y-21766336D01*
X5499998Y-21766336D02*
X5509522Y-21775860D01*
X5509522Y-21775860D02*
X5528569Y-21785383D01*
X5528569Y-21785383D02*
X5566665Y-21785383D01*
X5566665Y-21785383D02*
X5585712Y-21775860D01*
X5585712Y-21775860D02*
X5595236Y-21766336D01*
X5595236Y-21766336D02*
X5604760Y-21747288D01*
X5795236Y-21861574D02*
X5680950Y-21861574D01*
X5738093Y-21861574D02*
X5738093Y-21661574D01*
X5738093Y-21661574D02*
X5719045Y-21690145D01*
X5719045Y-21690145D02*
X5699998Y-21709193D01*
X5699998Y-21709193D02*
X5680950Y-21718717D01*
X5871426Y-21661574D02*
X5871426Y-21699669D01*
X5947617Y-21661574D02*
X5947617Y-21699669D01*
X6242855Y-21937764D02*
X6233331Y-21928240D01*
X6233331Y-21928240D02*
X6214284Y-21899669D01*
X6214284Y-21899669D02*
X6204760Y-21880621D01*
X6204760Y-21880621D02*
X6195236Y-21852050D01*
X6195236Y-21852050D02*
X6185712Y-21804431D01*
X6185712Y-21804431D02*
X6185712Y-21766336D01*
X6185712Y-21766336D02*
X6195236Y-21718717D01*
X6195236Y-21718717D02*
X6204760Y-21690145D01*
X6204760Y-21690145D02*
X6214284Y-21671098D01*
X6214284Y-21671098D02*
X6233331Y-21642526D01*
X6233331Y-21642526D02*
X6242855Y-21633002D01*
X6309522Y-21680621D02*
X6319045Y-21671098D01*
X6319045Y-21671098D02*
X6338093Y-21661574D01*
X6338093Y-21661574D02*
X6385712Y-21661574D01*
X6385712Y-21661574D02*
X6404760Y-21671098D01*
X6404760Y-21671098D02*
X6414284Y-21680621D01*
X6414284Y-21680621D02*
X6423807Y-21699669D01*
X6423807Y-21699669D02*
X6423807Y-21718717D01*
X6423807Y-21718717D02*
X6414284Y-21747288D01*
X6414284Y-21747288D02*
X6299998Y-21861574D01*
X6299998Y-21861574D02*
X6423807Y-21861574D01*
X6661903Y-21861574D02*
X6661903Y-21661574D01*
X6747617Y-21861574D02*
X6747617Y-21756812D01*
X6747617Y-21756812D02*
X6738093Y-21737764D01*
X6738093Y-21737764D02*
X6719046Y-21728240D01*
X6719046Y-21728240D02*
X6690474Y-21728240D01*
X6690474Y-21728240D02*
X6671426Y-21737764D01*
X6671426Y-21737764D02*
X6661903Y-21747288D01*
X6871426Y-21861574D02*
X6852379Y-21852050D01*
X6852379Y-21852050D02*
X6842855Y-21842526D01*
X6842855Y-21842526D02*
X6833331Y-21823479D01*
X6833331Y-21823479D02*
X6833331Y-21766336D01*
X6833331Y-21766336D02*
X6842855Y-21747288D01*
X6842855Y-21747288D02*
X6852379Y-21737764D01*
X6852379Y-21737764D02*
X6871426Y-21728240D01*
X6871426Y-21728240D02*
X6899998Y-21728240D01*
X6899998Y-21728240D02*
X6919046Y-21737764D01*
X6919046Y-21737764D02*
X6928569Y-21747288D01*
X6928569Y-21747288D02*
X6938093Y-21766336D01*
X6938093Y-21766336D02*
X6938093Y-21823479D01*
X6938093Y-21823479D02*
X6928569Y-21842526D01*
X6928569Y-21842526D02*
X6919046Y-21852050D01*
X6919046Y-21852050D02*
X6899998Y-21861574D01*
X6899998Y-21861574D02*
X6871426Y-21861574D01*
X7052379Y-21861574D02*
X7033331Y-21852050D01*
X7033331Y-21852050D02*
X7023807Y-21833002D01*
X7023807Y-21833002D02*
X7023807Y-21661574D01*
X7204760Y-21852050D02*
X7185712Y-21861574D01*
X7185712Y-21861574D02*
X7147617Y-21861574D01*
X7147617Y-21861574D02*
X7128569Y-21852050D01*
X7128569Y-21852050D02*
X7119046Y-21833002D01*
X7119046Y-21833002D02*
X7119046Y-21756812D01*
X7119046Y-21756812D02*
X7128569Y-21737764D01*
X7128569Y-21737764D02*
X7147617Y-21728240D01*
X7147617Y-21728240D02*
X7185712Y-21728240D01*
X7185712Y-21728240D02*
X7204760Y-21737764D01*
X7204760Y-21737764D02*
X7214284Y-21756812D01*
X7214284Y-21756812D02*
X7214284Y-21775860D01*
X7214284Y-21775860D02*
X7119046Y-21794907D01*
X7290474Y-21852050D02*
X7309522Y-21861574D01*
X7309522Y-21861574D02*
X7347617Y-21861574D01*
X7347617Y-21861574D02*
X7366665Y-21852050D01*
X7366665Y-21852050D02*
X7376188Y-21833002D01*
X7376188Y-21833002D02*
X7376188Y-21823479D01*
X7376188Y-21823479D02*
X7366665Y-21804431D01*
X7366665Y-21804431D02*
X7347617Y-21794907D01*
X7347617Y-21794907D02*
X7319046Y-21794907D01*
X7319046Y-21794907D02*
X7299998Y-21785383D01*
X7299998Y-21785383D02*
X7290474Y-21766336D01*
X7290474Y-21766336D02*
X7290474Y-21756812D01*
X7290474Y-21756812D02*
X7299998Y-21737764D01*
X7299998Y-21737764D02*
X7319046Y-21728240D01*
X7319046Y-21728240D02*
X7347617Y-21728240D01*
X7347617Y-21728240D02*
X7366665Y-21737764D01*
X7442855Y-21937764D02*
X7452379Y-21928240D01*
X7452379Y-21928240D02*
X7471427Y-21899669D01*
X7471427Y-21899669D02*
X7480950Y-21880621D01*
X7480950Y-21880621D02*
X7490474Y-21852050D01*
X7490474Y-21852050D02*
X7499998Y-21804431D01*
X7499998Y-21804431D02*
X7499998Y-21766336D01*
X7499998Y-21766336D02*
X7490474Y-21718717D01*
X7490474Y-21718717D02*
X7480950Y-21690145D01*
X7480950Y-21690145D02*
X7471427Y-21671098D01*
X7471427Y-21671098D02*
X7452379Y-21642526D01*
X7452379Y-21642526D02*
X7442855Y-21633002D01*
X7804760Y-21937764D02*
X7795236Y-21928240D01*
X7795236Y-21928240D02*
X7776188Y-21899669D01*
X7776188Y-21899669D02*
X7766665Y-21880621D01*
X7766665Y-21880621D02*
X7757141Y-21852050D01*
X7757141Y-21852050D02*
X7747617Y-21804431D01*
X7747617Y-21804431D02*
X7747617Y-21766336D01*
X7747617Y-21766336D02*
X7757141Y-21718717D01*
X7757141Y-21718717D02*
X7766665Y-21690145D01*
X7766665Y-21690145D02*
X7776188Y-21671098D01*
X7776188Y-21671098D02*
X7795236Y-21642526D01*
X7795236Y-21642526D02*
X7804760Y-21633002D01*
X7880950Y-21728240D02*
X7880950Y-21861574D01*
X7880950Y-21747288D02*
X7890474Y-21737764D01*
X7890474Y-21737764D02*
X7909522Y-21728240D01*
X7909522Y-21728240D02*
X7938093Y-21728240D01*
X7938093Y-21728240D02*
X7957141Y-21737764D01*
X7957141Y-21737764D02*
X7966665Y-21756812D01*
X7966665Y-21756812D02*
X7966665Y-21861574D01*
X8090474Y-21861574D02*
X8071427Y-21852050D01*
X8071427Y-21852050D02*
X8061903Y-21842526D01*
X8061903Y-21842526D02*
X8052379Y-21823479D01*
X8052379Y-21823479D02*
X8052379Y-21766336D01*
X8052379Y-21766336D02*
X8061903Y-21747288D01*
X8061903Y-21747288D02*
X8071427Y-21737764D01*
X8071427Y-21737764D02*
X8090474Y-21728240D01*
X8090474Y-21728240D02*
X8119046Y-21728240D01*
X8119046Y-21728240D02*
X8138093Y-21737764D01*
X8138093Y-21737764D02*
X8147617Y-21747288D01*
X8147617Y-21747288D02*
X8157141Y-21766336D01*
X8157141Y-21766336D02*
X8157141Y-21823479D01*
X8157141Y-21823479D02*
X8147617Y-21842526D01*
X8147617Y-21842526D02*
X8138093Y-21852050D01*
X8138093Y-21852050D02*
X8119046Y-21861574D01*
X8119046Y-21861574D02*
X8090474Y-21861574D01*
X8214284Y-21728240D02*
X8290474Y-21728240D01*
X8242855Y-21661574D02*
X8242855Y-21833002D01*
X8242855Y-21833002D02*
X8252379Y-21852050D01*
X8252379Y-21852050D02*
X8271427Y-21861574D01*
X8271427Y-21861574D02*
X8290474Y-21861574D01*
X8509522Y-21728240D02*
X8509522Y-21928240D01*
X8509522Y-21737764D02*
X8528570Y-21728240D01*
X8528570Y-21728240D02*
X8566665Y-21728240D01*
X8566665Y-21728240D02*
X8585712Y-21737764D01*
X8585712Y-21737764D02*
X8595236Y-21747288D01*
X8595236Y-21747288D02*
X8604760Y-21766336D01*
X8604760Y-21766336D02*
X8604760Y-21823479D01*
X8604760Y-21823479D02*
X8595236Y-21842526D01*
X8595236Y-21842526D02*
X8585712Y-21852050D01*
X8585712Y-21852050D02*
X8566665Y-21861574D01*
X8566665Y-21861574D02*
X8528570Y-21861574D01*
X8528570Y-21861574D02*
X8509522Y-21852050D01*
X8719046Y-21861574D02*
X8699998Y-21852050D01*
X8699998Y-21852050D02*
X8690474Y-21833002D01*
X8690474Y-21833002D02*
X8690474Y-21661574D01*
X8880951Y-21861574D02*
X8880951Y-21756812D01*
X8880951Y-21756812D02*
X8871427Y-21737764D01*
X8871427Y-21737764D02*
X8852379Y-21728240D01*
X8852379Y-21728240D02*
X8814284Y-21728240D01*
X8814284Y-21728240D02*
X8795236Y-21737764D01*
X8880951Y-21852050D02*
X8861903Y-21861574D01*
X8861903Y-21861574D02*
X8814284Y-21861574D01*
X8814284Y-21861574D02*
X8795236Y-21852050D01*
X8795236Y-21852050D02*
X8785712Y-21833002D01*
X8785712Y-21833002D02*
X8785712Y-21813955D01*
X8785712Y-21813955D02*
X8795236Y-21794907D01*
X8795236Y-21794907D02*
X8814284Y-21785383D01*
X8814284Y-21785383D02*
X8861903Y-21785383D01*
X8861903Y-21785383D02*
X8880951Y-21775860D01*
X8947617Y-21728240D02*
X9023808Y-21728240D01*
X8976189Y-21661574D02*
X8976189Y-21833002D01*
X8976189Y-21833002D02*
X8985712Y-21852050D01*
X8985712Y-21852050D02*
X9004760Y-21861574D01*
X9004760Y-21861574D02*
X9023808Y-21861574D01*
X9166665Y-21852050D02*
X9147617Y-21861574D01*
X9147617Y-21861574D02*
X9109522Y-21861574D01*
X9109522Y-21861574D02*
X9090474Y-21852050D01*
X9090474Y-21852050D02*
X9080951Y-21833002D01*
X9080951Y-21833002D02*
X9080951Y-21756812D01*
X9080951Y-21756812D02*
X9090474Y-21737764D01*
X9090474Y-21737764D02*
X9109522Y-21728240D01*
X9109522Y-21728240D02*
X9147617Y-21728240D01*
X9147617Y-21728240D02*
X9166665Y-21737764D01*
X9166665Y-21737764D02*
X9176189Y-21756812D01*
X9176189Y-21756812D02*
X9176189Y-21775860D01*
X9176189Y-21775860D02*
X9080951Y-21794907D01*
X9347617Y-21861574D02*
X9347617Y-21661574D01*
X9347617Y-21852050D02*
X9328570Y-21861574D01*
X9328570Y-21861574D02*
X9290474Y-21861574D01*
X9290474Y-21861574D02*
X9271427Y-21852050D01*
X9271427Y-21852050D02*
X9261903Y-21842526D01*
X9261903Y-21842526D02*
X9252379Y-21823479D01*
X9252379Y-21823479D02*
X9252379Y-21766336D01*
X9252379Y-21766336D02*
X9261903Y-21747288D01*
X9261903Y-21747288D02*
X9271427Y-21737764D01*
X9271427Y-21737764D02*
X9290474Y-21728240D01*
X9290474Y-21728240D02*
X9328570Y-21728240D01*
X9328570Y-21728240D02*
X9347617Y-21737764D01*
X9423808Y-21937764D02*
X9433332Y-21928240D01*
X9433332Y-21928240D02*
X9452379Y-21899669D01*
X9452379Y-21899669D02*
X9461903Y-21880621D01*
X9461903Y-21880621D02*
X9471427Y-21852050D01*
X9471427Y-21852050D02*
X9480951Y-21804431D01*
X9480951Y-21804431D02*
X9480951Y-21766336D01*
X9480951Y-21766336D02*
X9471427Y-21718717D01*
X9471427Y-21718717D02*
X9461903Y-21690145D01*
X9461903Y-21690145D02*
X9452379Y-21671098D01*
X9452379Y-21671098D02*
X9433332Y-21642526D01*
X9433332Y-21642526D02*
X9423808Y-21633002D01*
D13*
X2680950Y-22039050D02*
G75*
G03*
X2680950Y-22039050I-90000J0D01*
G01*
D11*
X3033331Y-22131574D02*
X2919045Y-22131574D01*
X2976188Y-22131574D02*
X2976188Y-21931574D01*
X2976188Y-21931574D02*
X2957140Y-21960145D01*
X2957140Y-21960145D02*
X2938093Y-21979193D01*
X2938093Y-21979193D02*
X2919045Y-21988717D01*
X3119045Y-22112526D02*
X3128569Y-22122050D01*
X3128569Y-22122050D02*
X3119045Y-22131574D01*
X3119045Y-22131574D02*
X3109521Y-22122050D01*
X3109521Y-22122050D02*
X3119045Y-22112526D01*
X3119045Y-22112526D02*
X3119045Y-22131574D01*
X3242855Y-22017288D02*
X3223807Y-22007764D01*
X3223807Y-22007764D02*
X3214283Y-21998240D01*
X3214283Y-21998240D02*
X3204759Y-21979193D01*
X3204759Y-21979193D02*
X3204759Y-21969669D01*
X3204759Y-21969669D02*
X3214283Y-21950621D01*
X3214283Y-21950621D02*
X3223807Y-21941098D01*
X3223807Y-21941098D02*
X3242855Y-21931574D01*
X3242855Y-21931574D02*
X3280950Y-21931574D01*
X3280950Y-21931574D02*
X3299998Y-21941098D01*
X3299998Y-21941098D02*
X3309521Y-21950621D01*
X3309521Y-21950621D02*
X3319045Y-21969669D01*
X3319045Y-21969669D02*
X3319045Y-21979193D01*
X3319045Y-21979193D02*
X3309521Y-21998240D01*
X3309521Y-21998240D02*
X3299998Y-22007764D01*
X3299998Y-22007764D02*
X3280950Y-22017288D01*
X3280950Y-22017288D02*
X3242855Y-22017288D01*
X3242855Y-22017288D02*
X3223807Y-22026812D01*
X3223807Y-22026812D02*
X3214283Y-22036336D01*
X3214283Y-22036336D02*
X3204759Y-22055383D01*
X3204759Y-22055383D02*
X3204759Y-22093479D01*
X3204759Y-22093479D02*
X3214283Y-22112526D01*
X3214283Y-22112526D02*
X3223807Y-22122050D01*
X3223807Y-22122050D02*
X3242855Y-22131574D01*
X3242855Y-22131574D02*
X3280950Y-22131574D01*
X3280950Y-22131574D02*
X3299998Y-22122050D01*
X3299998Y-22122050D02*
X3309521Y-22112526D01*
X3309521Y-22112526D02*
X3319045Y-22093479D01*
X3319045Y-22093479D02*
X3319045Y-22055383D01*
X3319045Y-22055383D02*
X3309521Y-22036336D01*
X3309521Y-22036336D02*
X3299998Y-22026812D01*
X3299998Y-22026812D02*
X3280950Y-22017288D01*
X3442855Y-21931574D02*
X3461902Y-21931574D01*
X3461902Y-21931574D02*
X3480950Y-21941098D01*
X3480950Y-21941098D02*
X3490474Y-21950621D01*
X3490474Y-21950621D02*
X3499998Y-21969669D01*
X3499998Y-21969669D02*
X3509521Y-22007764D01*
X3509521Y-22007764D02*
X3509521Y-22055383D01*
X3509521Y-22055383D02*
X3499998Y-22093479D01*
X3499998Y-22093479D02*
X3490474Y-22112526D01*
X3490474Y-22112526D02*
X3480950Y-22122050D01*
X3480950Y-22122050D02*
X3461902Y-22131574D01*
X3461902Y-22131574D02*
X3442855Y-22131574D01*
X3442855Y-22131574D02*
X3423807Y-22122050D01*
X3423807Y-22122050D02*
X3414283Y-22112526D01*
X3414283Y-22112526D02*
X3404759Y-22093479D01*
X3404759Y-22093479D02*
X3395236Y-22055383D01*
X3395236Y-22055383D02*
X3395236Y-22007764D01*
X3395236Y-22007764D02*
X3404759Y-21969669D01*
X3404759Y-21969669D02*
X3414283Y-21950621D01*
X3414283Y-21950621D02*
X3423807Y-21941098D01*
X3423807Y-21941098D02*
X3442855Y-21931574D01*
X3633331Y-21931574D02*
X3652379Y-21931574D01*
X3652379Y-21931574D02*
X3671426Y-21941098D01*
X3671426Y-21941098D02*
X3680950Y-21950621D01*
X3680950Y-21950621D02*
X3690474Y-21969669D01*
X3690474Y-21969669D02*
X3699998Y-22007764D01*
X3699998Y-22007764D02*
X3699998Y-22055383D01*
X3699998Y-22055383D02*
X3690474Y-22093479D01*
X3690474Y-22093479D02*
X3680950Y-22112526D01*
X3680950Y-22112526D02*
X3671426Y-22122050D01*
X3671426Y-22122050D02*
X3652379Y-22131574D01*
X3652379Y-22131574D02*
X3633331Y-22131574D01*
X3633331Y-22131574D02*
X3614283Y-22122050D01*
X3614283Y-22122050D02*
X3604759Y-22112526D01*
X3604759Y-22112526D02*
X3595236Y-22093479D01*
X3595236Y-22093479D02*
X3585712Y-22055383D01*
X3585712Y-22055383D02*
X3585712Y-22007764D01*
X3585712Y-22007764D02*
X3595236Y-21969669D01*
X3595236Y-21969669D02*
X3604759Y-21950621D01*
X3604759Y-21950621D02*
X3614283Y-21941098D01*
X3614283Y-21941098D02*
X3633331Y-21931574D01*
X3785712Y-22131574D02*
X3785712Y-21998240D01*
X3785712Y-22017288D02*
X3795236Y-22007764D01*
X3795236Y-22007764D02*
X3814283Y-21998240D01*
X3814283Y-21998240D02*
X3842855Y-21998240D01*
X3842855Y-21998240D02*
X3861902Y-22007764D01*
X3861902Y-22007764D02*
X3871426Y-22026812D01*
X3871426Y-22026812D02*
X3871426Y-22131574D01*
X3871426Y-22026812D02*
X3880950Y-22007764D01*
X3880950Y-22007764D02*
X3899998Y-21998240D01*
X3899998Y-21998240D02*
X3928569Y-21998240D01*
X3928569Y-21998240D02*
X3947617Y-22007764D01*
X3947617Y-22007764D02*
X3957140Y-22026812D01*
X3957140Y-22026812D02*
X3957140Y-22131574D01*
X4052379Y-22131574D02*
X4052379Y-21998240D01*
X4052379Y-22017288D02*
X4061902Y-22007764D01*
X4061902Y-22007764D02*
X4080950Y-21998240D01*
X4080950Y-21998240D02*
X4109521Y-21998240D01*
X4109521Y-21998240D02*
X4128569Y-22007764D01*
X4128569Y-22007764D02*
X4138093Y-22026812D01*
X4138093Y-22026812D02*
X4138093Y-22131574D01*
X4138093Y-22026812D02*
X4147617Y-22007764D01*
X4147617Y-22007764D02*
X4166664Y-21998240D01*
X4166664Y-21998240D02*
X4195236Y-21998240D01*
X4195236Y-21998240D02*
X4214283Y-22007764D01*
X4214283Y-22007764D02*
X4223807Y-22026812D01*
X4223807Y-22026812D02*
X4223807Y-22131574D01*
X4614283Y-21922050D02*
X4442855Y-22179193D01*
X4871426Y-21931574D02*
X4890474Y-21931574D01*
X4890474Y-21931574D02*
X4909522Y-21941098D01*
X4909522Y-21941098D02*
X4919045Y-21950621D01*
X4919045Y-21950621D02*
X4928569Y-21969669D01*
X4928569Y-21969669D02*
X4938093Y-22007764D01*
X4938093Y-22007764D02*
X4938093Y-22055383D01*
X4938093Y-22055383D02*
X4928569Y-22093479D01*
X4928569Y-22093479D02*
X4919045Y-22112526D01*
X4919045Y-22112526D02*
X4909522Y-22122050D01*
X4909522Y-22122050D02*
X4890474Y-22131574D01*
X4890474Y-22131574D02*
X4871426Y-22131574D01*
X4871426Y-22131574D02*
X4852379Y-22122050D01*
X4852379Y-22122050D02*
X4842855Y-22112526D01*
X4842855Y-22112526D02*
X4833331Y-22093479D01*
X4833331Y-22093479D02*
X4823807Y-22055383D01*
X4823807Y-22055383D02*
X4823807Y-22007764D01*
X4823807Y-22007764D02*
X4833331Y-21969669D01*
X4833331Y-21969669D02*
X4842855Y-21950621D01*
X4842855Y-21950621D02*
X4852379Y-21941098D01*
X4852379Y-21941098D02*
X4871426Y-21931574D01*
X5023807Y-22112526D02*
X5033331Y-22122050D01*
X5033331Y-22122050D02*
X5023807Y-22131574D01*
X5023807Y-22131574D02*
X5014284Y-22122050D01*
X5014284Y-22122050D02*
X5023807Y-22112526D01*
X5023807Y-22112526D02*
X5023807Y-22131574D01*
X5157141Y-21931574D02*
X5176188Y-21931574D01*
X5176188Y-21931574D02*
X5195236Y-21941098D01*
X5195236Y-21941098D02*
X5204760Y-21950621D01*
X5204760Y-21950621D02*
X5214284Y-21969669D01*
X5214284Y-21969669D02*
X5223807Y-22007764D01*
X5223807Y-22007764D02*
X5223807Y-22055383D01*
X5223807Y-22055383D02*
X5214284Y-22093479D01*
X5214284Y-22093479D02*
X5204760Y-22112526D01*
X5204760Y-22112526D02*
X5195236Y-22122050D01*
X5195236Y-22122050D02*
X5176188Y-22131574D01*
X5176188Y-22131574D02*
X5157141Y-22131574D01*
X5157141Y-22131574D02*
X5138093Y-22122050D01*
X5138093Y-22122050D02*
X5128569Y-22112526D01*
X5128569Y-22112526D02*
X5119045Y-22093479D01*
X5119045Y-22093479D02*
X5109522Y-22055383D01*
X5109522Y-22055383D02*
X5109522Y-22007764D01*
X5109522Y-22007764D02*
X5119045Y-21969669D01*
X5119045Y-21969669D02*
X5128569Y-21950621D01*
X5128569Y-21950621D02*
X5138093Y-21941098D01*
X5138093Y-21941098D02*
X5157141Y-21931574D01*
X5290474Y-21931574D02*
X5423807Y-21931574D01*
X5423807Y-21931574D02*
X5338093Y-22131574D01*
X5538093Y-21931574D02*
X5557141Y-21931574D01*
X5557141Y-21931574D02*
X5576188Y-21941098D01*
X5576188Y-21941098D02*
X5585712Y-21950621D01*
X5585712Y-21950621D02*
X5595236Y-21969669D01*
X5595236Y-21969669D02*
X5604760Y-22007764D01*
X5604760Y-22007764D02*
X5604760Y-22055383D01*
X5604760Y-22055383D02*
X5595236Y-22093479D01*
X5595236Y-22093479D02*
X5585712Y-22112526D01*
X5585712Y-22112526D02*
X5576188Y-22122050D01*
X5576188Y-22122050D02*
X5557141Y-22131574D01*
X5557141Y-22131574D02*
X5538093Y-22131574D01*
X5538093Y-22131574D02*
X5519045Y-22122050D01*
X5519045Y-22122050D02*
X5509522Y-22112526D01*
X5509522Y-22112526D02*
X5499998Y-22093479D01*
X5499998Y-22093479D02*
X5490474Y-22055383D01*
X5490474Y-22055383D02*
X5490474Y-22007764D01*
X5490474Y-22007764D02*
X5499998Y-21969669D01*
X5499998Y-21969669D02*
X5509522Y-21950621D01*
X5509522Y-21950621D02*
X5519045Y-21941098D01*
X5519045Y-21941098D02*
X5538093Y-21931574D01*
X5699998Y-22131574D02*
X5738093Y-22131574D01*
X5738093Y-22131574D02*
X5757141Y-22122050D01*
X5757141Y-22122050D02*
X5766664Y-22112526D01*
X5766664Y-22112526D02*
X5785712Y-22083955D01*
X5785712Y-22083955D02*
X5795236Y-22045860D01*
X5795236Y-22045860D02*
X5795236Y-21969669D01*
X5795236Y-21969669D02*
X5785712Y-21950621D01*
X5785712Y-21950621D02*
X5776188Y-21941098D01*
X5776188Y-21941098D02*
X5757141Y-21931574D01*
X5757141Y-21931574D02*
X5719045Y-21931574D01*
X5719045Y-21931574D02*
X5699998Y-21941098D01*
X5699998Y-21941098D02*
X5690474Y-21950621D01*
X5690474Y-21950621D02*
X5680950Y-21969669D01*
X5680950Y-21969669D02*
X5680950Y-22017288D01*
X5680950Y-22017288D02*
X5690474Y-22036336D01*
X5690474Y-22036336D02*
X5699998Y-22045860D01*
X5699998Y-22045860D02*
X5719045Y-22055383D01*
X5719045Y-22055383D02*
X5757141Y-22055383D01*
X5757141Y-22055383D02*
X5776188Y-22045860D01*
X5776188Y-22045860D02*
X5785712Y-22036336D01*
X5785712Y-22036336D02*
X5795236Y-22017288D01*
X5871426Y-21931574D02*
X5871426Y-21969669D01*
X5947617Y-21931574D02*
X5947617Y-21969669D01*
X6242855Y-22207764D02*
X6233331Y-22198240D01*
X6233331Y-22198240D02*
X6214284Y-22169669D01*
X6214284Y-22169669D02*
X6204760Y-22150621D01*
X6204760Y-22150621D02*
X6195236Y-22122050D01*
X6195236Y-22122050D02*
X6185712Y-22074431D01*
X6185712Y-22074431D02*
X6185712Y-22036336D01*
X6185712Y-22036336D02*
X6195236Y-21988717D01*
X6195236Y-21988717D02*
X6204760Y-21960145D01*
X6204760Y-21960145D02*
X6214284Y-21941098D01*
X6214284Y-21941098D02*
X6233331Y-21912526D01*
X6233331Y-21912526D02*
X6242855Y-21903002D01*
X6309522Y-21950621D02*
X6319045Y-21941098D01*
X6319045Y-21941098D02*
X6338093Y-21931574D01*
X6338093Y-21931574D02*
X6385712Y-21931574D01*
X6385712Y-21931574D02*
X6404760Y-21941098D01*
X6404760Y-21941098D02*
X6414284Y-21950621D01*
X6414284Y-21950621D02*
X6423807Y-21969669D01*
X6423807Y-21969669D02*
X6423807Y-21988717D01*
X6423807Y-21988717D02*
X6414284Y-22017288D01*
X6414284Y-22017288D02*
X6299998Y-22131574D01*
X6299998Y-22131574D02*
X6423807Y-22131574D01*
X6661903Y-22131574D02*
X6661903Y-21931574D01*
X6747617Y-22131574D02*
X6747617Y-22026812D01*
X6747617Y-22026812D02*
X6738093Y-22007764D01*
X6738093Y-22007764D02*
X6719046Y-21998240D01*
X6719046Y-21998240D02*
X6690474Y-21998240D01*
X6690474Y-21998240D02*
X6671426Y-22007764D01*
X6671426Y-22007764D02*
X6661903Y-22017288D01*
X6871426Y-22131574D02*
X6852379Y-22122050D01*
X6852379Y-22122050D02*
X6842855Y-22112526D01*
X6842855Y-22112526D02*
X6833331Y-22093479D01*
X6833331Y-22093479D02*
X6833331Y-22036336D01*
X6833331Y-22036336D02*
X6842855Y-22017288D01*
X6842855Y-22017288D02*
X6852379Y-22007764D01*
X6852379Y-22007764D02*
X6871426Y-21998240D01*
X6871426Y-21998240D02*
X6899998Y-21998240D01*
X6899998Y-21998240D02*
X6919046Y-22007764D01*
X6919046Y-22007764D02*
X6928569Y-22017288D01*
X6928569Y-22017288D02*
X6938093Y-22036336D01*
X6938093Y-22036336D02*
X6938093Y-22093479D01*
X6938093Y-22093479D02*
X6928569Y-22112526D01*
X6928569Y-22112526D02*
X6919046Y-22122050D01*
X6919046Y-22122050D02*
X6899998Y-22131574D01*
X6899998Y-22131574D02*
X6871426Y-22131574D01*
X7052379Y-22131574D02*
X7033331Y-22122050D01*
X7033331Y-22122050D02*
X7023807Y-22103002D01*
X7023807Y-22103002D02*
X7023807Y-21931574D01*
X7204760Y-22122050D02*
X7185712Y-22131574D01*
X7185712Y-22131574D02*
X7147617Y-22131574D01*
X7147617Y-22131574D02*
X7128569Y-22122050D01*
X7128569Y-22122050D02*
X7119046Y-22103002D01*
X7119046Y-22103002D02*
X7119046Y-22026812D01*
X7119046Y-22026812D02*
X7128569Y-22007764D01*
X7128569Y-22007764D02*
X7147617Y-21998240D01*
X7147617Y-21998240D02*
X7185712Y-21998240D01*
X7185712Y-21998240D02*
X7204760Y-22007764D01*
X7204760Y-22007764D02*
X7214284Y-22026812D01*
X7214284Y-22026812D02*
X7214284Y-22045860D01*
X7214284Y-22045860D02*
X7119046Y-22064907D01*
X7290474Y-22122050D02*
X7309522Y-22131574D01*
X7309522Y-22131574D02*
X7347617Y-22131574D01*
X7347617Y-22131574D02*
X7366665Y-22122050D01*
X7366665Y-22122050D02*
X7376188Y-22103002D01*
X7376188Y-22103002D02*
X7376188Y-22093479D01*
X7376188Y-22093479D02*
X7366665Y-22074431D01*
X7366665Y-22074431D02*
X7347617Y-22064907D01*
X7347617Y-22064907D02*
X7319046Y-22064907D01*
X7319046Y-22064907D02*
X7299998Y-22055383D01*
X7299998Y-22055383D02*
X7290474Y-22036336D01*
X7290474Y-22036336D02*
X7290474Y-22026812D01*
X7290474Y-22026812D02*
X7299998Y-22007764D01*
X7299998Y-22007764D02*
X7319046Y-21998240D01*
X7319046Y-21998240D02*
X7347617Y-21998240D01*
X7347617Y-21998240D02*
X7366665Y-22007764D01*
X7442855Y-22207764D02*
X7452379Y-22198240D01*
X7452379Y-22198240D02*
X7471427Y-22169669D01*
X7471427Y-22169669D02*
X7480950Y-22150621D01*
X7480950Y-22150621D02*
X7490474Y-22122050D01*
X7490474Y-22122050D02*
X7499998Y-22074431D01*
X7499998Y-22074431D02*
X7499998Y-22036336D01*
X7499998Y-22036336D02*
X7490474Y-21988717D01*
X7490474Y-21988717D02*
X7480950Y-21960145D01*
X7480950Y-21960145D02*
X7471427Y-21941098D01*
X7471427Y-21941098D02*
X7452379Y-21912526D01*
X7452379Y-21912526D02*
X7442855Y-21903002D01*
X7804760Y-22207764D02*
X7795236Y-22198240D01*
X7795236Y-22198240D02*
X7776188Y-22169669D01*
X7776188Y-22169669D02*
X7766665Y-22150621D01*
X7766665Y-22150621D02*
X7757141Y-22122050D01*
X7757141Y-22122050D02*
X7747617Y-22074431D01*
X7747617Y-22074431D02*
X7747617Y-22036336D01*
X7747617Y-22036336D02*
X7757141Y-21988717D01*
X7757141Y-21988717D02*
X7766665Y-21960145D01*
X7766665Y-21960145D02*
X7776188Y-21941098D01*
X7776188Y-21941098D02*
X7795236Y-21912526D01*
X7795236Y-21912526D02*
X7804760Y-21903002D01*
X7880950Y-21998240D02*
X7880950Y-22131574D01*
X7880950Y-22017288D02*
X7890474Y-22007764D01*
X7890474Y-22007764D02*
X7909522Y-21998240D01*
X7909522Y-21998240D02*
X7938093Y-21998240D01*
X7938093Y-21998240D02*
X7957141Y-22007764D01*
X7957141Y-22007764D02*
X7966665Y-22026812D01*
X7966665Y-22026812D02*
X7966665Y-22131574D01*
X8090474Y-22131574D02*
X8071427Y-22122050D01*
X8071427Y-22122050D02*
X8061903Y-22112526D01*
X8061903Y-22112526D02*
X8052379Y-22093479D01*
X8052379Y-22093479D02*
X8052379Y-22036336D01*
X8052379Y-22036336D02*
X8061903Y-22017288D01*
X8061903Y-22017288D02*
X8071427Y-22007764D01*
X8071427Y-22007764D02*
X8090474Y-21998240D01*
X8090474Y-21998240D02*
X8119046Y-21998240D01*
X8119046Y-21998240D02*
X8138093Y-22007764D01*
X8138093Y-22007764D02*
X8147617Y-22017288D01*
X8147617Y-22017288D02*
X8157141Y-22036336D01*
X8157141Y-22036336D02*
X8157141Y-22093479D01*
X8157141Y-22093479D02*
X8147617Y-22112526D01*
X8147617Y-22112526D02*
X8138093Y-22122050D01*
X8138093Y-22122050D02*
X8119046Y-22131574D01*
X8119046Y-22131574D02*
X8090474Y-22131574D01*
X8214284Y-21998240D02*
X8290474Y-21998240D01*
X8242855Y-21931574D02*
X8242855Y-22103002D01*
X8242855Y-22103002D02*
X8252379Y-22122050D01*
X8252379Y-22122050D02*
X8271427Y-22131574D01*
X8271427Y-22131574D02*
X8290474Y-22131574D01*
X8509522Y-21998240D02*
X8509522Y-22198240D01*
X8509522Y-22007764D02*
X8528570Y-21998240D01*
X8528570Y-21998240D02*
X8566665Y-21998240D01*
X8566665Y-21998240D02*
X8585712Y-22007764D01*
X8585712Y-22007764D02*
X8595236Y-22017288D01*
X8595236Y-22017288D02*
X8604760Y-22036336D01*
X8604760Y-22036336D02*
X8604760Y-22093479D01*
X8604760Y-22093479D02*
X8595236Y-22112526D01*
X8595236Y-22112526D02*
X8585712Y-22122050D01*
X8585712Y-22122050D02*
X8566665Y-22131574D01*
X8566665Y-22131574D02*
X8528570Y-22131574D01*
X8528570Y-22131574D02*
X8509522Y-22122050D01*
X8719046Y-22131574D02*
X8699998Y-22122050D01*
X8699998Y-22122050D02*
X8690474Y-22103002D01*
X8690474Y-22103002D02*
X8690474Y-21931574D01*
X8880951Y-22131574D02*
X8880951Y-22026812D01*
X8880951Y-22026812D02*
X8871427Y-22007764D01*
X8871427Y-22007764D02*
X8852379Y-21998240D01*
X8852379Y-21998240D02*
X8814284Y-21998240D01*
X8814284Y-21998240D02*
X8795236Y-22007764D01*
X8880951Y-22122050D02*
X8861903Y-22131574D01*
X8861903Y-22131574D02*
X8814284Y-22131574D01*
X8814284Y-22131574D02*
X8795236Y-22122050D01*
X8795236Y-22122050D02*
X8785712Y-22103002D01*
X8785712Y-22103002D02*
X8785712Y-22083955D01*
X8785712Y-22083955D02*
X8795236Y-22064907D01*
X8795236Y-22064907D02*
X8814284Y-22055383D01*
X8814284Y-22055383D02*
X8861903Y-22055383D01*
X8861903Y-22055383D02*
X8880951Y-22045860D01*
X8947617Y-21998240D02*
X9023808Y-21998240D01*
X8976189Y-21931574D02*
X8976189Y-22103002D01*
X8976189Y-22103002D02*
X8985712Y-22122050D01*
X8985712Y-22122050D02*
X9004760Y-22131574D01*
X9004760Y-22131574D02*
X9023808Y-22131574D01*
X9166665Y-22122050D02*
X9147617Y-22131574D01*
X9147617Y-22131574D02*
X9109522Y-22131574D01*
X9109522Y-22131574D02*
X9090474Y-22122050D01*
X9090474Y-22122050D02*
X9080951Y-22103002D01*
X9080951Y-22103002D02*
X9080951Y-22026812D01*
X9080951Y-22026812D02*
X9090474Y-22007764D01*
X9090474Y-22007764D02*
X9109522Y-21998240D01*
X9109522Y-21998240D02*
X9147617Y-21998240D01*
X9147617Y-21998240D02*
X9166665Y-22007764D01*
X9166665Y-22007764D02*
X9176189Y-22026812D01*
X9176189Y-22026812D02*
X9176189Y-22045860D01*
X9176189Y-22045860D02*
X9080951Y-22064907D01*
X9347617Y-22131574D02*
X9347617Y-21931574D01*
X9347617Y-22122050D02*
X9328570Y-22131574D01*
X9328570Y-22131574D02*
X9290474Y-22131574D01*
X9290474Y-22131574D02*
X9271427Y-22122050D01*
X9271427Y-22122050D02*
X9261903Y-22112526D01*
X9261903Y-22112526D02*
X9252379Y-22093479D01*
X9252379Y-22093479D02*
X9252379Y-22036336D01*
X9252379Y-22036336D02*
X9261903Y-22017288D01*
X9261903Y-22017288D02*
X9271427Y-22007764D01*
X9271427Y-22007764D02*
X9290474Y-21998240D01*
X9290474Y-21998240D02*
X9328570Y-21998240D01*
X9328570Y-21998240D02*
X9347617Y-22007764D01*
X9423808Y-22207764D02*
X9433332Y-22198240D01*
X9433332Y-22198240D02*
X9452379Y-22169669D01*
X9452379Y-22169669D02*
X9461903Y-22150621D01*
X9461903Y-22150621D02*
X9471427Y-22122050D01*
X9471427Y-22122050D02*
X9480951Y-22074431D01*
X9480951Y-22074431D02*
X9480951Y-22036336D01*
X9480951Y-22036336D02*
X9471427Y-21988717D01*
X9471427Y-21988717D02*
X9461903Y-21960145D01*
X9461903Y-21960145D02*
X9452379Y-21941098D01*
X9452379Y-21941098D02*
X9433332Y-21912526D01*
X9433332Y-21912526D02*
X9423808Y-21903002D01*
X2580950Y-22239050D02*
X2580950Y-22439050D01*
X2480950Y-22339050D02*
X2680950Y-22339050D01*
X2919045Y-22250621D02*
X2928569Y-22241098D01*
X2928569Y-22241098D02*
X2947617Y-22231574D01*
X2947617Y-22231574D02*
X2995236Y-22231574D01*
X2995236Y-22231574D02*
X3014283Y-22241098D01*
X3014283Y-22241098D02*
X3023807Y-22250621D01*
X3023807Y-22250621D02*
X3033331Y-22269669D01*
X3033331Y-22269669D02*
X3033331Y-22288717D01*
X3033331Y-22288717D02*
X3023807Y-22317288D01*
X3023807Y-22317288D02*
X2909521Y-22431574D01*
X2909521Y-22431574D02*
X3033331Y-22431574D01*
X3119045Y-22412526D02*
X3128569Y-22422050D01*
X3128569Y-22422050D02*
X3119045Y-22431574D01*
X3119045Y-22431574D02*
X3109521Y-22422050D01*
X3109521Y-22422050D02*
X3119045Y-22412526D01*
X3119045Y-22412526D02*
X3119045Y-22431574D01*
X3299998Y-22298240D02*
X3299998Y-22431574D01*
X3252378Y-22222050D02*
X3204759Y-22364907D01*
X3204759Y-22364907D02*
X3328569Y-22364907D01*
X3442855Y-22231574D02*
X3461902Y-22231574D01*
X3461902Y-22231574D02*
X3480950Y-22241098D01*
X3480950Y-22241098D02*
X3490474Y-22250621D01*
X3490474Y-22250621D02*
X3499998Y-22269669D01*
X3499998Y-22269669D02*
X3509521Y-22307764D01*
X3509521Y-22307764D02*
X3509521Y-22355383D01*
X3509521Y-22355383D02*
X3499998Y-22393478D01*
X3499998Y-22393478D02*
X3490474Y-22412526D01*
X3490474Y-22412526D02*
X3480950Y-22422050D01*
X3480950Y-22422050D02*
X3461902Y-22431574D01*
X3461902Y-22431574D02*
X3442855Y-22431574D01*
X3442855Y-22431574D02*
X3423807Y-22422050D01*
X3423807Y-22422050D02*
X3414283Y-22412526D01*
X3414283Y-22412526D02*
X3404759Y-22393478D01*
X3404759Y-22393478D02*
X3395236Y-22355383D01*
X3395236Y-22355383D02*
X3395236Y-22307764D01*
X3395236Y-22307764D02*
X3404759Y-22269669D01*
X3404759Y-22269669D02*
X3414283Y-22250621D01*
X3414283Y-22250621D02*
X3423807Y-22241098D01*
X3423807Y-22241098D02*
X3442855Y-22231574D01*
X3633331Y-22231574D02*
X3652379Y-22231574D01*
X3652379Y-22231574D02*
X3671426Y-22241098D01*
X3671426Y-22241098D02*
X3680950Y-22250621D01*
X3680950Y-22250621D02*
X3690474Y-22269669D01*
X3690474Y-22269669D02*
X3699998Y-22307764D01*
X3699998Y-22307764D02*
X3699998Y-22355383D01*
X3699998Y-22355383D02*
X3690474Y-22393478D01*
X3690474Y-22393478D02*
X3680950Y-22412526D01*
X3680950Y-22412526D02*
X3671426Y-22422050D01*
X3671426Y-22422050D02*
X3652379Y-22431574D01*
X3652379Y-22431574D02*
X3633331Y-22431574D01*
X3633331Y-22431574D02*
X3614283Y-22422050D01*
X3614283Y-22422050D02*
X3604759Y-22412526D01*
X3604759Y-22412526D02*
X3595236Y-22393478D01*
X3595236Y-22393478D02*
X3585712Y-22355383D01*
X3585712Y-22355383D02*
X3585712Y-22307764D01*
X3585712Y-22307764D02*
X3595236Y-22269669D01*
X3595236Y-22269669D02*
X3604759Y-22250621D01*
X3604759Y-22250621D02*
X3614283Y-22241098D01*
X3614283Y-22241098D02*
X3633331Y-22231574D01*
X3785712Y-22431574D02*
X3785712Y-22298240D01*
X3785712Y-22317288D02*
X3795236Y-22307764D01*
X3795236Y-22307764D02*
X3814283Y-22298240D01*
X3814283Y-22298240D02*
X3842855Y-22298240D01*
X3842855Y-22298240D02*
X3861902Y-22307764D01*
X3861902Y-22307764D02*
X3871426Y-22326812D01*
X3871426Y-22326812D02*
X3871426Y-22431574D01*
X3871426Y-22326812D02*
X3880950Y-22307764D01*
X3880950Y-22307764D02*
X3899998Y-22298240D01*
X3899998Y-22298240D02*
X3928569Y-22298240D01*
X3928569Y-22298240D02*
X3947617Y-22307764D01*
X3947617Y-22307764D02*
X3957140Y-22326812D01*
X3957140Y-22326812D02*
X3957140Y-22431574D01*
X4052379Y-22431574D02*
X4052379Y-22298240D01*
X4052379Y-22317288D02*
X4061902Y-22307764D01*
X4061902Y-22307764D02*
X4080950Y-22298240D01*
X4080950Y-22298240D02*
X4109521Y-22298240D01*
X4109521Y-22298240D02*
X4128569Y-22307764D01*
X4128569Y-22307764D02*
X4138093Y-22326812D01*
X4138093Y-22326812D02*
X4138093Y-22431574D01*
X4138093Y-22326812D02*
X4147617Y-22307764D01*
X4147617Y-22307764D02*
X4166664Y-22298240D01*
X4166664Y-22298240D02*
X4195236Y-22298240D01*
X4195236Y-22298240D02*
X4214283Y-22307764D01*
X4214283Y-22307764D02*
X4223807Y-22326812D01*
X4223807Y-22326812D02*
X4223807Y-22431574D01*
X4614283Y-22222050D02*
X4442855Y-22479193D01*
X4871426Y-22231574D02*
X4890474Y-22231574D01*
X4890474Y-22231574D02*
X4909522Y-22241098D01*
X4909522Y-22241098D02*
X4919045Y-22250621D01*
X4919045Y-22250621D02*
X4928569Y-22269669D01*
X4928569Y-22269669D02*
X4938093Y-22307764D01*
X4938093Y-22307764D02*
X4938093Y-22355383D01*
X4938093Y-22355383D02*
X4928569Y-22393478D01*
X4928569Y-22393478D02*
X4919045Y-22412526D01*
X4919045Y-22412526D02*
X4909522Y-22422050D01*
X4909522Y-22422050D02*
X4890474Y-22431574D01*
X4890474Y-22431574D02*
X4871426Y-22431574D01*
X4871426Y-22431574D02*
X4852379Y-22422050D01*
X4852379Y-22422050D02*
X4842855Y-22412526D01*
X4842855Y-22412526D02*
X4833331Y-22393478D01*
X4833331Y-22393478D02*
X4823807Y-22355383D01*
X4823807Y-22355383D02*
X4823807Y-22307764D01*
X4823807Y-22307764D02*
X4833331Y-22269669D01*
X4833331Y-22269669D02*
X4842855Y-22250621D01*
X4842855Y-22250621D02*
X4852379Y-22241098D01*
X4852379Y-22241098D02*
X4871426Y-22231574D01*
X5023807Y-22412526D02*
X5033331Y-22422050D01*
X5033331Y-22422050D02*
X5023807Y-22431574D01*
X5023807Y-22431574D02*
X5014284Y-22422050D01*
X5014284Y-22422050D02*
X5023807Y-22412526D01*
X5023807Y-22412526D02*
X5023807Y-22431574D01*
X5157141Y-22231574D02*
X5176188Y-22231574D01*
X5176188Y-22231574D02*
X5195236Y-22241098D01*
X5195236Y-22241098D02*
X5204760Y-22250621D01*
X5204760Y-22250621D02*
X5214284Y-22269669D01*
X5214284Y-22269669D02*
X5223807Y-22307764D01*
X5223807Y-22307764D02*
X5223807Y-22355383D01*
X5223807Y-22355383D02*
X5214284Y-22393478D01*
X5214284Y-22393478D02*
X5204760Y-22412526D01*
X5204760Y-22412526D02*
X5195236Y-22422050D01*
X5195236Y-22422050D02*
X5176188Y-22431574D01*
X5176188Y-22431574D02*
X5157141Y-22431574D01*
X5157141Y-22431574D02*
X5138093Y-22422050D01*
X5138093Y-22422050D02*
X5128569Y-22412526D01*
X5128569Y-22412526D02*
X5119045Y-22393478D01*
X5119045Y-22393478D02*
X5109522Y-22355383D01*
X5109522Y-22355383D02*
X5109522Y-22307764D01*
X5109522Y-22307764D02*
X5119045Y-22269669D01*
X5119045Y-22269669D02*
X5128569Y-22250621D01*
X5128569Y-22250621D02*
X5138093Y-22241098D01*
X5138093Y-22241098D02*
X5157141Y-22231574D01*
X5319045Y-22431574D02*
X5357141Y-22431574D01*
X5357141Y-22431574D02*
X5376188Y-22422050D01*
X5376188Y-22422050D02*
X5385712Y-22412526D01*
X5385712Y-22412526D02*
X5404760Y-22383955D01*
X5404760Y-22383955D02*
X5414284Y-22345860D01*
X5414284Y-22345860D02*
X5414284Y-22269669D01*
X5414284Y-22269669D02*
X5404760Y-22250621D01*
X5404760Y-22250621D02*
X5395236Y-22241098D01*
X5395236Y-22241098D02*
X5376188Y-22231574D01*
X5376188Y-22231574D02*
X5338093Y-22231574D01*
X5338093Y-22231574D02*
X5319045Y-22241098D01*
X5319045Y-22241098D02*
X5309522Y-22250621D01*
X5309522Y-22250621D02*
X5299998Y-22269669D01*
X5299998Y-22269669D02*
X5299998Y-22317288D01*
X5299998Y-22317288D02*
X5309522Y-22336336D01*
X5309522Y-22336336D02*
X5319045Y-22345860D01*
X5319045Y-22345860D02*
X5338093Y-22355383D01*
X5338093Y-22355383D02*
X5376188Y-22355383D01*
X5376188Y-22355383D02*
X5395236Y-22345860D01*
X5395236Y-22345860D02*
X5404760Y-22336336D01*
X5404760Y-22336336D02*
X5414284Y-22317288D01*
X5585712Y-22298240D02*
X5585712Y-22431574D01*
X5538093Y-22222050D02*
X5490474Y-22364907D01*
X5490474Y-22364907D02*
X5614283Y-22364907D01*
X5785712Y-22231574D02*
X5690474Y-22231574D01*
X5690474Y-22231574D02*
X5680950Y-22326812D01*
X5680950Y-22326812D02*
X5690474Y-22317288D01*
X5690474Y-22317288D02*
X5709522Y-22307764D01*
X5709522Y-22307764D02*
X5757141Y-22307764D01*
X5757141Y-22307764D02*
X5776188Y-22317288D01*
X5776188Y-22317288D02*
X5785712Y-22326812D01*
X5785712Y-22326812D02*
X5795236Y-22345860D01*
X5795236Y-22345860D02*
X5795236Y-22393478D01*
X5795236Y-22393478D02*
X5785712Y-22412526D01*
X5785712Y-22412526D02*
X5776188Y-22422050D01*
X5776188Y-22422050D02*
X5757141Y-22431574D01*
X5757141Y-22431574D02*
X5709522Y-22431574D01*
X5709522Y-22431574D02*
X5690474Y-22422050D01*
X5690474Y-22422050D02*
X5680950Y-22412526D01*
X5871426Y-22231574D02*
X5871426Y-22269669D01*
X5947617Y-22231574D02*
X5947617Y-22269669D01*
X6242855Y-22507764D02*
X6233331Y-22498240D01*
X6233331Y-22498240D02*
X6214284Y-22469669D01*
X6214284Y-22469669D02*
X6204760Y-22450621D01*
X6204760Y-22450621D02*
X6195236Y-22422050D01*
X6195236Y-22422050D02*
X6185712Y-22374431D01*
X6185712Y-22374431D02*
X6185712Y-22336336D01*
X6185712Y-22336336D02*
X6195236Y-22288717D01*
X6195236Y-22288717D02*
X6204760Y-22260145D01*
X6204760Y-22260145D02*
X6214284Y-22241098D01*
X6214284Y-22241098D02*
X6233331Y-22212526D01*
X6233331Y-22212526D02*
X6242855Y-22203002D01*
X6309522Y-22250621D02*
X6319045Y-22241098D01*
X6319045Y-22241098D02*
X6338093Y-22231574D01*
X6338093Y-22231574D02*
X6385712Y-22231574D01*
X6385712Y-22231574D02*
X6404760Y-22241098D01*
X6404760Y-22241098D02*
X6414284Y-22250621D01*
X6414284Y-22250621D02*
X6423807Y-22269669D01*
X6423807Y-22269669D02*
X6423807Y-22288717D01*
X6423807Y-22288717D02*
X6414284Y-22317288D01*
X6414284Y-22317288D02*
X6299998Y-22431574D01*
X6299998Y-22431574D02*
X6423807Y-22431574D01*
X6661903Y-22431574D02*
X6661903Y-22231574D01*
X6747617Y-22431574D02*
X6747617Y-22326812D01*
X6747617Y-22326812D02*
X6738093Y-22307764D01*
X6738093Y-22307764D02*
X6719046Y-22298240D01*
X6719046Y-22298240D02*
X6690474Y-22298240D01*
X6690474Y-22298240D02*
X6671426Y-22307764D01*
X6671426Y-22307764D02*
X6661903Y-22317288D01*
X6871426Y-22431574D02*
X6852379Y-22422050D01*
X6852379Y-22422050D02*
X6842855Y-22412526D01*
X6842855Y-22412526D02*
X6833331Y-22393478D01*
X6833331Y-22393478D02*
X6833331Y-22336336D01*
X6833331Y-22336336D02*
X6842855Y-22317288D01*
X6842855Y-22317288D02*
X6852379Y-22307764D01*
X6852379Y-22307764D02*
X6871426Y-22298240D01*
X6871426Y-22298240D02*
X6899998Y-22298240D01*
X6899998Y-22298240D02*
X6919046Y-22307764D01*
X6919046Y-22307764D02*
X6928569Y-22317288D01*
X6928569Y-22317288D02*
X6938093Y-22336336D01*
X6938093Y-22336336D02*
X6938093Y-22393478D01*
X6938093Y-22393478D02*
X6928569Y-22412526D01*
X6928569Y-22412526D02*
X6919046Y-22422050D01*
X6919046Y-22422050D02*
X6899998Y-22431574D01*
X6899998Y-22431574D02*
X6871426Y-22431574D01*
X7052379Y-22431574D02*
X7033331Y-22422050D01*
X7033331Y-22422050D02*
X7023807Y-22403002D01*
X7023807Y-22403002D02*
X7023807Y-22231574D01*
X7204760Y-22422050D02*
X7185712Y-22431574D01*
X7185712Y-22431574D02*
X7147617Y-22431574D01*
X7147617Y-22431574D02*
X7128569Y-22422050D01*
X7128569Y-22422050D02*
X7119046Y-22403002D01*
X7119046Y-22403002D02*
X7119046Y-22326812D01*
X7119046Y-22326812D02*
X7128569Y-22307764D01*
X7128569Y-22307764D02*
X7147617Y-22298240D01*
X7147617Y-22298240D02*
X7185712Y-22298240D01*
X7185712Y-22298240D02*
X7204760Y-22307764D01*
X7204760Y-22307764D02*
X7214284Y-22326812D01*
X7214284Y-22326812D02*
X7214284Y-22345860D01*
X7214284Y-22345860D02*
X7119046Y-22364907D01*
X7290474Y-22422050D02*
X7309522Y-22431574D01*
X7309522Y-22431574D02*
X7347617Y-22431574D01*
X7347617Y-22431574D02*
X7366665Y-22422050D01*
X7366665Y-22422050D02*
X7376188Y-22403002D01*
X7376188Y-22403002D02*
X7376188Y-22393478D01*
X7376188Y-22393478D02*
X7366665Y-22374431D01*
X7366665Y-22374431D02*
X7347617Y-22364907D01*
X7347617Y-22364907D02*
X7319046Y-22364907D01*
X7319046Y-22364907D02*
X7299998Y-22355383D01*
X7299998Y-22355383D02*
X7290474Y-22336336D01*
X7290474Y-22336336D02*
X7290474Y-22326812D01*
X7290474Y-22326812D02*
X7299998Y-22307764D01*
X7299998Y-22307764D02*
X7319046Y-22298240D01*
X7319046Y-22298240D02*
X7347617Y-22298240D01*
X7347617Y-22298240D02*
X7366665Y-22307764D01*
X7442855Y-22507764D02*
X7452379Y-22498240D01*
X7452379Y-22498240D02*
X7471427Y-22469669D01*
X7471427Y-22469669D02*
X7480950Y-22450621D01*
X7480950Y-22450621D02*
X7490474Y-22422050D01*
X7490474Y-22422050D02*
X7499998Y-22374431D01*
X7499998Y-22374431D02*
X7499998Y-22336336D01*
X7499998Y-22336336D02*
X7490474Y-22288717D01*
X7490474Y-22288717D02*
X7480950Y-22260145D01*
X7480950Y-22260145D02*
X7471427Y-22241098D01*
X7471427Y-22241098D02*
X7452379Y-22212526D01*
X7452379Y-22212526D02*
X7442855Y-22203002D01*
X7804760Y-22507764D02*
X7795236Y-22498240D01*
X7795236Y-22498240D02*
X7776188Y-22469669D01*
X7776188Y-22469669D02*
X7766665Y-22450621D01*
X7766665Y-22450621D02*
X7757141Y-22422050D01*
X7757141Y-22422050D02*
X7747617Y-22374431D01*
X7747617Y-22374431D02*
X7747617Y-22336336D01*
X7747617Y-22336336D02*
X7757141Y-22288717D01*
X7757141Y-22288717D02*
X7766665Y-22260145D01*
X7766665Y-22260145D02*
X7776188Y-22241098D01*
X7776188Y-22241098D02*
X7795236Y-22212526D01*
X7795236Y-22212526D02*
X7804760Y-22203002D01*
X7880950Y-22298240D02*
X7880950Y-22431574D01*
X7880950Y-22317288D02*
X7890474Y-22307764D01*
X7890474Y-22307764D02*
X7909522Y-22298240D01*
X7909522Y-22298240D02*
X7938093Y-22298240D01*
X7938093Y-22298240D02*
X7957141Y-22307764D01*
X7957141Y-22307764D02*
X7966665Y-22326812D01*
X7966665Y-22326812D02*
X7966665Y-22431574D01*
X8090474Y-22431574D02*
X8071427Y-22422050D01*
X8071427Y-22422050D02*
X8061903Y-22412526D01*
X8061903Y-22412526D02*
X8052379Y-22393478D01*
X8052379Y-22393478D02*
X8052379Y-22336336D01*
X8052379Y-22336336D02*
X8061903Y-22317288D01*
X8061903Y-22317288D02*
X8071427Y-22307764D01*
X8071427Y-22307764D02*
X8090474Y-22298240D01*
X8090474Y-22298240D02*
X8119046Y-22298240D01*
X8119046Y-22298240D02*
X8138093Y-22307764D01*
X8138093Y-22307764D02*
X8147617Y-22317288D01*
X8147617Y-22317288D02*
X8157141Y-22336336D01*
X8157141Y-22336336D02*
X8157141Y-22393478D01*
X8157141Y-22393478D02*
X8147617Y-22412526D01*
X8147617Y-22412526D02*
X8138093Y-22422050D01*
X8138093Y-22422050D02*
X8119046Y-22431574D01*
X8119046Y-22431574D02*
X8090474Y-22431574D01*
X8214284Y-22298240D02*
X8290474Y-22298240D01*
X8242855Y-22231574D02*
X8242855Y-22403002D01*
X8242855Y-22403002D02*
X8252379Y-22422050D01*
X8252379Y-22422050D02*
X8271427Y-22431574D01*
X8271427Y-22431574D02*
X8290474Y-22431574D01*
X8509522Y-22298240D02*
X8509522Y-22498240D01*
X8509522Y-22307764D02*
X8528570Y-22298240D01*
X8528570Y-22298240D02*
X8566665Y-22298240D01*
X8566665Y-22298240D02*
X8585712Y-22307764D01*
X8585712Y-22307764D02*
X8595236Y-22317288D01*
X8595236Y-22317288D02*
X8604760Y-22336336D01*
X8604760Y-22336336D02*
X8604760Y-22393478D01*
X8604760Y-22393478D02*
X8595236Y-22412526D01*
X8595236Y-22412526D02*
X8585712Y-22422050D01*
X8585712Y-22422050D02*
X8566665Y-22431574D01*
X8566665Y-22431574D02*
X8528570Y-22431574D01*
X8528570Y-22431574D02*
X8509522Y-22422050D01*
X8719046Y-22431574D02*
X8699998Y-22422050D01*
X8699998Y-22422050D02*
X8690474Y-22403002D01*
X8690474Y-22403002D02*
X8690474Y-22231574D01*
X8880951Y-22431574D02*
X8880951Y-22326812D01*
X8880951Y-22326812D02*
X8871427Y-22307764D01*
X8871427Y-22307764D02*
X8852379Y-22298240D01*
X8852379Y-22298240D02*
X8814284Y-22298240D01*
X8814284Y-22298240D02*
X8795236Y-22307764D01*
X8880951Y-22422050D02*
X8861903Y-22431574D01*
X8861903Y-22431574D02*
X8814284Y-22431574D01*
X8814284Y-22431574D02*
X8795236Y-22422050D01*
X8795236Y-22422050D02*
X8785712Y-22403002D01*
X8785712Y-22403002D02*
X8785712Y-22383955D01*
X8785712Y-22383955D02*
X8795236Y-22364907D01*
X8795236Y-22364907D02*
X8814284Y-22355383D01*
X8814284Y-22355383D02*
X8861903Y-22355383D01*
X8861903Y-22355383D02*
X8880951Y-22345860D01*
X8947617Y-22298240D02*
X9023808Y-22298240D01*
X8976189Y-22231574D02*
X8976189Y-22403002D01*
X8976189Y-22403002D02*
X8985712Y-22422050D01*
X8985712Y-22422050D02*
X9004760Y-22431574D01*
X9004760Y-22431574D02*
X9023808Y-22431574D01*
X9166665Y-22422050D02*
X9147617Y-22431574D01*
X9147617Y-22431574D02*
X9109522Y-22431574D01*
X9109522Y-22431574D02*
X9090474Y-22422050D01*
X9090474Y-22422050D02*
X9080951Y-22403002D01*
X9080951Y-22403002D02*
X9080951Y-22326812D01*
X9080951Y-22326812D02*
X9090474Y-22307764D01*
X9090474Y-22307764D02*
X9109522Y-22298240D01*
X9109522Y-22298240D02*
X9147617Y-22298240D01*
X9147617Y-22298240D02*
X9166665Y-22307764D01*
X9166665Y-22307764D02*
X9176189Y-22326812D01*
X9176189Y-22326812D02*
X9176189Y-22345860D01*
X9176189Y-22345860D02*
X9080951Y-22364907D01*
X9347617Y-22431574D02*
X9347617Y-22231574D01*
X9347617Y-22422050D02*
X9328570Y-22431574D01*
X9328570Y-22431574D02*
X9290474Y-22431574D01*
X9290474Y-22431574D02*
X9271427Y-22422050D01*
X9271427Y-22422050D02*
X9261903Y-22412526D01*
X9261903Y-22412526D02*
X9252379Y-22393478D01*
X9252379Y-22393478D02*
X9252379Y-22336336D01*
X9252379Y-22336336D02*
X9261903Y-22317288D01*
X9261903Y-22317288D02*
X9271427Y-22307764D01*
X9271427Y-22307764D02*
X9290474Y-22298240D01*
X9290474Y-22298240D02*
X9328570Y-22298240D01*
X9328570Y-22298240D02*
X9347617Y-22307764D01*
X9423808Y-22507764D02*
X9433332Y-22498240D01*
X9433332Y-22498240D02*
X9452379Y-22469669D01*
X9452379Y-22469669D02*
X9461903Y-22450621D01*
X9461903Y-22450621D02*
X9471427Y-22422050D01*
X9471427Y-22422050D02*
X9480951Y-22374431D01*
X9480951Y-22374431D02*
X9480951Y-22336336D01*
X9480951Y-22336336D02*
X9471427Y-22288717D01*
X9471427Y-22288717D02*
X9461903Y-22260145D01*
X9461903Y-22260145D02*
X9452379Y-22241098D01*
X9452379Y-22241098D02*
X9433332Y-22212526D01*
X9433332Y-22212526D02*
X9423808Y-22203002D01*
X2651661Y-22729761D02*
X2651661Y-22588339D01*
X2510239Y-22588339D01*
X2510239Y-22729761D01*
X2651661Y-22729761D01*
X2909521Y-22551574D02*
X3033331Y-22551574D01*
X3033331Y-22551574D02*
X2966664Y-22627764D01*
X2966664Y-22627764D02*
X2995236Y-22627764D01*
X2995236Y-22627764D02*
X3014283Y-22637288D01*
X3014283Y-22637288D02*
X3023807Y-22646812D01*
X3023807Y-22646812D02*
X3033331Y-22665859D01*
X3033331Y-22665859D02*
X3033331Y-22713478D01*
X3033331Y-22713478D02*
X3023807Y-22732526D01*
X3023807Y-22732526D02*
X3014283Y-22742050D01*
X3014283Y-22742050D02*
X2995236Y-22751574D01*
X2995236Y-22751574D02*
X2938093Y-22751574D01*
X2938093Y-22751574D02*
X2919045Y-22742050D01*
X2919045Y-22742050D02*
X2909521Y-22732526D01*
X3119045Y-22732526D02*
X3128569Y-22742050D01*
X3128569Y-22742050D02*
X3119045Y-22751574D01*
X3119045Y-22751574D02*
X3109521Y-22742050D01*
X3109521Y-22742050D02*
X3119045Y-22732526D01*
X3119045Y-22732526D02*
X3119045Y-22751574D01*
X3204759Y-22570621D02*
X3214283Y-22561098D01*
X3214283Y-22561098D02*
X3233331Y-22551574D01*
X3233331Y-22551574D02*
X3280950Y-22551574D01*
X3280950Y-22551574D02*
X3299998Y-22561098D01*
X3299998Y-22561098D02*
X3309521Y-22570621D01*
X3309521Y-22570621D02*
X3319045Y-22589669D01*
X3319045Y-22589669D02*
X3319045Y-22608717D01*
X3319045Y-22608717D02*
X3309521Y-22637288D01*
X3309521Y-22637288D02*
X3195236Y-22751574D01*
X3195236Y-22751574D02*
X3319045Y-22751574D01*
X3442855Y-22551574D02*
X3461902Y-22551574D01*
X3461902Y-22551574D02*
X3480950Y-22561098D01*
X3480950Y-22561098D02*
X3490474Y-22570621D01*
X3490474Y-22570621D02*
X3499998Y-22589669D01*
X3499998Y-22589669D02*
X3509521Y-22627764D01*
X3509521Y-22627764D02*
X3509521Y-22675383D01*
X3509521Y-22675383D02*
X3499998Y-22713478D01*
X3499998Y-22713478D02*
X3490474Y-22732526D01*
X3490474Y-22732526D02*
X3480950Y-22742050D01*
X3480950Y-22742050D02*
X3461902Y-22751574D01*
X3461902Y-22751574D02*
X3442855Y-22751574D01*
X3442855Y-22751574D02*
X3423807Y-22742050D01*
X3423807Y-22742050D02*
X3414283Y-22732526D01*
X3414283Y-22732526D02*
X3404759Y-22713478D01*
X3404759Y-22713478D02*
X3395236Y-22675383D01*
X3395236Y-22675383D02*
X3395236Y-22627764D01*
X3395236Y-22627764D02*
X3404759Y-22589669D01*
X3404759Y-22589669D02*
X3414283Y-22570621D01*
X3414283Y-22570621D02*
X3423807Y-22561098D01*
X3423807Y-22561098D02*
X3442855Y-22551574D01*
X3633331Y-22551574D02*
X3652379Y-22551574D01*
X3652379Y-22551574D02*
X3671426Y-22561098D01*
X3671426Y-22561098D02*
X3680950Y-22570621D01*
X3680950Y-22570621D02*
X3690474Y-22589669D01*
X3690474Y-22589669D02*
X3699998Y-22627764D01*
X3699998Y-22627764D02*
X3699998Y-22675383D01*
X3699998Y-22675383D02*
X3690474Y-22713478D01*
X3690474Y-22713478D02*
X3680950Y-22732526D01*
X3680950Y-22732526D02*
X3671426Y-22742050D01*
X3671426Y-22742050D02*
X3652379Y-22751574D01*
X3652379Y-22751574D02*
X3633331Y-22751574D01*
X3633331Y-22751574D02*
X3614283Y-22742050D01*
X3614283Y-22742050D02*
X3604759Y-22732526D01*
X3604759Y-22732526D02*
X3595236Y-22713478D01*
X3595236Y-22713478D02*
X3585712Y-22675383D01*
X3585712Y-22675383D02*
X3585712Y-22627764D01*
X3585712Y-22627764D02*
X3595236Y-22589669D01*
X3595236Y-22589669D02*
X3604759Y-22570621D01*
X3604759Y-22570621D02*
X3614283Y-22561098D01*
X3614283Y-22561098D02*
X3633331Y-22551574D01*
X3785712Y-22751574D02*
X3785712Y-22618240D01*
X3785712Y-22637288D02*
X3795236Y-22627764D01*
X3795236Y-22627764D02*
X3814283Y-22618240D01*
X3814283Y-22618240D02*
X3842855Y-22618240D01*
X3842855Y-22618240D02*
X3861902Y-22627764D01*
X3861902Y-22627764D02*
X3871426Y-22646812D01*
X3871426Y-22646812D02*
X3871426Y-22751574D01*
X3871426Y-22646812D02*
X3880950Y-22627764D01*
X3880950Y-22627764D02*
X3899998Y-22618240D01*
X3899998Y-22618240D02*
X3928569Y-22618240D01*
X3928569Y-22618240D02*
X3947617Y-22627764D01*
X3947617Y-22627764D02*
X3957140Y-22646812D01*
X3957140Y-22646812D02*
X3957140Y-22751574D01*
X4052379Y-22751574D02*
X4052379Y-22618240D01*
X4052379Y-22637288D02*
X4061902Y-22627764D01*
X4061902Y-22627764D02*
X4080950Y-22618240D01*
X4080950Y-22618240D02*
X4109521Y-22618240D01*
X4109521Y-22618240D02*
X4128569Y-22627764D01*
X4128569Y-22627764D02*
X4138093Y-22646812D01*
X4138093Y-22646812D02*
X4138093Y-22751574D01*
X4138093Y-22646812D02*
X4147617Y-22627764D01*
X4147617Y-22627764D02*
X4166664Y-22618240D01*
X4166664Y-22618240D02*
X4195236Y-22618240D01*
X4195236Y-22618240D02*
X4214283Y-22627764D01*
X4214283Y-22627764D02*
X4223807Y-22646812D01*
X4223807Y-22646812D02*
X4223807Y-22751574D01*
X4614283Y-22542050D02*
X4442855Y-22799193D01*
X4871426Y-22551574D02*
X4890474Y-22551574D01*
X4890474Y-22551574D02*
X4909522Y-22561098D01*
X4909522Y-22561098D02*
X4919045Y-22570621D01*
X4919045Y-22570621D02*
X4928569Y-22589669D01*
X4928569Y-22589669D02*
X4938093Y-22627764D01*
X4938093Y-22627764D02*
X4938093Y-22675383D01*
X4938093Y-22675383D02*
X4928569Y-22713478D01*
X4928569Y-22713478D02*
X4919045Y-22732526D01*
X4919045Y-22732526D02*
X4909522Y-22742050D01*
X4909522Y-22742050D02*
X4890474Y-22751574D01*
X4890474Y-22751574D02*
X4871426Y-22751574D01*
X4871426Y-22751574D02*
X4852379Y-22742050D01*
X4852379Y-22742050D02*
X4842855Y-22732526D01*
X4842855Y-22732526D02*
X4833331Y-22713478D01*
X4833331Y-22713478D02*
X4823807Y-22675383D01*
X4823807Y-22675383D02*
X4823807Y-22627764D01*
X4823807Y-22627764D02*
X4833331Y-22589669D01*
X4833331Y-22589669D02*
X4842855Y-22570621D01*
X4842855Y-22570621D02*
X4852379Y-22561098D01*
X4852379Y-22561098D02*
X4871426Y-22551574D01*
X5023807Y-22732526D02*
X5033331Y-22742050D01*
X5033331Y-22742050D02*
X5023807Y-22751574D01*
X5023807Y-22751574D02*
X5014284Y-22742050D01*
X5014284Y-22742050D02*
X5023807Y-22732526D01*
X5023807Y-22732526D02*
X5023807Y-22751574D01*
X5223807Y-22751574D02*
X5109522Y-22751574D01*
X5166664Y-22751574D02*
X5166664Y-22551574D01*
X5166664Y-22551574D02*
X5147617Y-22580145D01*
X5147617Y-22580145D02*
X5128569Y-22599193D01*
X5128569Y-22599193D02*
X5109522Y-22608717D01*
X5299998Y-22570621D02*
X5309522Y-22561098D01*
X5309522Y-22561098D02*
X5328569Y-22551574D01*
X5328569Y-22551574D02*
X5376188Y-22551574D01*
X5376188Y-22551574D02*
X5395236Y-22561098D01*
X5395236Y-22561098D02*
X5404760Y-22570621D01*
X5404760Y-22570621D02*
X5414284Y-22589669D01*
X5414284Y-22589669D02*
X5414284Y-22608717D01*
X5414284Y-22608717D02*
X5404760Y-22637288D01*
X5404760Y-22637288D02*
X5290474Y-22751574D01*
X5290474Y-22751574D02*
X5414284Y-22751574D01*
X5585712Y-22551574D02*
X5547617Y-22551574D01*
X5547617Y-22551574D02*
X5528569Y-22561098D01*
X5528569Y-22561098D02*
X5519045Y-22570621D01*
X5519045Y-22570621D02*
X5499998Y-22599193D01*
X5499998Y-22599193D02*
X5490474Y-22637288D01*
X5490474Y-22637288D02*
X5490474Y-22713478D01*
X5490474Y-22713478D02*
X5499998Y-22732526D01*
X5499998Y-22732526D02*
X5509522Y-22742050D01*
X5509522Y-22742050D02*
X5528569Y-22751574D01*
X5528569Y-22751574D02*
X5566665Y-22751574D01*
X5566665Y-22751574D02*
X5585712Y-22742050D01*
X5585712Y-22742050D02*
X5595236Y-22732526D01*
X5595236Y-22732526D02*
X5604760Y-22713478D01*
X5604760Y-22713478D02*
X5604760Y-22665859D01*
X5604760Y-22665859D02*
X5595236Y-22646812D01*
X5595236Y-22646812D02*
X5585712Y-22637288D01*
X5585712Y-22637288D02*
X5566665Y-22627764D01*
X5566665Y-22627764D02*
X5528569Y-22627764D01*
X5528569Y-22627764D02*
X5509522Y-22637288D01*
X5509522Y-22637288D02*
X5499998Y-22646812D01*
X5499998Y-22646812D02*
X5490474Y-22665859D01*
X5728569Y-22551574D02*
X5747617Y-22551574D01*
X5747617Y-22551574D02*
X5766664Y-22561098D01*
X5766664Y-22561098D02*
X5776188Y-22570621D01*
X5776188Y-22570621D02*
X5785712Y-22589669D01*
X5785712Y-22589669D02*
X5795236Y-22627764D01*
X5795236Y-22627764D02*
X5795236Y-22675383D01*
X5795236Y-22675383D02*
X5785712Y-22713478D01*
X5785712Y-22713478D02*
X5776188Y-22732526D01*
X5776188Y-22732526D02*
X5766664Y-22742050D01*
X5766664Y-22742050D02*
X5747617Y-22751574D01*
X5747617Y-22751574D02*
X5728569Y-22751574D01*
X5728569Y-22751574D02*
X5709522Y-22742050D01*
X5709522Y-22742050D02*
X5699998Y-22732526D01*
X5699998Y-22732526D02*
X5690474Y-22713478D01*
X5690474Y-22713478D02*
X5680950Y-22675383D01*
X5680950Y-22675383D02*
X5680950Y-22627764D01*
X5680950Y-22627764D02*
X5690474Y-22589669D01*
X5690474Y-22589669D02*
X5699998Y-22570621D01*
X5699998Y-22570621D02*
X5709522Y-22561098D01*
X5709522Y-22561098D02*
X5728569Y-22551574D01*
X5871426Y-22551574D02*
X5871426Y-22589669D01*
X5947617Y-22551574D02*
X5947617Y-22589669D01*
X6242855Y-22827764D02*
X6233331Y-22818240D01*
X6233331Y-22818240D02*
X6214284Y-22789669D01*
X6214284Y-22789669D02*
X6204760Y-22770621D01*
X6204760Y-22770621D02*
X6195236Y-22742050D01*
X6195236Y-22742050D02*
X6185712Y-22694431D01*
X6185712Y-22694431D02*
X6185712Y-22656336D01*
X6185712Y-22656336D02*
X6195236Y-22608717D01*
X6195236Y-22608717D02*
X6204760Y-22580145D01*
X6204760Y-22580145D02*
X6214284Y-22561098D01*
X6214284Y-22561098D02*
X6233331Y-22532526D01*
X6233331Y-22532526D02*
X6242855Y-22523002D01*
X6414284Y-22551574D02*
X6319045Y-22551574D01*
X6319045Y-22551574D02*
X6309522Y-22646812D01*
X6309522Y-22646812D02*
X6319045Y-22637288D01*
X6319045Y-22637288D02*
X6338093Y-22627764D01*
X6338093Y-22627764D02*
X6385712Y-22627764D01*
X6385712Y-22627764D02*
X6404760Y-22637288D01*
X6404760Y-22637288D02*
X6414284Y-22646812D01*
X6414284Y-22646812D02*
X6423807Y-22665859D01*
X6423807Y-22665859D02*
X6423807Y-22713478D01*
X6423807Y-22713478D02*
X6414284Y-22732526D01*
X6414284Y-22732526D02*
X6404760Y-22742050D01*
X6404760Y-22742050D02*
X6385712Y-22751574D01*
X6385712Y-22751574D02*
X6338093Y-22751574D01*
X6338093Y-22751574D02*
X6319045Y-22742050D01*
X6319045Y-22742050D02*
X6309522Y-22732526D01*
X6661903Y-22751574D02*
X6661903Y-22551574D01*
X6747617Y-22751574D02*
X6747617Y-22646812D01*
X6747617Y-22646812D02*
X6738093Y-22627764D01*
X6738093Y-22627764D02*
X6719046Y-22618240D01*
X6719046Y-22618240D02*
X6690474Y-22618240D01*
X6690474Y-22618240D02*
X6671426Y-22627764D01*
X6671426Y-22627764D02*
X6661903Y-22637288D01*
X6871426Y-22751574D02*
X6852379Y-22742050D01*
X6852379Y-22742050D02*
X6842855Y-22732526D01*
X6842855Y-22732526D02*
X6833331Y-22713478D01*
X6833331Y-22713478D02*
X6833331Y-22656336D01*
X6833331Y-22656336D02*
X6842855Y-22637288D01*
X6842855Y-22637288D02*
X6852379Y-22627764D01*
X6852379Y-22627764D02*
X6871426Y-22618240D01*
X6871426Y-22618240D02*
X6899998Y-22618240D01*
X6899998Y-22618240D02*
X6919046Y-22627764D01*
X6919046Y-22627764D02*
X6928569Y-22637288D01*
X6928569Y-22637288D02*
X6938093Y-22656336D01*
X6938093Y-22656336D02*
X6938093Y-22713478D01*
X6938093Y-22713478D02*
X6928569Y-22732526D01*
X6928569Y-22732526D02*
X6919046Y-22742050D01*
X6919046Y-22742050D02*
X6899998Y-22751574D01*
X6899998Y-22751574D02*
X6871426Y-22751574D01*
X7052379Y-22751574D02*
X7033331Y-22742050D01*
X7033331Y-22742050D02*
X7023807Y-22723002D01*
X7023807Y-22723002D02*
X7023807Y-22551574D01*
X7204760Y-22742050D02*
X7185712Y-22751574D01*
X7185712Y-22751574D02*
X7147617Y-22751574D01*
X7147617Y-22751574D02*
X7128569Y-22742050D01*
X7128569Y-22742050D02*
X7119046Y-22723002D01*
X7119046Y-22723002D02*
X7119046Y-22646812D01*
X7119046Y-22646812D02*
X7128569Y-22627764D01*
X7128569Y-22627764D02*
X7147617Y-22618240D01*
X7147617Y-22618240D02*
X7185712Y-22618240D01*
X7185712Y-22618240D02*
X7204760Y-22627764D01*
X7204760Y-22627764D02*
X7214284Y-22646812D01*
X7214284Y-22646812D02*
X7214284Y-22665859D01*
X7214284Y-22665859D02*
X7119046Y-22684907D01*
X7290474Y-22742050D02*
X7309522Y-22751574D01*
X7309522Y-22751574D02*
X7347617Y-22751574D01*
X7347617Y-22751574D02*
X7366665Y-22742050D01*
X7366665Y-22742050D02*
X7376188Y-22723002D01*
X7376188Y-22723002D02*
X7376188Y-22713478D01*
X7376188Y-22713478D02*
X7366665Y-22694431D01*
X7366665Y-22694431D02*
X7347617Y-22684907D01*
X7347617Y-22684907D02*
X7319046Y-22684907D01*
X7319046Y-22684907D02*
X7299998Y-22675383D01*
X7299998Y-22675383D02*
X7290474Y-22656336D01*
X7290474Y-22656336D02*
X7290474Y-22646812D01*
X7290474Y-22646812D02*
X7299998Y-22627764D01*
X7299998Y-22627764D02*
X7319046Y-22618240D01*
X7319046Y-22618240D02*
X7347617Y-22618240D01*
X7347617Y-22618240D02*
X7366665Y-22627764D01*
X7442855Y-22827764D02*
X7452379Y-22818240D01*
X7452379Y-22818240D02*
X7471427Y-22789669D01*
X7471427Y-22789669D02*
X7480950Y-22770621D01*
X7480950Y-22770621D02*
X7490474Y-22742050D01*
X7490474Y-22742050D02*
X7499998Y-22694431D01*
X7499998Y-22694431D02*
X7499998Y-22656336D01*
X7499998Y-22656336D02*
X7490474Y-22608717D01*
X7490474Y-22608717D02*
X7480950Y-22580145D01*
X7480950Y-22580145D02*
X7471427Y-22561098D01*
X7471427Y-22561098D02*
X7452379Y-22532526D01*
X7452379Y-22532526D02*
X7442855Y-22523002D01*
X7804760Y-22827764D02*
X7795236Y-22818240D01*
X7795236Y-22818240D02*
X7776188Y-22789669D01*
X7776188Y-22789669D02*
X7766665Y-22770621D01*
X7766665Y-22770621D02*
X7757141Y-22742050D01*
X7757141Y-22742050D02*
X7747617Y-22694431D01*
X7747617Y-22694431D02*
X7747617Y-22656336D01*
X7747617Y-22656336D02*
X7757141Y-22608717D01*
X7757141Y-22608717D02*
X7766665Y-22580145D01*
X7766665Y-22580145D02*
X7776188Y-22561098D01*
X7776188Y-22561098D02*
X7795236Y-22532526D01*
X7795236Y-22532526D02*
X7804760Y-22523002D01*
X7880950Y-22618240D02*
X7880950Y-22751574D01*
X7880950Y-22637288D02*
X7890474Y-22627764D01*
X7890474Y-22627764D02*
X7909522Y-22618240D01*
X7909522Y-22618240D02*
X7938093Y-22618240D01*
X7938093Y-22618240D02*
X7957141Y-22627764D01*
X7957141Y-22627764D02*
X7966665Y-22646812D01*
X7966665Y-22646812D02*
X7966665Y-22751574D01*
X8090474Y-22751574D02*
X8071427Y-22742050D01*
X8071427Y-22742050D02*
X8061903Y-22732526D01*
X8061903Y-22732526D02*
X8052379Y-22713478D01*
X8052379Y-22713478D02*
X8052379Y-22656336D01*
X8052379Y-22656336D02*
X8061903Y-22637288D01*
X8061903Y-22637288D02*
X8071427Y-22627764D01*
X8071427Y-22627764D02*
X8090474Y-22618240D01*
X8090474Y-22618240D02*
X8119046Y-22618240D01*
X8119046Y-22618240D02*
X8138093Y-22627764D01*
X8138093Y-22627764D02*
X8147617Y-22637288D01*
X8147617Y-22637288D02*
X8157141Y-22656336D01*
X8157141Y-22656336D02*
X8157141Y-22713478D01*
X8157141Y-22713478D02*
X8147617Y-22732526D01*
X8147617Y-22732526D02*
X8138093Y-22742050D01*
X8138093Y-22742050D02*
X8119046Y-22751574D01*
X8119046Y-22751574D02*
X8090474Y-22751574D01*
X8214284Y-22618240D02*
X8290474Y-22618240D01*
X8242855Y-22551574D02*
X8242855Y-22723002D01*
X8242855Y-22723002D02*
X8252379Y-22742050D01*
X8252379Y-22742050D02*
X8271427Y-22751574D01*
X8271427Y-22751574D02*
X8290474Y-22751574D01*
X8509522Y-22618240D02*
X8509522Y-22818240D01*
X8509522Y-22627764D02*
X8528570Y-22618240D01*
X8528570Y-22618240D02*
X8566665Y-22618240D01*
X8566665Y-22618240D02*
X8585712Y-22627764D01*
X8585712Y-22627764D02*
X8595236Y-22637288D01*
X8595236Y-22637288D02*
X8604760Y-22656336D01*
X8604760Y-22656336D02*
X8604760Y-22713478D01*
X8604760Y-22713478D02*
X8595236Y-22732526D01*
X8595236Y-22732526D02*
X8585712Y-22742050D01*
X8585712Y-22742050D02*
X8566665Y-22751574D01*
X8566665Y-22751574D02*
X8528570Y-22751574D01*
X8528570Y-22751574D02*
X8509522Y-22742050D01*
X8719046Y-22751574D02*
X8699998Y-22742050D01*
X8699998Y-22742050D02*
X8690474Y-22723002D01*
X8690474Y-22723002D02*
X8690474Y-22551574D01*
X8880951Y-22751574D02*
X8880951Y-22646812D01*
X8880951Y-22646812D02*
X8871427Y-22627764D01*
X8871427Y-22627764D02*
X8852379Y-22618240D01*
X8852379Y-22618240D02*
X8814284Y-22618240D01*
X8814284Y-22618240D02*
X8795236Y-22627764D01*
X8880951Y-22742050D02*
X8861903Y-22751574D01*
X8861903Y-22751574D02*
X8814284Y-22751574D01*
X8814284Y-22751574D02*
X8795236Y-22742050D01*
X8795236Y-22742050D02*
X8785712Y-22723002D01*
X8785712Y-22723002D02*
X8785712Y-22703955D01*
X8785712Y-22703955D02*
X8795236Y-22684907D01*
X8795236Y-22684907D02*
X8814284Y-22675383D01*
X8814284Y-22675383D02*
X8861903Y-22675383D01*
X8861903Y-22675383D02*
X8880951Y-22665859D01*
X8947617Y-22618240D02*
X9023808Y-22618240D01*
X8976189Y-22551574D02*
X8976189Y-22723002D01*
X8976189Y-22723002D02*
X8985712Y-22742050D01*
X8985712Y-22742050D02*
X9004760Y-22751574D01*
X9004760Y-22751574D02*
X9023808Y-22751574D01*
X9166665Y-22742050D02*
X9147617Y-22751574D01*
X9147617Y-22751574D02*
X9109522Y-22751574D01*
X9109522Y-22751574D02*
X9090474Y-22742050D01*
X9090474Y-22742050D02*
X9080951Y-22723002D01*
X9080951Y-22723002D02*
X9080951Y-22646812D01*
X9080951Y-22646812D02*
X9090474Y-22627764D01*
X9090474Y-22627764D02*
X9109522Y-22618240D01*
X9109522Y-22618240D02*
X9147617Y-22618240D01*
X9147617Y-22618240D02*
X9166665Y-22627764D01*
X9166665Y-22627764D02*
X9176189Y-22646812D01*
X9176189Y-22646812D02*
X9176189Y-22665859D01*
X9176189Y-22665859D02*
X9080951Y-22684907D01*
X9347617Y-22751574D02*
X9347617Y-22551574D01*
X9347617Y-22742050D02*
X9328570Y-22751574D01*
X9328570Y-22751574D02*
X9290474Y-22751574D01*
X9290474Y-22751574D02*
X9271427Y-22742050D01*
X9271427Y-22742050D02*
X9261903Y-22732526D01*
X9261903Y-22732526D02*
X9252379Y-22713478D01*
X9252379Y-22713478D02*
X9252379Y-22656336D01*
X9252379Y-22656336D02*
X9261903Y-22637288D01*
X9261903Y-22637288D02*
X9271427Y-22627764D01*
X9271427Y-22627764D02*
X9290474Y-22618240D01*
X9290474Y-22618240D02*
X9328570Y-22618240D01*
X9328570Y-22618240D02*
X9347617Y-22627764D01*
X9423808Y-22827764D02*
X9433332Y-22818240D01*
X9433332Y-22818240D02*
X9452379Y-22789669D01*
X9452379Y-22789669D02*
X9461903Y-22770621D01*
X9461903Y-22770621D02*
X9471427Y-22742050D01*
X9471427Y-22742050D02*
X9480951Y-22694431D01*
X9480951Y-22694431D02*
X9480951Y-22656336D01*
X9480951Y-22656336D02*
X9471427Y-22608717D01*
X9471427Y-22608717D02*
X9461903Y-22580145D01*
X9461903Y-22580145D02*
X9452379Y-22561098D01*
X9452379Y-22561098D02*
X9433332Y-22532526D01*
X9433332Y-22532526D02*
X9423808Y-22523002D01*
M02*
